<svg width="32" height="32" viewBox="0 0 32 32" fill="none" xmlns="http://www.w3.org/2000/svg">
<path d="M24.3925 8.89121L15.9894 0.401367L7.58943 8.89121C6.00573 10.4915 4.90188 12.5116 4.4052 14.7186C3.90853 16.9256 4.03926 19.2296 4.78233 21.3647C5.20262 19.0823 6.29848 16.9825 7.92498 15.3431L15.9874 7.1914L24.0529 15.3431C25.6815 16.9809 26.7778 19.0814 27.1955 21.3647C27.9391 19.2299 28.0705 16.9262 27.5745 14.7192C27.0786 12.5122 25.9755 10.4919 24.3925 8.89121V8.89121Z" fill="#48CFAD"/>
<path d="M15.9907 12.625L10.6177 18.0554C9.91167 18.769 9.35157 19.6161 8.96944 20.5485C8.58731 21.4809 8.39062 22.4802 8.39062 23.4894C8.39062 24.4985 8.58731 25.4979 8.96944 26.4302C9.35157 27.3626 9.91167 28.2097 10.6177 28.9233V28.9233C12.0436 30.3643 13.9774 31.1738 15.9937 31.1738C18.01 31.1738 19.9438 30.3643 21.3697 28.9233V28.9233C22.0757 28.2097 22.6358 27.3626 23.018 26.4302C23.4001 25.4979 23.5968 24.4985 23.5968 23.4894C23.5968 22.4802 23.4001 21.4809 23.018 20.5485C22.6358 19.6161 22.0757 18.769 21.3697 18.0554L15.9907 12.625ZM18.007 25.535C17.6083 25.9382 17.1002 26.2129 16.5469 26.3242C15.9937 26.4356 15.4202 26.3786 14.8991 26.1605C14.3779 25.9424 13.9324 25.573 13.619 25.099C13.3056 24.625 13.1383 24.0677 13.1383 23.4976C13.1383 22.9274 13.3056 22.3701 13.619 21.8961C13.9324 21.4221 14.3779 21.0527 14.8991 20.8346C15.4202 20.6165 15.9937 20.5595 16.5469 20.6709C17.1002 20.7822 17.6083 21.0569 18.007 21.4601C18.5402 22.0003 18.8396 22.7321 18.8396 23.495C18.8396 24.2579 18.5402 24.9897 18.007 25.5298V25.535Z" fill="#48CFAD"/>
</svg>
