<svg width="309" height="309" viewBox="0 0 309 309" fill="none" xmlns="http://www.w3.org/2000/svg">
<path d="M134.681 12.4277C134.684 11.9146 139.125 8.92677 144.55 5.78794C149.976 2.64911 154.977 0.0454256 155.663 0.000413686C156.35 -0.0445982 163.321 3.58936 171.154 8.07755C178.987 12.5647 190.622 19.2035 197.011 22.8314C203.4 26.4584 227.121 40.004 249.724 52.9324L290.82 76.4386L290.33 232.196L280.336 238.043C274.839 241.259 269.781 243.911 269.093 243.937C268.104 243.973 267.842 227.883 267.836 166.712L267.827 89.442L263.089 86.8643C239.624 74.101 134.677 13.2639 134.681 12.4277Z" fill="#D13195"/>
<path d="M89.7383 38.1585L100.091 32.0599C105.784 28.706 110.783 25.9533 111.198 25.9433C112.698 25.9072 243.391 101.097 244.615 102.701C245.602 103.994 245.816 120.651 245.614 180.774L245.358 257.202L235.365 263.05C229.868 266.266 225.036 268.917 224.627 268.943C224.219 268.968 223.769 234.271 223.628 191.839L223.372 114.689L162.41 79.7464C128.882 60.5294 98.8136 43.3098 95.5936 41.4824L89.7383 38.1585Z" fill="#F2BA41"/>
<path d="M56.1325 56.8454C50.483 60.0422 45.4532 63.066 44.9545 63.5651C44.4119 64.1083 45.9429 65.4556 48.7641 66.92C51.3575 68.2654 58.2012 72.1174 63.9725 75.4783C69.7439 78.8392 97.9641 95.0415 126.683 111.483L178.9 141.376V218.186C178.9 260.431 179.238 294.985 179.65 294.972C180.061 294.96 184.896 292.351 190.393 289.174L200.387 283.398V127.719L138.925 92.5568C105.122 73.2177 74.9756 55.9641 71.9345 54.2147L66.405 51.0328L56.1325 56.8454Z" fill="#4DAECF"/>
<path fill-rule="evenodd" clip-rule="evenodd" d="M20 154.348V231.758L87.5285 270.379C124.668 291.62 155.249 309 155.486 309C155.721 309 155.914 274.171 155.914 231.601V154.201L88.3909 115.57C51.2533 94.3233 20.6726 76.9387 20.4337 76.9387C20.1949 76.9387 20 111.773 20 154.348ZM75.2152 134.768C74.2528 133.945 67.0104 129.599 59.1203 125.11C51.2293 120.621 44.3706 116.949 43.88 116.949C43.3653 116.949 42.9855 138.543 42.9855 167.749V218.548L58.2639 227.214C66.6666 231.981 74.3118 236.177 75.2532 236.538C76.8542 237.153 76.9641 233.955 76.9641 186.73C76.9641 139.904 76.8382 136.156 75.2152 134.768ZM120.729 160.529L132.912 167.463L132.92 186.218C132.925 196.533 132.645 204.973 132.299 204.973C131.952 204.973 124.532 200.887 115.81 195.895L99.9496 186.819V148.787L104.247 151.19C106.61 152.513 114.027 156.715 120.729 160.529ZM132.929 232.129L117.069 223.052C108.346 218.06 100.916 213.975 100.557 213.975C100.198 213.975 100.028 222.4 100.177 232.698L100.449 251.42L110.443 257.054C115.94 260.153 123.248 264.306 126.683 266.285L132.929 269.881V232.129Z" fill="#313E44"/>
</svg>
