<svg width="200" height="200" viewBox="0 0 200 200" fill="none" xmlns="http://www.w3.org/2000/svg">
<g clip-path="url(#clip0)">
<path d="M83.4743 98.4226V98.28C83.4743 83.3614 94.9472 71.6376 110.453 71.6376C120.914 71.6376 127.641 76.0162 132.174 82.3202L121.499 90.5782C118.648 86.927 115.199 84.588 110.311 84.588C103.185 84.588 98.0969 90.6638 98.0969 98.1231V98.2657C98.0969 105.953 103.142 111.958 110.311 111.958C115.641 111.958 118.791 109.462 121.855 105.739L132.544 113.355C127.727 120.016 121.214 124.922 109.883 124.922C106.394 124.978 102.929 124.331 99.6944 123.018C96.4603 121.705 93.5234 119.754 91.0589 117.281C88.5944 114.808 86.6528 111.864 85.3497 108.624C84.0466 105.384 83.4088 101.915 83.4743 98.4226V98.4226Z" fill="#0B2471"/>
<path d="M162.074 37.5788L154.72 45.0524L162.074 37.5788Z" fill="#0085FF"/>
<path d="M62.709 47.9477C50.6734 59.7324 43.8072 75.8181 43.6201 92.6678C43.4331 109.518 49.9404 125.752 61.7114 137.801V137.801L72.6854 126.962C63.746 117.962 58.6507 105.839 58.4752 93.1504C58.2996 80.4621 63.0577 68.2021 71.7448 58.9583C76.1139 54.3486 81.3704 50.6718 87.1975 48.1495C93.0246 45.6272 99.3016 44.3117 105.65 44.2822C112.239 44.1688 118.783 45.3718 124.901 47.8208C131.019 50.2698 136.588 53.9155 141.28 58.5447L151.656 48.1474C139.809 36.4648 123.855 29.8993 107.223 29.862C90.5911 29.8247 74.6081 36.3184 62.709 47.9477V47.9477Z" fill="#0096FF"/>
<path d="M107.147 186.408H106.078C81.5408 186.141 58.105 176.173 40.8836 158.68C23.6623 141.187 14.053 117.588 14.1523 93.0314H0C0.0679314 121.425 11.3866 148.632 31.4731 168.685C51.5597 188.738 78.7741 200 107.147 200H107.475V186.394L107.147 186.408Z" fill="#82DD22"/>
<path d="M151.642 48.0903L154.677 44.9953L151.627 48.076L151.642 48.0903Z" fill="#00D4AC"/>
<path d="M52.4046 147.885C59.592 155.075 68.1279 160.773 77.5222 164.653C86.9164 168.532 96.984 170.516 107.147 170.491H107.389V186.394C131.766 186.406 155.157 176.761 172.449 159.566L151.713 138.572C139.868 150.353 123.833 156.945 107.132 156.899H106.406C98.0788 156.828 89.8486 155.108 82.1897 151.837C74.5308 148.567 67.595 143.811 61.7824 137.844L52.0625 147.528L52.4046 147.885Z" fill="#14AA8C"/>
<path d="M50.2951 38.7341C57.3541 31.2441 65.854 25.2602 75.2836 21.1425C84.7131 17.0248 94.8775 14.8582 105.165 14.7731C115.679 14.5968 126.121 16.5176 135.885 20.4233C145.648 24.3291 154.536 30.1416 162.031 37.5218L172.335 27.0531C159.339 14.243 142.864 5.54221 124.962 2.03436C107.061 -1.47349 88.5233 0.366648 71.6591 7.32559C54.7948 14.2845 40.349 26.0547 30.1209 41.1702C19.8927 56.2857 14.3342 74.0785 14.1377 92.3325C14.1377 92.575 14.1377 92.8032 14.1377 93.0456H29.0168C28.8231 72.8691 36.4498 53.4024 50.2951 38.7341V38.7341Z" fill="#14AA8C"/>
<path d="M105.166 14.7731C94.8779 14.8582 84.7135 17.0248 75.2839 21.1425C65.8544 25.2602 57.3545 31.2441 50.2955 38.7341C36.4588 53.401 28.8376 72.8617 29.0314 93.0314C29.0314 93.2453 29.0314 93.4593 29.0314 93.6875C29.2849 114.037 37.4668 133.483 51.8347 147.885L52.0912 147.628L61.8111 137.944C49.9234 126.014 43.2585 109.846 43.2825 92.9977C43.3066 76.1495 50.0177 60.001 61.9394 48.1046C73.8611 36.2081 90.0169 29.5383 106.853 29.5624C123.689 29.5865 139.825 36.3025 151.713 48.2329L154.763 45.1522L162.117 37.6787C154.625 30.2599 145.729 24.4124 135.949 20.4792C126.17 16.5459 115.704 14.606 105.166 14.7731V14.7731Z" fill="#50BEFF"/>
<path d="M106.078 186.394H107.432V170.491H107.19C97.0271 170.516 86.9596 168.532 77.5653 164.653C68.1711 160.773 59.6351 155.075 52.4477 147.885L52.1057 147.528L51.8491 147.785C37.4983 133.401 29.3178 113.983 29.0459 93.6589C29.0459 93.4307 29.0459 93.2168 29.0459 93.0029L14.1525 93.0314C14.0608 117.583 23.6734 141.175 40.894 158.662C58.1145 176.149 81.546 186.112 106.078 186.379V186.394Z" fill="#AFE61E"/>
</g>
<defs>
<clipPath id="clip0">
<rect width="200" height="200" fill="white"/>
</clipPath>
</defs>
</svg>
