<svg width="200" height="200" viewBox="0 0 200 200" fill="none" xmlns="http://www.w3.org/2000/svg">
<path d="M3.49713 25.3949C5.41987 23.2697 8.87224 21.131 11.1686 20.6425C13.465 20.154 32.1806 19.8855 52.7566 20.047C88.6134 20.3292 90.3493 20.5199 94.4867 24.6612C97.8067 27.9851 98.8031 31.2545 98.8031 38.8287C98.8031 46.4068 97.8067 49.6704 94.4828 52.9963C90.2929 57.1843 88.9131 57.3166 49.4016 57.3166C9.89005 57.3166 8.51027 57.1843 4.32033 52.9963C1.01197 49.6879 0 46.401 0 38.9669C0 32.356 1.11706 28.026 3.49713 25.3949Z" fill="black"/>
<path d="M3.49713 87.6698C5.41987 85.5447 8.87224 83.4215 11.1686 82.9525C13.465 82.4835 54.9479 82.2149 103.353 82.357L185.253 82.5979C189.165 82.6094 192.914 84.1691 195.68 86.9362C199.004 90.2601 200 93.5276 200 101.104C200 108.682 199.004 111.945 195.68 115.271C192.912 118.038 189.159 119.592 185.246 119.592H100H14.7538C10.8408 119.592 7.0879 118.038 4.32033 115.271C1.01197 111.963 0 108.676 0 101.242C0 94.631 1.11706 90.301 3.49713 87.6698Z" fill="black"/>
<path d="M104.694 149.945C106.617 147.82 110.069 145.681 112.365 145.192C114.662 144.704 133.377 144.435 153.953 144.597C189.81 144.879 191.546 145.07 195.684 149.211C199.004 152.535 200 155.805 200 163.379C200 170.957 199.004 174.22 195.68 177.546C191.49 181.734 190.11 181.867 150.598 181.867C111.087 181.867 109.707 181.734 105.517 177.546C102.209 174.238 101.197 170.951 101.197 163.517C101.197 156.906 102.314 152.576 104.694 149.945Z" fill="black"/>
</svg>
