<svg xmlns="http://www.w3.org/2000/svg" viewBox="0 0 556 556"><defs><style>.cls-1{fill:none;stroke:#eaeaea;stroke-width:22px;}.cls-1,.cls-11{stroke-miterlimit:10;}.cls-2{fill:#fffcf0;}.cls-3{fill:#666;}.cls-4{fill:#a05858;}.cls-5,.cls-6,.cls-8{fill:#333;}.cls-6{opacity:0.1;}.cls-7{fill:#331d1d;opacity:0.5;}.cls-8{opacity:0.3;}.cls-9{opacity:0.15;}.cls-10{fill:#202020;}.cls-11{stroke:#000;stroke-width:3px;}.cls-12{fill:#d8d8d8;}.cls-13{fill:#eaeaea;}</style></defs><title>dagshub_logo</title><g id="Layer_3" data-name="Layer 3"><path class="cls-1" d="M529.35,92.72l0-1.16c0-.76-.08-1.88-.22-3.36a37.51,37.51,0,0,0-.89-5.63c-.15-.58-.33-1.2-.56-1.88-.06-.18-.1-.28-.21-.57s-.22-.53-.33-.76c-.24-.46-.46-1-.75-1.4a8.11,8.11,0,0,0-5.23-3.86,9.59,9.59,0,0,0-1.87-.22l-1.43-.1-2.45.09c-.83.1-1.68.24-2.54.37s-1.69.41-2.55.66a31.6,31.6,0,0,0-9.39,5c-5.69,4.31-10.39,9.67-15.36,14.88a140.85,140.85,0,0,1-15.78,14.82,81.16,81.16,0,0,1-8.85,6,71.71,71.71,0,0,1-9.38,4.65c-1.57.7-3.2,1.21-4.77,1.8l-5.24,2-2.57,1-2.43,1.16-4.72,2.28c-1.5.81-2.92,1.67-4.33,2.47s-2.8,1.57-4,2.45-2.49,1.68-3.68,2.48c-.59.4-1.19.78-1.74,1.18l-1.6,1.22c-1.84,1.42-3.48,2.6-4.83,3.74l-3.49,3-1.37,1.18-1.13,1.05-1.76,1.66a75.59,75.59,0,0,0-12.87,15.64,74.67,74.67,0,0,0-4.18,7.86c-.6,1.31-1.18,2.65-1.74,4.05-1.43-.62-2.87-1.24-4.38-1.81l-7.31-2.8a264.62,264.62,0,0,0-32.67-9.51,248.48,248.48,0,0,0-68.91-5.43c-2.62.11-5.17.4-7.65.58-1.25.09-2.47.26-3.67.38l-3.32.37c-2.34.29-4.52.62-6.5.89-4,.62-7.15,1.17-9.27,1.6a86.14,86.14,0,0,0-19.22,5.94,79.57,79.57,0,0,0-10.27,5.57l-.8.19a58.1,58.1,0,0,0-1.58-6.27A57.4,57.4,0,0,0,199.8,148a78,78,0,0,0-6.47-7.36c-1.46-1.5-3.15-3.06-5-4.66L187,134.86c-.5-.42-1-.83-1.56-1.22-1.08-.79-2.13-1.64-3.28-2.38s-2.29-1.56-3.51-2.26-2.43-1.46-3.73-2.1l-1.92-1c-.66-.33-1.33-.61-2-.92l-2-.92-2.09-.81-2.11-.81-2.17-.69-4.16-1.33c-2.66-.85-5.4-1.65-8-2.71-1.33-.5-2.69-1-4-1.51l-3.94-1.73a90.61,90.61,0,0,1-15.05-8.54A140,140,0,0,1,113.76,94.7c-4.44-4-8.85-8.21-13.43-12.08s-9.18-7.53-13.82-10.74a103.37,103.37,0,0,0-14-8.62,63.38,63.38,0,0,0-7.18-3.12A41.37,41.37,0,0,0,58,58.24a27.8,27.8,0,0,0-7.45-.2,21,21,0,0,0-12.06,5.47c-.68.65-1.32,1.3-1.88,1.94s-1.08,1.26-1.49,1.87a31.68,31.68,0,0,0-3.3,5.82l-.66,1.56c-.15.35-.21.53-.21.53s-.28.73-.75,2.1a60.89,60.89,0,0,0-1.61,6,88.09,88.09,0,0,0-1.46,9.31c-.07.9-.18,1.81-.24,2.79s-.08,2-.12,3.07a50.76,50.76,0,0,0,.16,6.69,61.56,61.56,0,0,0,3.2,14.73c1.71,5,3.88,9.9,6,14.9s4.23,10.13,6.11,15.49c.88,2.69,1.83,5.4,2.56,8.2.38,1.4.81,2.79,1.17,4.2L47,167c.73,2.85,1.19,5.79,1.75,8.71l.41,2.2c.13.73.21,1.48.32,2.21l.62,4.45.65,4.57c.26,1.6.41,3.21.78,4.79s.6,3.16,1,4.71.8,3.1,1.25,4.63a103.2,103.2,0,0,0,6.92,17.3c1.37,2.69,2.8,5.31,4.31,7.8.73,1.27,1.52,2.47,2.29,3.67l1.16,1.79,1.09,1.57a136.27,136.27,0,0,0,8.7,11.29c2.62,3.1,4.87,5.48,6.37,7.05a79.17,79.17,0,0,0,15.68,12.77c1.76,1.08,3.55,2.06,5.38,3a2.74,2.74,0,0,0-.05.28,107.32,107.32,0,0,0-5.38,14.65,102.6,102.6,0,0,0-3.42,19.65c-.22,2.67-.6,7-1,16-.35,7.73-.46,20.78.22,31.9.31,5.56.75,10.63,1.16,14.31.19,1.84.39,3.33.51,4.36l.2,1.61s.26,1.91.7,5,1.19,7.48,2.19,12.33,2.3,10.2,3.82,15.33,3.25,10,4.86,14.08a130.83,130.83,0,0,0,6.37,13.75c.92,1.76,1.82,3.24,2.54,4.53l2,3.17A61.53,61.53,0,0,0,134,455.88a57.61,57.61,0,0,0,9.55,6.1c.64,1.18,1.34,2.34,2.09,3.45a47.55,47.55,0,0,0,5.44,6.54,54,54,0,0,0,6.45,5.39,62,62,0,0,0,7.1,4.25c9.78,4.93,20.31,7.27,30.43,8.32a129.54,129.54,0,0,0,29.64,0,123.44,123.44,0,0,0,13.83-2.44c2.24-.47,4.4-1.14,6.55-1.71s4.24-1.28,6.26-2c3.92-1.37,7.64-2.91,11.17-4.55a51.91,51.91,0,0,0,7.28,7.11A52.68,52.68,0,0,0,283.44,494c1,.41,2.28.88,4.2,1.54.94.35,2.07.67,3.37,1.06s2.82.79,4.56,1.23c1.36.38,3.25.69,5.26,1.11,1,.18,2.08.32,3.13.47l1.57.23,1.55.15,2.87.26c.89.06,1.69.06,2.37.09l2.19.08.5,0,1.36,0c1.15,0,2.76,0,4.56-.14a81.08,81.08,0,0,0,11-1.43l3.36-.7c1.06-.25,2-.56,3-.81l2.67-.74,2.32-.8c1.44-.52,2.71-.92,3.76-1.36l2.64-1.11a37.4,37.4,0,0,0,4-1.9c1.24-.67,2.41-1.32,3.52-2,2.17-1.38,4.07-2.82,5.88-4.23s3.36-3.09,5-4.73c.7-.79,1.4-1.6,2.1-2.44a141.8,141.8,0,0,0,17.41,6.42,129.65,129.65,0,0,0,29.2,5.2,91,91,0,0,0,31.35-3.28,59.09,59.09,0,0,0,15-6.85,45.8,45.8,0,0,0,12.31-11.58,45.28,45.28,0,0,0,4.28-7.38,46.34,46.34,0,0,0,2.76-8,45.78,45.78,0,0,0,1.3-8.22A59.32,59.32,0,0,0,484,436c-.07-1.37-.28-2.73-.41-4.09l-.24-2-.42-2c-.31-1.32-.52-2.67-.91-4s-.81-2.57-1.22-3.85a15.1,15.1,0,0,0-.7-1.88l-.78-1.84-.77-1.84c-.27-.61-.6-1.17-.9-1.76-.61-1.17-1.2-2.34-1.84-3.48l-2.07-3.3a82.84,82.84,0,0,0-9.42-11.82c-.89-1-1.83-1.93-2.78-2.84a60.23,60.23,0,0,0,8.74-10.87,70.6,70.6,0,0,0,8.15-18.65,163.16,163.16,0,0,0,4.78-23.36c.21-1.78.51-3.6.65-5.47s.32-3.79.48-5.74c.18-3.9.4-7.95.31-12.12a160.45,160.45,0,0,0-2.25-25.88A151.27,151.27,0,0,0,476,265a40.71,40.71,0,0,0,3.68-2.66,49.39,49.39,0,0,0,6.46-6.39,72.57,72.57,0,0,0,10.57-17.36c1.61-3.6,4.63-10.52,8.6-22,3.7-10.67,7.56-23.63,10.95-37.14s6.35-27.55,8.52-40.33,3.57-24.3,4.15-32.71A135.15,135.15,0,0,0,529.35,92.72Z"/></g><g id="Layer_1" data-name="Layer 1"><path class="cls-2" d="M210,175.75s70.12-35.25,172.91,5.05c0,0,22.81-41.22,71.38-56.71s21.28-30.26,58.28-45.75S492,235.72,492,235.72,476.81,263.3,471.26,267c0,0,20.84,75-13.34,127.07,0,0,45.54,42.16,4.73,80.47-18.88,12.14-41.54,15.42-64.57,8.27l-24.88-8c-10.34,6.9-17.23,20.69-55.16,20.69s-58.6-20.69-58.6-20.69c-16.08,12.06-55.16,17.24-86.19,6.9,0,0-41.37-27.58-48.43-43,0,0-40.82-58.39-18.7-171.74,0,0-37.18-21.88-50.49-75.76S31,118.58,31.08,108.12,35.5,46.78,66,63s50.46,53.59,99.92,65.26C197.24,136,210,175.75,210,175.75Z"/></g><g id="Layer_2" data-name="Layer 2"><path class="cls-3" d="M285.07,161.57S304,283.1,272.48,342.79c-32.53,18-39.82,14.72-76.05,30.51s-50.2,48.4-50.2,48.4-5.88,35.32-4,37S80.45,409,106.69,267.36c0,0-43.95-31.37-50.45-75.7s-21.07-72.59-21.07-72.59S20.64,72.59,51.07,63s49.07,47,99,60.12,58.34,50,58.34,50S258.45,160.29,285.07,161.57Z"/><path class="cls-3" d="M354.32,171.05s-21,83.72,0,171.74c0,0,77.66,23.21,103.89,51.54,0,0,39.23-52.47,13.32-127,0,0,16.42-8.29,36.18-75.5S528,86.88,519.86,79s-39.7,28.44-39.7,28.44S469.29,117.62,437,131.63s-53.71,49.61-53.71,49.61Z"/><path class="cls-4" d="M183.29,198.1S128.72,96.32,46.87,81.63c0,0-8.39,5.25-2.09,38.82s9.32,70.26,14.82,84.32,26.1,50,57.58,69.41c0,0,30.43-39.35,38.82-55.09S183.29,198.1,183.29,198.1Z"/><path class="cls-4" d="M425.53,204.77s31.19,22.19,46,62.59c0,0,48.31-53.68,52.61-177,0,0-6.52-14.46-28.18,11.7S425.53,204.77,425.53,204.77Z"/><path class="cls-5" d="M320.06,408s31.63-6.77,34.26-29.89c0,0-33.05-29.87-69.25,0C285.07,378.1,297.33,408,320.06,408Z"/><path class="cls-6" d="M260,476a74.85,74.85,0,0,0,44-19.23c19.87-18.4,35.77,19.08,67.41,17.41,0,0-30-15-38-25.39s-14-21.73-29.39-6.18S271.8,472.16,260,476Z"/><path class="cls-7" d="M434.9,210.17s17.89-28,35.59-38.09a5.77,5.77,0,0,1,8.31,6.75c-2.25,7.49-4.63,17.71-4,25.94,0,0,.66-.13,1.66-.23a6.8,6.8,0,0,1,7.05,9c-2.49,7.1-5.75,21.64-4,46.72l-7.74,5S458.28,230.11,434.9,210.17Z"/><path class="cls-7" d="M169.44,204.77s-13.15-30.78-51.2-35.58a7.7,7.7,0,0,0-8.43,9.19c1.78,9.05,4,21.76,3,26.39a41.27,41.27,0,0,0-8.19-.14,5.85,5.85,0,0,0-3.63,9.94c9.1,9.27,25.11,29.45,20.89,53.39,0,0,20.71-25.26,28.18-38.38S169.44,204.77,169.44,204.77Z"/><path class="cls-8" d="M394.49,165.65s34.57,11,40.41,23.55l-9.37,15.57s-37.43-25.18-42.25-23.53Z"/><path class="cls-6" d="M477.25,421.7c-1.36,16.39-7.64,28.35-16.09,37.13,0,.05.11.08.15.13,1.32,1.76-.84,5.62-4.83,8.62s-8.14,4-9.54,2.33c-22.41,13.07-48.94,13-48.94,13C500.48,502.25,477.25,421.7,477.25,421.7Zm-11.46,44.88c-1,1-2.13,1.54-2.58,1.12s0-1.62.93-2.66,2.13-1.55,2.58-1.13S466.77,465.53,465.79,466.58Zm1.52-7.5c-.8,1.39-2,2.2-2.67,1.82s-.56-1.83.24-3.22,2-2.2,2.67-1.81S468.11,457.69,467.31,459.08Z"/><path class="cls-8" d="M439.77,217.09a305.31,305.31,0,0,1,14.65,53.06c2.49,1.83,4.84,7.35,5.73,14.16,1,7.5-.13,14-2.51,15.83a158,158,0,0,1-2.77,36.42,3.68,3.68,0,0,0-.77-.38c-3.58-1-8,3.44-9.8,9.94s-.42,12.58,3.15,13.59c.11,0,.23,0,.34,0-5.18,12-10.46,17.62-10.46,17.62,6.94-.7,20.88,17,20.88,17C515.92,290.44,439.77,217.09,439.77,217.09Z"/><path class="cls-8" d="M450.77,328.66c0-2.69-1-4.86-2.32-4.86s-2.33,2.17-2.33,4.86,1,4.85,2.33,4.85S450.77,331.34,450.77,328.66Z"/><path class="cls-9" d="M336.81,369.57s-.25,4.6-1.24,10.64a2.49,2.49,0,0,0-.8-.21c-1.85,0-3.34,2-3.34,4.47a4.43,4.43,0,0,0,2.37,4.21c-1.77,6.84-4.52,13.8-8.83,17.71l6.22-1.08s19.76-7.92,23.13-27.21C354.32,378.1,346.07,368.71,336.81,369.57Z"/><path class="cls-9" d="M327.14,396.46c.65.09,1.31-.9,1.48-2.19s-.22-2.42-.87-2.5-1.31.9-1.48,2.19S326.5,396.38,327.14,396.46Z"/><path class="cls-10" d="M206.37,176.07c6.61-1,12.11-1.45,17.8-2.22s11.58-1.73,19.07-3.12c2-.4,5.08-.9,8.87-1.5l6.23-.83,3.18-.35c1.16-.12,2.33-.28,3.52-.36,2.38-.18,4.83-.45,7.34-.56a239.65,239.65,0,0,1,66.08,5.2,256,256,0,0,1,31.38,9.12l7,2.68c2.29.87,4.46,1.88,6.6,2.77,4.31,1.75,8.2,3.72,11.83,5.42,1.83.82,3.47,1.76,5.06,2.6l4.49,2.42c1.42.72,2.67,1.53,3.83,2.25l3.2,2,2.57,1.59c.75.45,1.32.92,1.82,1.26l1.5,1.06,3.48,2.48c.56.42,1.21.82,1.86,1.36l2.11,1.73c1.51,1.26,3.29,2.62,5.16,4.26l5.94,5.53c2,2.14,4.17,4.39,6.38,6.84l3.22,3.92,1.67,2c.53.7,1,1.44,1.57,2.17l3.21,4.48,3,4.82a122.67,122.67,0,0,1,10.46,21.66,141.87,141.87,0,0,1,6.48,24.14,150.61,150.61,0,0,1,2.11,24.23c.08,3.91-.13,7.72-.29,11.39-.16,1.83-.31,3.62-.46,5.38s-.41,3.47-.6,5.15A161.49,161.49,0,0,1,468.67,359c-2.05,7.26-3.66,12.95-5.18,18.35a162.88,162.88,0,0,1-5.28,17,60.37,60.37,0,0,0,12.07-13.94,70.6,70.6,0,0,0,8.15-18.65,163.16,163.16,0,0,0,4.78-23.36c.21-1.78.51-3.6.65-5.47s.32-3.79.48-5.74c.18-3.9.4-7.95.31-12.12a160.45,160.45,0,0,0-2.25-25.88,152,152,0,0,0-7-25.95,132.72,132.72,0,0,0-11.32-23.4c-1.1-1.76-2.17-3.52-3.27-5.22l-3.47-4.84c-.57-.79-1.12-1.58-1.7-2.34l-1.8-2.2L450.38,221c-2.38-2.65-4.73-5.08-6.89-7.37l-6.39-5.94c-2-1.76-3.91-3.22-5.53-4.57l-2.27-1.84c-.69-.58-1.39-1-2-1.46l-3.73-2.65L422,196c-.54-.36-1.16-.86-1.95-1.35L417.32,193l-3.4-2.11c-1.24-.77-2.56-1.63-4.07-2.4l-4.75-2.56c-1.67-.89-3.43-1.89-5.32-2.74-3.76-1.76-7.8-3.81-12.27-5.63-2.23-.93-4.48-2-6.87-2.88l-7.31-2.8a264.62,264.62,0,0,0-32.67-9.51,248.48,248.48,0,0,0-68.91-5.43c-2.62.11-5.17.4-7.65.58-1.25.09-2.47.26-3.67.38l-3.32.37c-2.34.29-4.52.62-6.5.89-4,.62-7.15,1.17-9.27,1.6a86.14,86.14,0,0,0-19.22,5.94A82.21,82.21,0,0,0,206.37,176.07Z"/><path class="cls-10" d="M393.15,356.55c4.37,2.73,7.9,5.13,11.72,7.39s7.89,4.45,13.16,7.08c1.42.71,3.55,1.79,6.16,3.2,1.31.68,2.71,1.51,4.23,2.35l.75.42,1.3.77,2.63,1.57c1.73,1.1,3.51,2.19,5.25,3.38s3.52,2.37,5.24,3.67,3.46,2.62,5.18,4c.87.67,1.69,1.42,2.53,2.14s1.7,1.45,2.51,2.22c1.6,1.55,3.29,3.07,4.8,4.75a75.75,75.75,0,0,1,8.56,10.73l1.84,2.94c.56,1,1.08,2,1.62,3.07.27.52.57,1,.8,1.55l.67,1.61.68,1.61a11.83,11.83,0,0,1,.61,1.63c.35,1.11.7,2.22,1.06,3.34s.51,2.27.78,3.41l.37,1.72.19,1.75c.11,1.17.31,2.33.36,3.51a52.86,52.86,0,0,1-.19,7.11,40.1,40.1,0,0,1-1.1,7,39.35,39.35,0,0,1-2.29,6.63,37.39,37.39,0,0,1-3.5,6,38,38,0,0,1-10.21,9.59,51.42,51.42,0,0,1-13,5.93,83.05,83.05,0,0,1-28.62,3,121.48,121.48,0,0,1-27.43-4.89A133.94,133.94,0,0,1,346.64,455a115.38,115.38,0,0,1-14.1-12.7c-2-2-3.64-4-5.17-5.9-.31-.38-1-1.15-1.53-1.71a14.64,14.64,0,0,0-1.92-1.55,13.34,13.34,0,0,0-4.17-1.87,13.79,13.79,0,0,0-7.63.24,13.41,13.41,0,0,0-4.89,2.86c-.56.51-1,1.06-1.38,1.44l-.66.78-.54.64-2.16,2.46c-1.42,1.6-3.57,3.91-6.45,6.73a136.24,136.24,0,0,1-26.68,20.4,120.84,120.84,0,0,1-20.62,9.53c-1.9.72-3.88,1.28-5.87,1.92s-4,1.16-6.14,1.6a116.87,116.87,0,0,1-12.95,2.28,122.45,122.45,0,0,1-27.87,0c-9.53-1-19.14-3.2-27.72-7.53a52.69,52.69,0,0,1-6.14-3.67,45.51,45.51,0,0,1-5.43-4.54,39,39,0,0,1-4.48-5.38,35.12,35.12,0,0,1-3.29-6.13,36.24,36.24,0,0,1-2.67-13.65,46.82,46.82,0,0,1,2.23-13.95c2.85-9.1,8.07-17.35,14.19-24.39a90.47,90.47,0,0,1,9.87-9.72c1.74-1.48,3.5-2.89,5.3-4.22.91-.66,1.79-1.34,2.72-2l1.36-.94.69-.47.29-.19a126.36,126.36,0,0,1,14.89-8.4c5.25-2.51,9.38-4.48,13.28-6.52s7.6-4.15,12.16-6.58a74.24,74.24,0,0,0-14,1.17A60.89,60.89,0,0,0,194.38,370a128.28,128.28,0,0,0-15.88,8.9l-.32.2-.73.5-1.46,1c-1,.66-1.94,1.39-2.91,2.1-1.93,1.43-3.83,2.95-5.71,4.54a100.07,100.07,0,0,0-10.69,10.53,77.19,77.19,0,0,0-15.77,27.21,54.64,54.64,0,0,0-2.58,16.33,43.82,43.82,0,0,0,3.26,16.62,42.72,42.72,0,0,0,4,7.54,47.55,47.55,0,0,0,5.44,6.54,54,54,0,0,0,6.45,5.39,62,62,0,0,0,7.1,4.25c9.78,4.93,20.31,7.27,30.43,8.33a134.3,134.3,0,0,0,15.05.82,131.87,131.87,0,0,0,14.59-.87,123.44,123.44,0,0,0,13.83-2.44c2.24-.47,4.4-1.14,6.55-1.71s4.24-1.28,6.26-2a129.49,129.49,0,0,0,22-10.16A144.18,144.18,0,0,0,301.5,452c3-3,5.29-5.41,6.8-7.1l2.28-2.6.57-.67.7-.83c.23-.22.38-.43.64-.66a5.73,5.73,0,0,1,2.06-1.22,6,6,0,0,1,3.25-.09,5.39,5.39,0,0,1,1.77.8,6.24,6.24,0,0,1,.82.66c.27.29.43.44.91,1,1.65,2,3.47,4.16,5.54,6.33a122.55,122.55,0,0,0,15.05,13.56,141.68,141.68,0,0,0,45.67,23.1,129.65,129.65,0,0,0,29.2,5.2,91,91,0,0,0,31.35-3.28,59.09,59.09,0,0,0,15-6.85,45.8,45.8,0,0,0,12.31-11.58,45.28,45.28,0,0,0,4.28-7.38,46.34,46.34,0,0,0,2.76-8,45.78,45.78,0,0,0,1.3-8.22A59.32,59.32,0,0,0,484,436c-.07-1.37-.28-2.73-.41-4.09l-.24-2-.42-2c-.31-1.32-.52-2.67-.91-4s-.81-2.57-1.22-3.85a15.1,15.1,0,0,0-.7-1.88l-.78-1.84-.77-1.84c-.27-.61-.6-1.17-.9-1.76-.61-1.17-1.2-2.34-1.84-3.48l-2.07-3.3a82.84,82.84,0,0,0-9.42-11.82c-1.65-1.84-3.46-3.47-5.19-5.15-.88-.82-1.8-1.58-2.69-2.37s-1.78-1.57-2.7-2.28c-1.83-1.47-3.64-2.92-5.5-4.24s-3.69-2.63-5.52-3.88-3.7-2.39-5.52-3.54L434.46,371l-1.36-.81-.79-.44c-1.58-.87-3-1.73-4.41-2.44-2.71-1.45-4.93-2.56-6.42-3.29A72.43,72.43,0,0,0,407,358.65,78.31,78.31,0,0,0,393.15,356.55Z"/><path class="cls-10" d="M345.93,337.66c-1.22-3.74-2.63-6-6.1-7.65a64.41,64.41,0,0,0-13.38-4.32,58,58,0,0,0-7.6-1.07c-1-.1-1.85-.11-2.44-.14l-.91,0h-.92c-.58,0-1.42,0-2.45,0a55.7,55.7,0,0,0-7.69.85,52.28,52.28,0,0,0-8.24,2.22c-1.23.41-2.29.9-3.2,1.27s-1.62.73-2.09,1c-3.49,1.73-4.71,4.17-5.84,7.87,3.94.42,6.16.56,9.21-.83.41-.2,1-.5,1.81-.81s1.7-.73,2.75-1.07a47.3,47.3,0,0,1,7-1.91,50.22,50.22,0,0,1,6.58-.75c.88,0,1.6,0,2.11,0h.78l.79,0c.51,0,1.23,0,2.11.12a51.93,51.93,0,0,1,6.62,1,63.26,63.26,0,0,1,11.82,3.78,11.37,11.37,0,0,0,4.35,1A41.29,41.29,0,0,0,345.93,337.66Z"/><path class="cls-10" d="M106.69,267.36a111.85,111.85,0,0,0-6.47,17.05,102.6,102.6,0,0,0-3.42,19.65c-.22,2.67-.6,7-1,16-.35,7.73-.46,20.78.22,31.9.31,5.56.75,10.63,1.16,14.31.19,1.84.39,3.33.51,4.36l.2,1.61.7,5c.46,3.14,1.19,7.48,2.19,12.33s2.3,10.2,3.82,15.33,3.25,10,4.86,14.08a130.83,130.83,0,0,0,6.37,13.75c.92,1.76,1.82,3.24,2.54,4.53l2,3.17a58.65,58.65,0,0,0,29.76,24.39,166.84,166.84,0,0,1-10.72-14.15c-3.2-4.63-6.5-9.38-10.47-15.67l-1.77-2.9c-.65-1.19-1.47-2.55-2.31-4.17A123.18,123.18,0,0,1,119,415.28c-1.49-3.76-3.12-8.35-4.55-13.19s-2.69-9.9-3.64-14.51-1.66-8.77-2.12-11.77L108,371s-.28-2.19-.65-5.73-.8-8.43-1.09-13.8c-.64-10.74-.52-23.42-.21-30.95.36-8.79.71-13,.9-15.62.57-7.67.79-13.7.68-19.49S107.05,274.05,106.69,267.36Z"/><path class="cls-10" d="M316.55,434.7a19.82,19.82,0,0,0,4.55-5.89,29,29,0,0,0,2.42-6.72,37,37,0,0,0,.87-7.4c0-.66,0-1.33,0-2,0-.35,0-.69,0-1l0-.27c0-.12,0,0,0-.07h0a.07.07,0,0,1,.09,0h0l.53-.1c.45-.09.93-.16,1.44-.3a41,41,0,0,0,8.25-2.85,39.92,39.92,0,0,0,8.93-5.76,44.08,44.08,0,0,0,7.94-8.94,50.77,50.77,0,0,0,5-9.39l.4-1,.44-1.23c.4-1.19.72-2.29.95-3.29l.35-1.42.08-.33c0-.06,0-.1-.06-.13l-.14-.11-.5-.4c-.65-.51-1.21-1-1.7-1.32-.67-.52-1.33-1-2-1.48l-1.08-.73c-.68-.47-1.35-.88-2-1.28-1.28-.79-2.44-1.47-3.51-2-2.11-1.19-3.82-2-5.13-2.61-2.62-1.2-3.64-1.57-3.64-1.57l-1.38-.55c-.91-.31-2.21-.83-3.88-1.33a58.87,58.87,0,0,0-13.59-2.61,51.68,51.68,0,0,0-8.67.16c-1.48.24-3,.37-4.46.74-.74.17-1.49.32-2.22.51l-2.17.65a47.08,47.08,0,0,0-14.6,7.77c-1,.78-1.88,1.51-2.73,2.23L284,373.76c-.71.69-1.48,1.35-2.09,2l-.93,1c-.06.08-.2.14-.18.25l.08.32.15.63c.2.84.44,1.66.67,2.45.11.39.22.8.35,1.16l.26.75c.15.41.29.8.44,1.16a46.19,46.19,0,0,0,3.1,6.45,30.89,30.89,0,0,0,11.45,11.73,28.11,28.11,0,0,0,13.95,3.64,41.6,41.6,0,0,1-10.47-8.18A55.76,55.76,0,0,1,292.58,386a40.88,40.88,0,0,1-2.56-5.41q-.19-.47-.36-1l-.13-.38h0s0,0,0,0l0,0,.93-.87c.73-.62,1.52-1.24,2.34-1.91A39.34,39.34,0,0,1,305,370l1.79-.55c.6-.16,1.22-.27,1.83-.42,1.21-.32,2.47-.41,3.7-.62a43.56,43.56,0,0,1,7.29-.14,50.82,50.82,0,0,1,11.78,2.25c1.47.43,2.63.9,3.44,1.17l1.24.49s.9.33,3.26,1.41c1.17.56,2.71,1.29,4.62,2.36,1,.53,2,1.15,3.16,1.86.57.36,1.17.73,1.78,1.14l.92.62h0c0-.12-.12.34-.22.58l-.34.87A42.32,42.32,0,0,1,345,389a36.25,36.25,0,0,1-6.53,7.36A31.78,31.78,0,0,1,331.3,401a33.06,33.06,0,0,1-6.68,2.32c-.42.12-.82.18-1.19.26l-.64.12c-.38.07-.74.15-1.1.19l-3.6.46-2.21.29c-.56-.09-.24.46-.22.79l.2,1.1c.28,1.47.52,2.86.74,4.21.11.87.23,1.72.34,2.56.08.6.16,1.19.22,1.77.28,2.32.51,4.47.65,6.57a50.78,50.78,0,0,1,.11,6.3A21.8,21.8,0,0,1,316.55,434.7Z"/><path class="cls-10" d="M260,476a51.84,51.84,0,0,0,9.75,10.27A52.68,52.68,0,0,0,283.44,494c1,.41,2.28.88,4.2,1.54.94.35,2.07.67,3.37,1.06s2.82.79,4.56,1.23c1.36.38,3.25.69,5.26,1.11,1,.18,2.08.32,3.13.47l1.57.23,1.55.15,2.87.26c.89.06,1.69.06,2.37.09l2.19.08.5,0,1.36,0c1.15,0,2.76,0,4.56-.14a81.08,81.08,0,0,0,11-1.43l3.36-.7c1.06-.25,2-.56,3-.81l2.67-.74,2.32-.8c1.44-.52,2.71-.92,3.76-1.36l2.64-1.11a37.4,37.4,0,0,0,4-1.9c1.24-.67,2.41-1.32,3.52-2,2.17-1.38,4.07-2.82,5.88-4.23s3.36-3.09,5-4.73,3.08-3.58,4.7-5.56c-2.4,1-4.55,1.93-6.59,2.85s-4.11,1.65-6.09,2.57-4.07,1.71-6.25,2.7c-1.11.46-2.25.95-3.44,1.48s-2.43,1.06-3.76,1.61l-2.43,1c-1,.39-2.13.75-3.45,1.22l-2.12.73-2.43.67c-.86.23-1.76.5-2.72.73l-3.05.64a80.52,80.52,0,0,1-10,1.31c-1.63.14-3.08.1-4.13.15l-1.24,0h-.45l-2-.09c-.62,0-1.35,0-2.15-.09l-2.61-.25-1.4-.14-1.44-.21c-1-.15-1.92-.27-2.84-.44-1.84-.38-3.55-.66-4.8-1-1.59-.4-3-.73-4.17-1.11s-2.23-.65-3.1-1c-1.76-.6-3-1-3.86-1.39-5.36-2.07-9.53-3.81-13.59-5.41S264.66,478.25,260,476Z"/><path class="cls-10" d="M383.28,181.24c2.41-2.32,4.72-4.31,6.93-6.24s4.33-3.76,6.46-5.67c4.25-3.81,8.6-7.86,14.08-13l1.66-1.54,1-1,1.29-1.09L418,150c1.25-1,2.77-2.13,4.47-3.44l1.48-1.13c.51-.37,1.05-.71,1.59-1.08l3.39-2.26c1.14-.82,2.41-1.48,3.68-2.23s2.59-1.52,3.94-2.26l4.26-2,2.18-1,2.3-.88,4.7-1.8c1.8-.66,3.64-1.26,5.43-2.05A87,87,0,0,0,476,117.7a150.18,150.18,0,0,0,16.92-15.87c5-5.31,9.6-10.4,14.05-13.74a21.86,21.86,0,0,1,6.36-3.5l1.48-.39,1.44-.2c.48,0,.94,0,1.4-.06l.43,0H518s0,0,0,0a.94.94,0,0,1,0,.15,7.94,7.94,0,0,1,.29,1,27.69,27.69,0,0,1,.64,4.09c.11,1.21.16,2.19.19,2.85l0,1s0,1.17,0,3.35-.12,5.38-.4,9.38c-.57,8-1.91,19.22-4.06,31.72s-5,26.3-8.39,39.55-7.11,25.93-10.69,36.3c-3.84,11.1-6.72,17.72-8.21,21.16-3.07,6.95-5.39,12.36-7.61,17.52-1.12,2.58-2.22,5.08-3.49,7.64a40.72,40.72,0,0,1-4.86,7.74,33,33,0,0,0,8.19-5,49.39,49.39,0,0,0,6.46-6.39,72.57,72.57,0,0,0,10.57-17.36c1.61-3.6,4.63-10.52,8.6-22,3.7-10.67,7.56-23.63,10.95-37.14s6.35-27.55,8.52-40.33,3.57-24.3,4.15-32.71a135.15,135.15,0,0,0,.38-13.73l0-1.16c0-.76-.08-1.88-.22-3.36a37.51,37.51,0,0,0-.89-5.63c-.15-.58-.33-1.2-.56-1.88-.06-.18-.1-.28-.21-.57s-.22-.53-.33-.76c-.24-.46-.46-1-.75-1.4a8.11,8.11,0,0,0-5.23-3.86,9.59,9.59,0,0,0-1.87-.22l-1.43-.1-2.45.09c-.83.1-1.68.24-2.54.37s-1.69.41-2.55.66a31.6,31.6,0,0,0-9.39,5c-5.69,4.31-10.39,9.67-15.36,14.88a140.85,140.85,0,0,1-15.78,14.82,81.16,81.16,0,0,1-8.85,6,71.71,71.71,0,0,1-9.38,4.65c-1.57.7-3.2,1.21-4.77,1.8l-5.24,2-2.57,1-2.43,1.16-4.72,2.28c-1.5.81-2.92,1.67-4.33,2.47s-2.8,1.57-4,2.45L419.73,136c-.59.4-1.19.78-1.74,1.18l-1.6,1.22c-1.84,1.42-3.48,2.6-4.83,3.74l-3.49,3-1.37,1.18-1.13,1.05-1.76,1.66a75.59,75.59,0,0,0-12.87,15.64,74.67,74.67,0,0,0-4.18,7.86A84.05,84.05,0,0,0,383.28,181.24Z"/><path class="cls-10" d="M425.53,204.77c7.24-7.35,11.9-12.43,18.27-22.55L450.3,172c3.44-5.37,9.28-14.39,14.39-22s9.46-13.72,9.46-13.72,3.64-5.16,8.46-11.58,10.91-14,15.52-19.15a86.8,86.8,0,0,1,12.26-11.75,24.29,24.29,0,0,1,5.69-3.41,5.31,5.31,0,0,1,1.7-.37,2,2,0,0,1,1.38.55A12.51,12.51,0,0,1,522,95.28a50.45,50.45,0,0,1,2.1,6.75,36.26,36.26,0,0,0,1.16-7.27,17.75,17.75,0,0,0-.19-3.69,11.3,11.3,0,0,0-1.36-3.94,8,8,0,0,0-4-3.41,9.86,9.86,0,0,0-5.39-.37,22.46,22.46,0,0,0-8.62,4.17c-2.62,1.9-7.21,5.8-13.46,12.78-4.83,5.33-11.06,13.13-15.94,19.69s-8.55,11.77-8.55,11.77-4.43,6.21-9.59,13.85-11.07,16.7-14.51,22.12c-3.7,5.81-5.44,8.63-6.51,10.36C430.88,188.33,428.48,194.88,425.53,204.77Z"/><path class="cls-10" d="M116.92,274.18a105.58,105.58,0,0,0,10.93-8.74A86.13,86.13,0,0,0,138,254c1-1.3,2.46-3.28,4.24-5.76.9-1.24,1.85-2.62,2.89-4.08l.79-1.16.95-1.4c.64-1,1.3-1.89,1.94-2.89,1.29-2,2.59-4,3.88-6.12.63-1,1.28-2.06,1.92-3.11s1.28-2.07,2-3.08,1.35-2.06,2.08-3,1.44-2,2.22-3L162,218.9l1.21-1.42c.79-1,1.68-1.83,2.53-2.75a48.72,48.72,0,0,1,5.66-4.85,55.92,55.92,0,0,1,6.56-4c1.16-.63,2.37-1.23,3.59-1.84l6.89-3.4.46-.23.23-.12c.07,0,0-.06,0-.09l-.06-.12-.47-.93-.93-1.86-1.87-3.7-1.13-2.12c-.33-.64-.69-1.25-1-1.87-1.37-2.48-2.85-4.89-4.34-7.27a227.8,227.8,0,0,0-19.28-25.71c-6.55-7.63-12.94-14.26-18.51-19.74s-10.34-9.8-13.68-12.77-5.27-4.59-5.27-4.59-1.9-1.65-5.35-4.5-8.46-6.88-14.74-11.53A270.57,270.57,0,0,0,80,88.38,138.29,138.29,0,0,0,66,81a67.27,67.27,0,0,0-8-3,34.32,34.32,0,0,0-4.44-1.07,18.15,18.15,0,0,0-5.19-.23,8.93,8.93,0,0,0-1.51.27,10,10,0,0,0-1.62.55,7.06,7.06,0,0,0-2.41,1.63,6.2,6.2,0,0,0-.64.67A16.71,16.71,0,0,0,40.65,82L40,83.2l-.5,1.19a29.09,29.09,0,0,0-1.81,9.39A92.61,92.61,0,0,0,39,111c.84,5.5,1.84,10.82,2.84,16l2.88,14.69c1.52,7.75,2.65,14.1,3.2,17.27,2,11.73,4.2,18.17,7.66,27.89,1.5-10.2,1.95-17.26,0-29.19-.52-3.22-1.65-9.67-3.18-17.47L49.5,125.48c-1-5.12-2-10.36-2.78-15.64a87,87,0,0,1-1.18-15.69A21.64,21.64,0,0,1,46.8,87.3l.29-.72.36-.64a8.7,8.7,0,0,1,.78-1.16c.09-.14.06,0,.08-.07s0,0,0,0,0,0,.15-.06a1.37,1.37,0,0,1,.33-.11,2,2,0,0,1,.51-.08,10.14,10.14,0,0,1,3,.17,25.93,25.93,0,0,1,3.46.84,59.76,59.76,0,0,1,7,2.7,132.16,132.16,0,0,1,13.22,7,261.72,261.72,0,0,1,21.88,14.65c6.14,4.54,11,8.49,14.42,11.27s5.25,4.4,5.25,4.4,1.88,1.59,5.16,4.5,7.92,7.15,13.38,12.5,11.68,11.85,18,19.27a219,219,0,0,1,18.6,24.82c1.42,2.27,2.83,4.56,4.13,6.91.33.59.67,1.17,1,1.76l.82,1.55s0,0,0,0h0l-.08,0-.47.24c-1.26.63-2.52,1.25-3.79,1.93a66.73,66.73,0,0,0-7.47,4.57,58,58,0,0,0-6.64,5.69c-1,1.05-2,2.06-2.88,3.14l-1.37,1.59-1.27,1.63c-.86,1.07-1.64,2.17-2.42,3.26s-1.5,2.19-2.23,3.28-1.41,2.18-2.08,3.26L146,228.51c-1.23,2-2.49,4-3.74,5.9-.6,1-1.25,1.88-1.87,2.8l-.92,1.36-.77,1.12-2.81,4c-1.74,2.43-3.16,4.38-4.12,5.67a132.78,132.78,0,0,0-8.37,12.51C121.13,265.72,119.23,269.57,116.92,274.18Z"/><path class="cls-10" d="M45.3,82.15a13.79,13.79,0,0,0-3.81,4.48l-.65,1.28-.52,1.3a23.31,23.31,0,0,0-.82,2.7A38,38,0,0,0,39,104.33c.16,1.64.44,4.3,1.31,9.7.91,5.86,3.65,19.43,3.65,19.43s2.23,11.35,3.38,17.63c1.3,7.06,2,11.44,2.36,13.72,1.45,9.26,3.15,14.36,5.86,22,1.19-8,1.58-13.56.2-22.95-.35-2.32-1-6.77-2.34-13.9-1.14-6.35-3.43-17.7-3.43-17.7S47.29,118.71,46.37,113c-.86-5.27-1.12-7.78-1.3-9.33-.47-4.55-.87-8-1.09-11.36,0-.81-.11-1.65-.08-2.45V88.65L44,87.41A14.93,14.93,0,0,1,45.3,82.15Z"/><circle class="cls-11" cx="217.59" cy="321.66" r="24.92"/><circle class="cls-11" cx="404.41" cy="321.66" r="21.13"/><path class="cls-10" d="M212.14,184.46a59.8,59.8,0,0,0-.66-9.48,56.7,56.7,0,0,0-11.68-27,78,78,0,0,0-6.47-7.36c-1.46-1.5-3.15-3.06-5-4.66L187,134.86c-.5-.42-1-.83-1.56-1.22-1.08-.79-2.13-1.64-3.28-2.38s-2.29-1.56-3.51-2.26-2.43-1.46-3.73-2.1l-1.92-1c-.66-.33-1.33-.61-2-.92l-2-.92-2.09-.81-2.11-.81-2.17-.69-4.16-1.33c-2.66-.85-5.4-1.65-8-2.71-1.33-.5-2.69-1-4-1.51l-3.94-1.73a90.61,90.61,0,0,1-15.05-8.54A140,140,0,0,1,113.76,94.7c-4.44-4-8.85-8.21-13.43-12.08s-9.18-7.53-13.82-10.74a103.37,103.37,0,0,0-14-8.62,63.38,63.38,0,0,0-7.18-3.12A41.37,41.37,0,0,0,58,58.24a27.8,27.8,0,0,0-7.45-.2,21,21,0,0,0-12.06,5.47c-.68.65-1.32,1.3-1.88,1.94s-1.08,1.26-1.49,1.87a31.68,31.68,0,0,0-3.3,5.82l-.66,1.56c-.15.35-.21.53-.21.53s-.28.73-.75,2.1a60.89,60.89,0,0,0-1.61,6,88.09,88.09,0,0,0-1.46,9.31c-.07.9-.18,1.81-.24,2.79l-.12,3.07a50.76,50.76,0,0,0,.16,6.69,61.56,61.56,0,0,0,3.2,14.73c1.71,5,3.88,9.9,6,14.9s4.23,10.13,6.11,15.49c.88,2.69,1.83,5.4,2.56,8.2.38,1.4.81,2.79,1.17,4.2L47,167c.73,2.85,1.19,5.79,1.75,8.71l.41,2.2c.13.73.21,1.48.32,2.21l.62,4.45.65,4.57c.26,1.6.41,3.21.78,4.79s.6,3.16,1,4.71.8,3.1,1.25,4.63a103.2,103.2,0,0,0,6.92,17.3c1.37,2.69,2.8,5.31,4.31,7.8.73,1.27,1.52,2.47,2.29,3.67l1.16,1.79,1.09,1.57a136.27,136.27,0,0,0,8.7,11.29c2.62,3.1,4.87,5.48,6.37,7.05a79.17,79.17,0,0,0,15.68,12.77,77.55,77.55,0,0,0,7.85,4.19,86.27,86.27,0,0,0,8.8,3.5c-2.31-2.43-4.3-4.74-6.23-6.95L105,260.76c-3.81-4.27-7.9-8.58-13.11-14-1.39-1.5-3.49-3.73-5.93-6.64a128.16,128.16,0,0,1-8.07-10.51l-1-1.45-1.07-1.65c-.71-1.11-1.45-2.22-2.11-3.38-1.39-2.29-2.69-4.68-3.95-7.14a93.07,93.07,0,0,1-6.25-15.62c-.41-1.36-.74-2.75-1.11-4.14s-.6-2.8-.91-4.2-.46-2.83-.69-4.25l-.65-4.52-.65-4.66c-.11-.77-.2-1.55-.33-2.32l-.43-2.32c-.59-3.08-1.08-6.18-1.86-9.21l-1.06-4.54c-.38-1.51-.83-3-1.24-4.48-.79-3-1.79-5.86-2.73-8.73-2-5.68-4.19-11.14-6.4-16.19s-4.25-9.77-5.76-14.16A51.26,51.26,0,0,1,37,104.29a69.31,69.31,0,0,1,1.46-18.82,50.49,50.49,0,0,1,1.32-5l.59-1.64s0-.15.16-.42l.5-1.17c.21-.52.54-1.09.88-1.81a25,25,0,0,1,1.39-2.2c.26-.41.6-.74.91-1.15s.7-.74,1.08-1.12A12.51,12.51,0,0,1,48,69.15a12.77,12.77,0,0,1,3.67-1,17.87,17.87,0,0,1,4.73.16A32,32,0,0,1,62,69.73a52.4,52.4,0,0,1,6,2.62A94.08,94.08,0,0,1,80.65,80.2c4.37,3,8.71,6.47,13.06,10.17s8.64,7.76,13.19,11.88a150.8,150.8,0,0,0,14.64,12,101.64,101.64,0,0,0,16.69,9.48l4.31,1.88c1.44.58,2.89,1.1,4.33,1.64,2.87,1.14,5.76,2,8.6,2.9l4,1.29,1.88.6,1.83.7,1.81.7,1.74.79c.58.27,1.16.51,1.73.8l1.66.87c1.12.55,2.17,1.19,3.21,1.81s2,1.29,3,1.95,1.91,1.37,2.84,2.05c.47.33.92.69,1.35,1.06l1.12.93c1.64,1.38,3.11,2.74,4.4,4a72.36,72.36,0,0,1,5.71,6.44c4.53,5.73,7.75,10.55,10.93,15.18,1.59,2.33,3.13,4.63,4.7,7.07S210.62,181.48,212.14,184.46Z"/><ellipse class="cls-12" cx="212.54" cy="312.35" rx="9.84" ry="7.48"/><circle class="cls-12" cx="203.03" cy="325" r="3.34"/><circle class="cls-12" cx="212.9" cy="327.2" r="2.39"/><ellipse class="cls-12" cx="400.34" cy="314.56" rx="9.34" ry="7.1"/><circle class="cls-12" cx="391.32" cy="326.56" r="3.17"/><circle class="cls-12" cx="400.68" cy="328.66" r="2.27"/><path class="cls-13" d="M310.93,381.08c2.53-2.23,1.14-5.95-2.82-5.91-4.2.05-9,2.06-11.37,4.86C292.94,384.47,303.52,387.63,310.93,381.08Z"/></g></svg>