<svg xmlns="http://www.w3.org/2000/svg" xmlns:xlink="http://www.w3.org/1999/xlink" width="1000" zoomAndPan="magnify" viewBox="0 0 750 749.999995" height="1000" preserveAspectRatio="xMidYMid meet" version="1.0"><path fill="#000000" d="M 562.589844 78.167969 L 562.589844 32.691406 C 562.589844 31.796875 562.546875 30.902344 562.457031 30.011719 C 562.367188 29.121094 562.238281 28.238281 562.0625 27.359375 C 561.886719 26.484375 561.671875 25.617188 561.410156 24.757812 C 561.152344 23.902344 560.851562 23.0625 560.507812 22.234375 C 560.164062 21.40625 559.78125 20.597656 559.359375 19.808594 C 558.9375 19.019531 558.480469 18.253906 557.980469 17.511719 C 557.484375 16.765625 556.953125 16.046875 556.382812 15.355469 C 555.816406 14.664062 555.214844 14.003906 554.582031 13.371094 C 553.949219 12.738281 553.289062 12.136719 552.597656 11.566406 C 551.90625 11 551.1875 10.46875 550.441406 9.96875 C 549.699219 9.472656 548.933594 9.015625 548.144531 8.589844 C 547.355469 8.167969 546.546875 7.789062 545.71875 7.445312 C 544.890625 7.101562 544.050781 6.800781 543.195312 6.542969 C 542.339844 6.28125 541.472656 6.0625 540.59375 5.890625 C 539.714844 5.714844 538.832031 5.582031 537.941406 5.496094 C 537.050781 5.40625 536.15625 5.363281 535.261719 5.363281 L 214.542969 5.363281 C 213.648438 5.363281 212.757812 5.40625 211.863281 5.492188 C 210.972656 5.582031 210.089844 5.710938 209.210938 5.886719 C 208.332031 6.058594 207.464844 6.277344 206.609375 6.535156 C 205.75 6.796875 204.910156 7.097656 204.082031 7.4375 C 203.253906 7.78125 202.445312 8.164062 201.65625 8.585938 C 200.867188 9.007812 200.097656 9.464844 199.355469 9.964844 C 198.609375 10.460938 197.890625 10.992188 197.199219 11.5625 C 196.507812 12.128906 195.84375 12.730469 195.210938 13.363281 C 194.578125 13.996094 193.976562 14.65625 193.410156 15.347656 C 192.839844 16.042969 192.308594 16.757812 191.808594 17.503906 C 191.3125 18.25 190.851562 19.015625 190.429688 19.804688 C 190.007812 20.59375 189.625 21.402344 189.28125 22.230469 C 188.9375 23.058594 188.636719 23.898438 188.378906 24.753906 C 188.117188 25.613281 187.898438 26.480469 187.722656 27.359375 C 187.550781 28.234375 187.417969 29.121094 187.332031 30.011719 C 187.242188 30.902344 187.199219 31.796875 187.199219 32.691406 L 187.199219 119.710938 C 187.199219 120.90625 187.167969 122.097656 187.109375 123.289062 C 187.050781 124.480469 186.964844 125.667969 186.847656 126.855469 C 186.730469 128.042969 186.585938 129.226562 186.410156 130.40625 C 186.234375 131.585938 186.03125 132.761719 185.800781 133.933594 C 185.566406 135.101562 185.304688 136.265625 185.015625 137.421875 C 184.726562 138.578125 184.410156 139.730469 184.0625 140.871094 C 183.71875 142.011719 183.34375 143.144531 182.941406 144.265625 C 182.539062 145.390625 182.113281 146.503906 181.65625 147.605469 C 181.199219 148.707031 180.714844 149.796875 180.207031 150.875 C 179.695312 151.953125 179.160156 153.019531 178.597656 154.070312 C 178.035156 155.125 177.449219 156.160156 176.835938 157.183594 C 176.222656 158.207031 175.585938 159.214844 174.921875 160.207031 C 174.261719 161.199219 173.574219 162.171875 172.863281 163.132812 C 172.152344 164.089844 171.417969 165.03125 170.664062 165.953125 C 169.90625 166.875 169.128906 167.777344 168.328125 168.660156 C 167.527344 169.546875 166.703125 170.410156 165.859375 171.253906 C 165.019531 172.097656 164.15625 172.917969 163.269531 173.71875 C 162.386719 174.519531 161.484375 175.300781 160.5625 176.054688 C 159.640625 176.8125 158.699219 177.546875 157.742188 178.257812 C 156.785156 178.96875 155.8125 179.65625 154.820312 180.316406 C 153.828125 180.980469 152.820312 181.617188 151.796875 182.230469 C 150.773438 182.84375 149.738281 183.433594 148.683594 183.996094 C 147.632812 184.558594 146.570312 185.09375 145.492188 185.605469 C 144.414062 186.113281 143.320312 186.597656 142.21875 187.054688 C 141.117188 187.511719 140.007812 187.941406 138.882812 188.34375 C 137.761719 188.746094 136.628906 189.117188 135.488281 189.464844 C 134.34375 189.8125 133.195312 190.128906 132.039062 190.417969 C 130.882812 190.710938 129.71875 190.972656 128.550781 191.203125 C 127.378906 191.4375 126.207031 191.640625 125.027344 191.816406 C 123.84375 191.992188 122.664062 192.136719 121.476562 192.253906 C 120.289062 192.371094 119.097656 192.457031 117.90625 192.519531 C 116.71875 192.578125 115.523438 192.605469 114.332031 192.605469 L 27.328125 192.605469 C 26.429688 192.605469 25.539062 192.648438 24.648438 192.738281 C 23.757812 192.824219 22.875 192.957031 21.996094 193.128906 C 21.117188 193.304688 20.25 193.519531 19.394531 193.78125 C 18.539062 194.039062 17.695312 194.339844 16.871094 194.683594 C 16.042969 195.027344 15.234375 195.40625 14.445312 195.828125 C 13.65625 196.25 12.890625 196.710938 12.144531 197.207031 C 11.402344 197.703125 10.683594 198.238281 9.992188 198.804688 C 9.300781 199.371094 8.636719 199.972656 8.003906 200.605469 C 7.371094 201.238281 6.769531 201.902344 6.203125 202.59375 C 5.636719 203.285156 5.101562 204.003906 4.605469 204.746094 C 4.109375 205.492188 3.648438 206.257812 3.226562 207.046875 C 2.804688 207.835938 2.421875 208.644531 2.082031 209.46875 C 1.738281 210.296875 1.4375 211.140625 1.175781 211.996094 C 0.917969 212.851562 0.699219 213.71875 0.523438 214.597656 C 0.351562 215.472656 0.21875 216.359375 0.132812 217.25 C 0.0429688 218.140625 0 219.03125 0 219.929688 L 0 352.746094 C 0 353.640625 0.0429688 354.535156 0.132812 355.425781 C 0.21875 356.316406 0.347656 357.199219 0.523438 358.078125 C 0.699219 358.957031 0.914062 359.824219 1.175781 360.679688 C 1.433594 361.535156 1.734375 362.378906 2.078125 363.207031 C 2.421875 364.03125 2.804688 364.839844 3.226562 365.628906 C 3.644531 366.421875 4.105469 367.1875 4.601562 367.929688 C 5.101562 368.675781 5.632812 369.394531 6.199219 370.085938 C 6.769531 370.777344 7.367188 371.441406 8 372.074219 C 8.632812 372.707031 9.296875 373.304688 9.988281 373.875 C 10.679688 374.441406 11.398438 374.972656 12.144531 375.472656 C 12.886719 375.96875 13.652344 376.429688 14.445312 376.851562 C 15.234375 377.273438 16.039062 377.65625 16.867188 377.996094 C 17.695312 378.339844 18.535156 378.640625 19.394531 378.898438 C 20.25 379.160156 21.117188 379.378906 21.996094 379.550781 C 22.871094 379.726562 23.757812 379.855469 24.648438 379.945312 C 25.539062 380.03125 26.429688 380.074219 27.328125 380.074219 L 132.730469 380.074219 C 134.519531 380.074219 136.308594 380.164062 138.089844 380.339844 C 139.871094 380.515625 141.640625 380.777344 143.394531 381.128906 C 145.152344 381.476562 146.886719 381.910156 148.597656 382.429688 C 150.3125 382.949219 151.996094 383.554688 153.648438 384.238281 C 155.304688 384.925781 156.921875 385.6875 158.5 386.53125 C 160.078125 387.378906 161.613281 388.296875 163.101562 389.292969 C 164.589844 390.285156 166.023438 391.351562 167.410156 392.488281 C 168.792969 393.625 170.117188 394.824219 171.382812 396.089844 C 172.648438 397.355469 173.851562 398.679688 174.984375 400.066406 C 176.121094 401.449219 177.1875 402.886719 178.183594 404.375 C 179.175781 405.863281 180.097656 407.398438 180.941406 408.976562 C 181.785156 410.554688 182.546875 412.171875 183.234375 413.824219 C 183.917969 415.480469 184.523438 417.164062 185.042969 418.878906 C 185.5625 420.589844 185.996094 422.324219 186.34375 424.082031 C 186.695312 425.835938 186.957031 427.605469 187.132812 429.386719 C 187.308594 431.171875 187.398438 432.957031 187.398438 434.746094 L 187.398438 539.96875 C 187.398438 540.863281 187.441406 541.757812 187.527344 542.648438 C 187.617188 543.539062 187.746094 544.421875 187.921875 545.300781 C 188.09375 546.179688 188.3125 547.046875 188.570312 547.902344 C 188.832031 548.757812 189.132812 549.601562 189.476562 550.429688 C 189.816406 551.253906 190.199219 552.0625 190.621094 552.851562 C 191.042969 553.640625 191.503906 554.410156 192 555.152344 C 192.496094 555.898438 193.03125 556.617188 193.597656 557.308594 C 194.164062 558 194.765625 558.664062 195.398438 559.296875 C 196.03125 559.929688 196.695312 560.527344 197.386719 561.097656 C 198.078125 561.664062 198.796875 562.195312 199.539062 562.695312 C 200.285156 563.191406 201.050781 563.652344 201.839844 564.074219 C 202.628906 564.496094 203.4375 564.875 204.265625 565.21875 C 205.09375 565.5625 205.933594 565.863281 206.789062 566.121094 C 207.648438 566.382812 208.515625 566.597656 209.390625 566.773438 C 210.269531 566.949219 211.152344 567.078125 212.042969 567.167969 C 212.933594 567.253906 213.828125 567.296875 214.722656 567.296875 L 347.503906 567.296875 C 348.398438 567.296875 349.289062 567.253906 350.179688 567.164062 C 351.070312 567.078125 351.953125 566.945312 352.832031 566.773438 C 353.710938 566.597656 354.578125 566.378906 355.433594 566.121094 C 356.289062 565.859375 357.132812 565.558594 357.957031 565.214844 C 358.785156 564.875 359.59375 564.492188 360.382812 564.070312 C 361.171875 563.648438 361.9375 563.1875 362.683594 562.691406 C 363.425781 562.191406 364.144531 561.660156 364.835938 561.09375 C 365.527344 560.523438 366.191406 559.925781 366.824219 559.292969 C 367.457031 558.660156 368.054688 557.996094 368.625 557.304688 C 369.191406 556.613281 369.722656 555.894531 370.222656 555.148438 C 370.71875 554.40625 371.175781 553.640625 371.601562 552.851562 C 372.023438 552.0625 372.402344 551.253906 372.746094 550.425781 C 373.089844 549.597656 373.390625 548.757812 373.648438 547.902344 C 373.910156 547.042969 374.128906 546.175781 374.300781 545.300781 C 374.476562 544.421875 374.609375 543.539062 374.695312 542.648438 C 374.785156 541.757812 374.828125 540.863281 374.828125 539.96875 L 374.828125 407.15625 C 374.828125 406.261719 374.785156 405.371094 374.695312 404.480469 C 374.609375 403.589844 374.476562 402.703125 374.300781 401.824219 C 374.128906 400.949219 373.910156 400.082031 373.648438 399.226562 C 373.390625 398.367188 373.089844 397.527344 372.746094 396.699219 C 372.402344 395.871094 372.023438 395.066406 371.601562 394.277344 C 371.179688 393.488281 370.71875 392.71875 370.222656 391.976562 C 369.722656 391.230469 369.191406 390.511719 368.625 389.820312 C 368.054688 389.128906 367.457031 388.46875 366.824219 387.835938 C 366.191406 387.203125 365.527344 386.601562 364.835938 386.035156 C 364.144531 385.464844 363.425781 384.933594 362.683594 384.4375 C 361.9375 383.9375 361.171875 383.480469 360.382812 383.058594 C 359.59375 382.636719 358.785156 382.253906 357.957031 381.910156 C 357.132812 381.566406 356.289062 381.265625 355.433594 381.007812 C 354.578125 380.746094 353.710938 380.527344 352.832031 380.355469 C 351.953125 380.179688 351.070312 380.046875 350.179688 379.960938 C 349.289062 379.871094 348.398438 379.828125 347.503906 379.828125 L 242.105469 379.828125 C 240.3125 379.828125 238.527344 379.738281 236.746094 379.5625 C 234.964844 379.386719 233.195312 379.125 231.441406 378.777344 C 229.683594 378.425781 227.949219 377.992188 226.238281 377.472656 C 224.523438 376.953125 222.839844 376.351562 221.1875 375.664062 C 219.53125 374.980469 217.914062 374.214844 216.335938 373.371094 C 214.757812 372.527344 213.222656 371.605469 211.734375 370.613281 C 210.246094 369.617188 208.808594 368.550781 207.425781 367.417969 C 206.042969 366.28125 204.71875 365.078125 203.453125 363.8125 C 202.1875 362.546875 200.984375 361.222656 199.847656 359.839844 C 198.714844 358.453125 197.648438 357.019531 196.652344 355.527344 C 195.660156 354.039062 194.738281 352.507812 193.894531 350.925781 C 193.050781 349.347656 192.285156 347.730469 191.601562 346.078125 C 190.917969 344.421875 190.3125 342.738281 189.792969 341.027344 C 189.273438 339.3125 188.839844 337.578125 188.488281 335.820312 C 188.140625 334.066406 187.878906 332.296875 187.703125 330.515625 C 187.527344 328.734375 187.4375 326.945312 187.4375 325.15625 L 187.4375 265.726562 C 187.4375 264.53125 187.46875 263.339844 187.527344 262.148438 C 187.585938 260.960938 187.675781 259.769531 187.792969 258.582031 C 187.910156 257.398438 188.054688 256.214844 188.230469 255.035156 C 188.40625 253.855469 188.609375 252.679688 188.84375 251.511719 C 189.078125 250.339844 189.339844 249.179688 189.628906 248.019531 C 189.917969 246.863281 190.238281 245.714844 190.585938 244.574219 C 190.929688 243.433594 191.304688 242.300781 191.707031 241.179688 C 192.109375 240.054688 192.539062 238.945312 192.996094 237.84375 C 193.453125 236.742188 193.9375 235.652344 194.445312 234.574219 C 194.957031 233.496094 195.492188 232.429688 196.054688 231.378906 C 196.617188 230.328125 197.203125 229.289062 197.816406 228.269531 C 198.429688 227.246094 199.070312 226.238281 199.730469 225.246094 C 200.394531 224.253906 201.082031 223.28125 201.792969 222.324219 C 202.503906 221.367188 203.234375 220.425781 203.992188 219.503906 C 204.75 218.582031 205.527344 217.679688 206.328125 216.796875 C 207.128906 215.914062 207.953125 215.050781 208.796875 214.207031 C 209.640625 213.363281 210.503906 212.542969 211.386719 211.742188 C 212.269531 210.941406 213.171875 210.160156 214.09375 209.40625 C 215.015625 208.648438 215.957031 207.914062 216.914062 207.207031 C 217.871094 206.496094 218.847656 205.808594 219.839844 205.148438 C 220.828125 204.484375 221.835938 203.847656 222.859375 203.234375 C 223.882812 202.621094 224.917969 202.03125 225.972656 201.472656 C 227.023438 200.910156 228.085938 200.371094 229.164062 199.863281 C 230.242188 199.351562 231.332031 198.871094 232.433594 198.414062 C 233.535156 197.957031 234.648438 197.527344 235.773438 197.128906 C 236.894531 196.726562 238.027344 196.351562 239.167969 196.003906 C 240.308594 195.660156 241.457031 195.339844 242.613281 195.050781 C 243.769531 194.761719 244.933594 194.5 246.101562 194.269531 C 247.273438 194.035156 248.449219 193.832031 249.625 193.65625 C 250.804688 193.480469 251.988281 193.335938 253.175781 193.21875 C 254.363281 193.101562 255.550781 193.011719 256.742188 192.953125 C 257.933594 192.894531 259.125 192.867188 260.316406 192.867188 L 448.703125 192.867188 C 450.566406 192.867188 452.429688 192.914062 454.289062 193.003906 C 456.148438 193.09375 458.007812 193.230469 459.859375 193.414062 C 461.714844 193.597656 463.5625 193.824219 465.40625 194.097656 C 467.246094 194.371094 469.082031 194.6875 470.910156 195.050781 C 472.738281 195.414062 474.554688 195.824219 476.359375 196.277344 C 478.167969 196.730469 479.960938 197.226562 481.746094 197.765625 C 483.527344 198.304688 485.296875 198.890625 487.050781 199.519531 C 488.804688 200.144531 490.542969 200.816406 492.261719 201.527344 C 493.984375 202.242188 495.6875 202.996094 497.371094 203.792969 C 499.054688 204.589844 500.71875 205.425781 502.363281 206.304688 C 504.003906 207.179688 505.625 208.097656 507.222656 209.058594 C 508.820312 210.015625 510.394531 211.011719 511.941406 212.046875 C 513.492188 213.082031 515.015625 214.152344 516.511719 215.261719 C 518.007812 216.371094 519.476562 217.515625 520.914062 218.699219 C 522.355469 219.878906 523.765625 221.097656 525.148438 222.347656 C 526.527344 223.597656 527.875 224.882812 529.195312 226.199219 C 530.511719 227.515625 531.796875 228.867188 533.046875 230.246094 C 534.296875 231.625 535.515625 233.035156 536.695312 234.476562 C 537.878906 235.917969 539.023438 237.382812 540.132812 238.878906 C 541.246094 240.375 542.316406 241.898438 543.351562 243.449219 C 544.386719 244.996094 545.382812 246.570312 546.339844 248.167969 C 547.300781 249.765625 548.21875 251.386719 549.097656 253.027344 C 549.976562 254.671875 550.8125 256.335938 551.609375 258.019531 C 552.40625 259.703125 553.160156 261.40625 553.875 263.125 C 554.585938 264.847656 555.257812 266.585938 555.886719 268.339844 C 556.515625 270.09375 557.097656 271.863281 557.640625 273.644531 C 558.179688 275.425781 558.675781 277.222656 559.128906 279.027344 C 559.582031 280.835938 559.992188 282.652344 560.355469 284.480469 C 560.71875 286.308594 561.039062 288.140625 561.3125 289.984375 C 561.585938 291.828125 561.8125 293.675781 561.996094 295.53125 C 562.179688 297.382812 562.316406 299.242188 562.410156 301.101562 C 562.5 302.964844 562.546875 304.824219 562.546875 306.6875 L 562.546875 539.839844 C 562.546875 540.734375 562.589844 541.628906 562.679688 542.519531 C 562.765625 543.410156 562.898438 544.292969 563.070312 545.171875 C 563.246094 546.050781 563.460938 546.917969 563.722656 547.773438 C 563.980469 548.632812 564.28125 549.472656 564.625 550.300781 C 564.964844 551.128906 565.347656 551.9375 565.769531 552.726562 C 566.191406 553.519531 566.652344 554.285156 567.148438 555.03125 C 567.644531 555.773438 568.179688 556.492188 568.746094 557.183594 C 569.3125 557.878906 569.914062 558.539062 570.546875 559.175781 C 571.179688 559.808594 571.839844 560.410156 572.535156 560.976562 C 573.226562 561.546875 573.945312 562.078125 574.6875 562.574219 C 575.433594 563.074219 576.199219 563.535156 576.988281 563.957031 C 577.777344 564.378906 578.585938 564.761719 579.414062 565.105469 C 580.242188 565.445312 581.082031 565.75 581.9375 566.007812 C 582.796875 566.269531 583.664062 566.484375 584.542969 566.660156 C 585.417969 566.835938 586.304688 566.96875 587.195312 567.054688 C 588.085938 567.144531 588.980469 567.1875 589.875 567.1875 L 722.679688 567.1875 C 723.574219 567.1875 724.46875 567.144531 725.359375 567.054688 C 726.25 566.96875 727.136719 566.835938 728.011719 566.660156 C 728.890625 566.484375 729.757812 566.269531 730.617188 566.007812 C 731.472656 565.75 732.316406 565.445312 733.140625 565.105469 C 733.96875 564.761719 734.777344 564.378906 735.566406 563.957031 C 736.355469 563.535156 737.121094 563.074219 737.867188 562.574219 C 738.609375 562.078125 739.328125 561.546875 740.019531 560.976562 C 740.714844 560.410156 741.375 559.808594 742.007812 559.175781 C 742.640625 558.539062 743.242188 557.878906 743.808594 557.183594 C 744.378906 556.492188 744.910156 555.773438 745.40625 555.03125 C 745.902344 554.285156 746.363281 553.519531 746.785156 552.726562 C 747.207031 551.9375 747.589844 551.128906 747.929688 550.300781 C 748.273438 549.472656 748.574219 548.632812 748.832031 547.777344 C 749.09375 546.917969 749.308594 546.050781 749.484375 545.171875 C 749.660156 544.292969 749.789062 543.410156 749.875 542.519531 C 749.964844 541.628906 750.007812 540.734375 750.007812 539.839844 L 750.007812 219.335938 C 750.007812 218.441406 749.964844 217.546875 749.875 216.65625 C 749.789062 215.765625 749.660156 214.882812 749.484375 214.003906 C 749.308594 213.125 749.09375 212.257812 748.832031 211.398438 C 748.574219 210.542969 748.273438 209.699219 747.929688 208.875 C 747.589844 208.046875 747.207031 207.238281 746.785156 206.449219 C 746.363281 205.65625 745.902344 204.890625 745.40625 204.144531 C 744.910156 203.402344 744.378906 202.683594 743.808594 201.988281 C 743.242188 201.296875 742.640625 200.632812 742.007812 200 C 741.375 199.367188 740.714844 198.765625 740.019531 198.199219 C 739.328125 197.628906 738.609375 197.097656 737.867188 196.601562 C 737.121094 196.101562 736.355469 195.640625 735.566406 195.21875 C 734.777344 194.796875 733.96875 194.414062 733.140625 194.070312 C 732.316406 193.730469 731.472656 193.425781 730.617188 193.167969 C 729.757812 192.90625 728.890625 192.6875 728.011719 192.515625 C 727.136719 192.339844 726.25 192.207031 725.359375 192.121094 C 724.46875 192.03125 723.574219 191.988281 722.679688 191.988281 L 676.460938 191.988281 C 674.597656 191.988281 672.734375 191.941406 670.875 191.851562 C 669.015625 191.761719 667.15625 191.625 665.300781 191.441406 C 663.449219 191.261719 661.601562 191.03125 659.757812 190.761719 C 657.914062 190.488281 656.078125 190.167969 654.25 189.804688 C 652.425781 189.445312 650.605469 189.035156 648.800781 188.582031 C 646.992188 188.132812 645.195312 187.636719 643.414062 187.09375 C 641.628906 186.554688 639.863281 185.972656 638.105469 185.34375 C 636.351562 184.714844 634.613281 184.046875 632.894531 183.332031 C 631.171875 182.621094 629.46875 181.867188 627.785156 181.070312 C 626.101562 180.273438 624.4375 179.4375 622.792969 178.558594 C 621.148438 177.683594 619.527344 176.765625 617.929688 175.804688 C 616.332031 174.847656 614.757812 173.851562 613.207031 172.816406 C 611.660156 171.785156 610.136719 170.710938 608.640625 169.601562 C 607.140625 168.492188 605.675781 167.347656 604.234375 166.164062 C 602.792969 164.984375 601.382812 163.765625 600 162.515625 C 598.621094 161.265625 597.269531 159.980469 595.953125 158.664062 C 594.636719 157.347656 593.351562 155.996094 592.097656 154.617188 C 590.847656 153.238281 589.632812 151.828125 588.449219 150.386719 C 587.265625 148.949219 586.121094 147.480469 585.007812 145.984375 C 583.898438 144.488281 582.828125 142.964844 581.792969 141.414062 C 580.753906 139.867188 579.757812 138.292969 578.800781 136.695312 C 577.84375 135.097656 576.921875 133.476562 576.046875 131.832031 C 575.167969 130.191406 574.328125 128.527344 573.53125 126.84375 C 572.734375 125.15625 571.980469 123.457031 571.265625 121.734375 C 570.550781 120.011719 569.882812 118.273438 569.253906 116.519531 C 568.625 114.765625 568.039062 112.996094 567.5 111.214844 C 566.957031 109.433594 566.460938 107.636719 566.007812 105.828125 C 565.554688 104.023438 565.144531 102.203125 564.78125 100.378906 C 564.417969 98.550781 564.097656 96.714844 563.824219 94.871094 C 563.550781 93.027344 563.324219 91.179688 563.140625 89.324219 C 562.957031 87.472656 562.820312 85.613281 562.726562 83.753906 C 562.636719 81.890625 562.589844 80.03125 562.589844 78.167969 " fill-opacity="1" fill-rule="nonzero"/><path fill="#000000" d="M 409.769531 744.707031 L 527.722656 744.707031 C 528.523438 744.707031 529.320312 744.667969 530.117188 744.585938 C 530.910156 744.507812 531.699219 744.390625 532.484375 744.234375 C 533.269531 744.078125 534.042969 743.886719 534.808594 743.652344 C 535.574219 743.421875 536.324219 743.152344 537.066406 742.847656 C 537.804688 742.539062 538.523438 742.199219 539.230469 741.820312 C 539.933594 741.445312 540.621094 741.03125 541.285156 740.589844 C 541.949219 740.144531 542.589844 739.667969 543.207031 739.160156 C 543.828125 738.652344 544.417969 738.117188 544.984375 737.550781 C 545.546875 736.984375 546.085938 736.394531 546.589844 735.773438 C 547.097656 735.15625 547.574219 734.515625 548.019531 733.847656 C 548.460938 733.183594 548.871094 732.5 549.25 731.792969 C 549.625 731.089844 549.964844 730.367188 550.273438 729.625 C 550.578125 728.886719 550.84375 728.136719 551.078125 727.371094 C 551.308594 726.605469 551.503906 725.828125 551.65625 725.046875 C 551.8125 724.261719 551.929688 723.472656 552.007812 722.675781 C 552.085938 721.878906 552.125 721.082031 552.121094 720.28125 L 552.121094 602.320312 C 552.125 601.519531 552.085938 600.722656 552.007812 599.925781 C 551.929688 599.128906 551.8125 598.339844 551.65625 597.554688 C 551.5 596.773438 551.304688 595.996094 551.074219 595.230469 C 550.84375 594.46875 550.574219 593.714844 550.269531 592.976562 C 549.960938 592.238281 549.621094 591.515625 549.246094 590.808594 C 548.867188 590.105469 548.457031 589.417969 548.011719 588.753906 C 547.570312 588.089844 547.09375 587.449219 546.585938 586.832031 C 546.082031 586.210938 545.542969 585.621094 544.980469 585.054688 C 544.414062 584.488281 543.824219 583.953125 543.207031 583.445312 C 542.585938 582.9375 541.945312 582.460938 541.28125 582.015625 C 540.617188 581.570312 539.933594 581.160156 539.226562 580.785156 C 538.523438 580.40625 537.800781 580.066406 537.0625 579.757812 C 536.324219 579.453125 535.574219 579.183594 534.808594 578.949219 C 534.042969 578.71875 533.269531 578.523438 532.484375 578.367188 C 531.699219 578.210938 530.910156 578.09375 530.113281 578.015625 C 529.320312 577.9375 528.523438 577.894531 527.722656 577.894531 L 409.769531 577.894531 C 408.972656 577.894531 408.171875 577.933594 407.378906 578.015625 C 406.582031 578.09375 405.792969 578.210938 405.007812 578.367188 C 404.222656 578.523438 403.449219 578.714844 402.683594 578.949219 C 401.917969 579.179688 401.164062 579.449219 400.425781 579.757812 C 399.6875 580.0625 398.964844 580.40625 398.261719 580.78125 C 397.554688 581.160156 396.871094 581.570312 396.203125 582.015625 C 395.539062 582.457031 394.898438 582.933594 394.28125 583.441406 C 393.660156 583.949219 393.070312 584.484375 392.503906 585.050781 C 391.9375 585.617188 391.402344 586.207031 390.894531 586.828125 C 390.386719 587.445312 389.910156 588.085938 389.46875 588.75 C 389.023438 589.417969 388.613281 590.101562 388.234375 590.808594 C 387.859375 591.511719 387.515625 592.234375 387.210938 592.972656 C 386.902344 593.710938 386.636719 594.464844 386.402344 595.230469 C 386.171875 595.996094 385.976562 596.769531 385.820312 597.554688 C 385.664062 598.339844 385.546875 599.128906 385.46875 599.925781 C 385.390625 600.722656 385.351562 601.519531 385.347656 602.320312 L 385.347656 720.28125 C 385.347656 721.082031 385.390625 721.878906 385.46875 722.675781 C 385.546875 723.472656 385.664062 724.261719 385.820312 725.046875 C 385.976562 725.832031 386.167969 726.605469 386.402344 727.371094 C 386.632812 728.136719 386.902344 728.890625 387.207031 729.628906 C 387.515625 730.367188 387.855469 731.089844 388.234375 731.796875 C 388.609375 732.5 389.019531 733.1875 389.464844 733.851562 C 389.910156 734.515625 390.386719 735.15625 390.894531 735.777344 C 391.398438 736.394531 391.9375 736.988281 392.503906 737.550781 C 393.066406 738.117188 393.660156 738.652344 394.277344 739.160156 C 394.894531 739.667969 395.539062 740.144531 396.203125 740.589844 C 396.867188 741.035156 397.554688 741.445312 398.257812 741.820312 C 398.964844 742.199219 399.6875 742.539062 400.425781 742.847656 C 401.164062 743.152344 401.917969 743.421875 402.683594 743.652344 C 403.445312 743.886719 404.222656 744.078125 405.007812 744.234375 C 405.789062 744.390625 406.582031 744.507812 407.378906 744.585938 C 408.171875 744.667969 408.972656 744.707031 409.769531 744.707031 " fill-opacity="1" fill-rule="nonzero"/></svg>