<svg width="120" height="120" viewBox="0 0 120 120" fill="none" xmlns="http://www.w3.org/2000/svg">
<path fill-rule="evenodd" clip-rule="evenodd" d="M40 0C35.5817 0 32 3.58172 32 8V48C32 52.4184 35.5817 56 40 56H80C84.4184 56 88 52.4184 88 48V8C88 3.58173 84.4184 0 80 0H40ZM68 28C68 32.4183 64.4184 36 60 36C55.5816 36 52 32.4183 52 28C52 23.5817 55.5816 20 60 20C64.4184 20 68 23.5817 68 28ZM76 28C76 36.8366 68.8364 44 60 44C51.1636 44 44 36.8366 44 28C44 19.1634 51.1636 12 60 12C68.8364 12 76 19.1634 76 28Z" fill="#9ca3af"/>
<path fill-rule="evenodd" clip-rule="evenodd" d="M8 64C3.58173 64 0 67.5816 0 72V112C0 116.418 3.58172 120 8 120H48C52.4184 120 56 116.418 56 112V72C56 67.5816 52.4184 64 48 64H8ZM21.0718 100L28 88L34.9282 100H21.0718ZM24.5359 78C26.0755 75.3332 29.9245 75.3332 31.4641 78L45.3204 102C46.86 104.667 44.9356 108 41.8564 108H14.1436C11.0644 108 9.13988 104.667 10.6795 102L24.5359 78Z" fill="#9ca3af"/>
<path fill-rule="evenodd" clip-rule="evenodd" d="M72 64C67.5816 64 64 67.5816 64 72V112C64 116.418 67.5816 120 72 120H112C116.418 120 120 116.418 120 112V72C120 67.5816 116.418 64 112 64H72ZM84 84H100V100H84V84ZM76 84C76 79.5816 79.5816 76 84 76H100C104.418 76 108 79.5816 108 84V100C108 104.418 104.418 108 100 108H84C79.5816 108 76 104.418 76 100V84Z" fill="#9ca3af"/>
</svg>
