<svg viewBox="0 0 54 53" fill="none" xmlns="http://www.w3.org/2000/svg">
<path fill-rule="evenodd" clip-rule="evenodd" d="M29.6869 16.251V26.2387C29.5327 26.2323 29.3746 26.2695 29.2294 26.3518C29.0945 26.4276 28.9839 26.5407 28.9068 26.6744L22.8399 37.3535C22.6035 37.7698 22.7487 38.298 23.1651 38.5345C23.2948 38.6077 23.4426 38.6476 23.5943 38.6476H25.7866C26.266 38.6476 26.6528 39.0382 26.6528 39.5137V52.8722H18.31C8.1976 52.8722 0 44.6746 0 34.5622C0 24.4511 8.1976 16.2523 18.31 16.2523H29.6869V16.251Z" fill="#86A9CF"/>
<path fill-rule="evenodd" clip-rule="evenodd" d="M53.9574 3.25V49.6225C53.9574 51.4191 52.504 52.8725 50.7074 52.8725H32.7393V39.514C32.7393 39.0372 33.1274 38.6478 33.6054 38.6478H35.7772C36.2566 38.6478 36.6434 38.2597 36.6434 37.7817C36.6434 37.6326 36.6048 37.4823 36.529 37.3525L30.4146 26.6734C30.2603 26.4022 29.9815 26.2467 29.6885 26.2403V3.25C29.6885 1.45601 31.1445 0 32.9385 0H50.7074C52.5027 0 53.9574 1.45601 53.9574 3.25Z" fill="#2C4056"/>
</svg>
