<svg width="200" height="200" viewBox="0 0 200 200" fill="none" xmlns="http://www.w3.org/2000/svg">
<path fill-rule="evenodd" clip-rule="evenodd" d="M53.5739 36.4941C56.4532 36.3307 59.3164 37.0242 61.8019 38.4871C64.2874 39.9499 66.2837 42.1165 67.5388 44.7132C68.7938 47.3099 69.2513 50.2202 68.8535 53.0768C68.4557 55.9334 67.2204 58.608 65.3036 60.7629C63.3868 62.9178 60.8745 64.4564 58.0839 65.1844C55.2933 65.9124 52.3496 65.7971 49.6244 64.8531C46.8993 63.9092 44.515 62.1788 42.7726 59.8806C41.0302 57.5823 40.0078 54.8193 39.8345 51.9404C39.7131 50.022 39.9731 48.0985 40.5994 46.2811C41.2257 44.4637 42.206 42.7885 43.4835 41.3522C44.7611 39.916 46.3106 38.7471 48.0425 37.9133C49.7744 37.0794 51.6544 36.5971 53.5739 36.4941ZM81.0974 24.7747C82.1428 24.708 83.1909 24.8497 84.181 25.1918C85.1711 25.5338 86.0833 26.0693 86.8646 26.767C87.6458 27.4648 88.2806 28.3109 88.732 29.2562C89.1833 30.2015 89.4422 31.2271 89.4937 32.2733C89.5893 33.854 89.2134 35.4274 88.4134 36.794C87.6135 38.1606 86.4257 39.2587 85.0007 39.9492C83.5757 40.6396 81.9777 40.8911 80.4095 40.6718C78.8413 40.4526 77.3736 39.7724 76.1926 38.7177C75.0115 37.6629 74.1704 36.281 73.7759 34.7475C73.3815 33.2139 73.4514 31.5977 73.9769 30.1039C74.5024 28.6101 75.4597 27.3061 76.7274 26.3573C77.9952 25.4085 79.5161 24.8577 81.0974 24.7747V24.7747ZM183.783 67.9255C185.362 67.8304 186.933 68.2058 188.298 69.0042C189.663 69.8025 190.761 70.988 191.452 72.4104C192.143 73.8329 192.397 75.4284 192.181 76.9951C191.965 78.5618 191.289 80.0292 190.239 81.2116C189.189 82.3939 187.811 83.2381 186.281 83.6373C184.751 84.0365 183.136 83.9727 181.642 83.4541C180.149 82.9354 178.842 81.9851 177.888 80.7236C176.935 79.462 176.377 77.9459 176.285 76.3671C176.174 74.2567 176.899 72.1877 178.302 70.6078C179.706 69.0279 181.675 68.0642 183.783 67.9255V67.9255ZM11.6375 92.2623C14.0123 92.1332 16.3721 92.7106 18.419 93.9218C20.4658 95.1331 22.1078 96.9237 23.1377 99.0676C24.1675 101.212 24.5389 103.613 24.2051 105.967C23.8713 108.322 22.8471 110.525 21.262 112.299C19.6769 114.072 17.6019 115.335 15.2991 115.93C12.9963 116.525 10.5689 116.423 8.32358 115.639C6.07825 114.855 4.11565 113.423 2.68365 111.524C1.25165 109.625 0.414473 107.344 0.277846 104.97C0.180834 103.387 0.39853 101.802 0.918338 100.304C1.43815 98.8067 2.24975 97.4272 3.30618 96.2454C4.36261 95.0637 5.64289 94.1032 7.07295 93.4195C8.503 92.7358 10.0544 92.3425 11.6375 92.2623V92.2623ZM41.7203 119.653C43.2989 119.557 44.8702 119.933 46.2353 120.731C47.6004 121.53 48.698 122.715 49.3892 124.137C50.0804 125.56 50.334 127.155 50.1181 128.722C49.9021 130.289 49.2262 131.756 48.1759 132.939C47.1257 134.121 45.7483 134.965 44.2181 135.364C42.6878 135.764 41.0736 135.7 39.5796 135.181C38.0857 134.662 36.7792 133.712 35.8255 132.451C34.8718 131.189 34.3138 129.673 34.2221 128.094C34.1113 125.984 34.836 123.915 36.2393 122.335C37.6427 120.755 39.6118 119.791 41.7203 119.653V119.653ZM142.835 152.386C145.666 152.288 148.446 153.156 150.719 154.847C152.991 156.539 154.621 158.953 155.34 161.693C156.059 164.433 155.825 167.337 154.675 169.926C153.526 172.515 151.53 174.637 149.015 175.941C146.501 177.246 143.617 177.657 140.839 177.106C138.06 176.555 135.551 175.075 133.725 172.909C131.898 170.743 130.863 168.021 130.789 165.189C130.714 162.357 131.606 159.584 133.316 157.325C131.879 151.64 129.297 146.308 125.728 141.654H124.201C120.152 141.863 116.184 140.467 113.158 137.769C110.132 135.07 108.292 131.288 108.037 127.241C107.897 124.71 108.375 122.182 109.429 119.877C105.155 114.16 99.7434 109.39 93.5346 105.868V105.868C91.7936 106.656 89.9207 107.113 88.012 107.215C84.6428 107.433 81.294 106.551 78.4695 104.701C75.6451 102.851 73.4979 100.134 72.3512 96.9581C71.2046 93.7824 71.1204 90.3202 72.1115 87.0925C73.1026 83.8649 75.1152 81.0466 77.8465 79.0617C80.5777 77.0769 83.8798 76.0331 87.2556 76.0873C90.6314 76.1415 93.8982 77.2909 96.5643 79.3624C99.2304 81.4339 101.151 84.3155 102.038 87.5733C102.925 90.8311 102.73 94.2889 101.482 97.4261V97.4261C105.171 103.601 110.205 108.866 116.209 112.827C118.142 111.808 120.269 111.211 122.45 111.076C125.609 110.885 128.749 111.685 131.43 113.366C138.966 109.279 145.452 103.5 150.378 96.4831V96.4831C150.334 96.0652 150.334 95.6438 150.378 95.2259C150.235 92.7154 150.908 90.2262 152.294 88.1284C153.68 86.0307 155.707 84.4367 158.072 83.5835C160.437 82.7303 163.014 82.6635 165.421 83.3932C167.827 84.1228 169.933 85.6099 171.426 87.6331C172.919 89.6562 173.719 92.1074 173.707 94.6218C173.695 97.1363 172.871 99.5796 171.359 101.588C169.846 103.597 167.725 105.063 165.312 105.77C162.899 106.476 160.323 106.384 157.966 105.508V105.508C150.407 109.394 143.645 114.664 138.03 121.044C138.55 122.491 138.867 124.002 138.973 125.535C139.091 127.708 138.752 129.881 137.979 131.915C137.205 133.949 136.015 135.798 134.483 137.344C136.173 142.892 139.019 148.018 142.835 152.386V152.386ZM75.7543 115.656C78.3268 115.5 80.8877 116.112 83.1126 117.412C85.3376 118.713 87.1265 120.645 88.2529 122.963C89.3792 125.281 89.7924 127.881 89.44 130.434C89.0876 132.988 87.9855 135.379 86.2733 137.305C84.5611 139.231 82.3158 140.606 79.8217 141.256C77.3277 141.905 74.697 141.799 72.2629 140.953C69.8288 140.106 67.7007 138.555 66.1482 136.498C64.5957 134.441 63.6885 131.969 63.5416 129.396C63.4435 127.707 63.6722 126.015 64.2151 124.412V124.412C61.8229 118.44 57.2249 113.616 51.3738 110.942C48.5137 112.015 45.3879 112.157 42.442 111.349C39.4961 110.541 36.8807 108.823 34.9687 106.44C33.0567 104.058 31.9458 101.132 31.7944 98.0813C31.643 95.0302 32.4589 92.0092 34.1257 89.4491C35.7924 86.889 38.2249 84.9206 41.0763 83.8247C43.9277 82.7287 47.0523 82.5612 50.0046 83.3459C52.9568 84.1306 55.5859 85.8275 57.5168 88.1946C59.4478 90.5618 60.5821 93.4782 60.7578 96.528C60.8771 98.6884 60.5247 100.849 59.7251 102.859C62.3168 108.583 66.8274 113.221 72.4767 115.971H72.7012C73.7076 115.776 74.7293 115.671 75.7543 115.656V115.656ZM161.064 120.146C162.462 120.073 163.862 120.256 165.195 120.685C168.761 119.612 172.077 117.836 174.945 115.461C177.814 113.085 180.178 110.159 181.897 106.855V106.855C181.9 105.101 182.417 103.386 183.383 101.921C184.35 100.457 185.724 99.3081 187.336 98.6163C188.949 97.9245 190.728 97.7201 192.455 98.0285C194.183 98.3368 195.782 99.1443 197.055 100.351C198.328 101.558 199.22 103.112 199.62 104.82C200.021 106.528 199.912 108.317 199.307 109.964C198.703 111.611 197.629 113.045 196.219 114.088C194.808 115.132 193.123 115.739 191.371 115.836C190.699 115.903 190.023 115.903 189.351 115.836V115.836C182.423 118.627 176.538 123.508 172.513 129.8C172.535 130.099 172.535 130.399 172.513 130.698C172.634 132.889 172.103 135.067 170.987 136.955C169.87 138.844 168.218 140.359 166.241 141.309C164.263 142.258 162.048 142.6 159.876 142.291C157.704 141.981 155.672 141.035 154.039 139.57C152.405 138.106 151.242 136.19 150.697 134.065C150.152 131.939 150.25 129.7 150.978 127.63C151.706 125.561 153.032 123.753 154.787 122.437C156.542 121.121 158.649 120.355 160.839 120.236L161.064 120.146ZM90.5264 48.8422C92.2643 48.744 94.0013 49.0515 95.6 49.7402V49.7402C101.064 48.3423 105.845 45.0278 109.07 40.4006C108.929 39.7361 108.854 39.0593 108.845 38.38C108.654 35.5195 109.317 32.6667 110.751 30.184C112.184 27.7013 114.323 25.7009 116.896 24.4368C119.469 23.1728 122.36 22.7023 125.201 23.0851C128.042 23.4679 130.705 24.6867 132.852 26.5866C134.999 28.4865 136.533 30.9818 137.258 33.7554C137.983 36.5289 137.868 39.4556 136.926 42.1633C135.985 44.8711 134.259 47.2379 131.97 48.9627C129.68 50.6876 126.929 51.6928 124.066 51.8506C121.156 52.0882 118.242 51.4301 115.715 49.9647C112.917 50.4706 110.262 51.5803 107.936 53.2165C105.609 54.8527 103.667 56.9761 102.245 59.439V59.439C102.348 61.6359 101.799 63.8142 100.666 65.6991C99.5328 67.5841 97.867 69.0913 95.8785 70.0307C93.89 70.9701 91.6678 71.2996 89.4923 70.9776C87.3168 70.6557 85.2853 69.6967 83.6541 68.2216C82.0229 66.7466 80.8649 64.8215 80.3263 62.6892C79.7877 60.5568 79.8925 58.3128 80.6276 56.2399C81.3626 54.1671 82.695 52.3584 84.4566 51.0418C86.2183 49.7253 88.3303 48.9599 90.5264 48.8422ZM158.37 45.1602C161.347 44.9935 164.268 46.0163 166.491 48.0036C168.714 49.9909 170.057 52.7799 170.223 55.7571C170.39 58.7342 169.367 61.6557 167.38 63.8788C165.393 66.1019 162.604 67.4445 159.627 67.6112C157.875 67.7049 156.124 67.3978 154.509 66.7131V66.7131C148.523 68.1782 143.292 71.8096 139.826 76.9059C139.963 77.5572 140.053 78.2174 140.096 78.8816C140.251 81.6994 139.567 84.5 138.132 86.9297C136.696 89.3594 134.573 91.3091 132.03 92.5327C129.487 93.7562 126.638 94.1988 123.844 93.8044C121.049 93.41 118.435 92.1964 116.33 90.3168C114.225 88.4372 112.724 85.9759 112.017 83.2439C111.309 80.5118 111.428 77.6314 112.356 74.9665C113.285 72.3015 114.983 69.9716 117.235 68.2709C119.487 66.5702 122.192 65.575 125.009 65.411C127.875 65.2395 130.725 65.9442 133.181 67.4316V67.4316C139.006 65.5757 144.128 61.9889 147.863 57.149V57.149C147.754 55.6693 147.94 54.1826 148.41 52.7755C148.881 51.3684 149.627 50.069 150.605 48.9531C151.583 47.8373 152.773 46.9272 154.106 46.276C155.439 45.6248 156.889 45.2455 158.37 45.1602V45.1602ZM20.4378 55.5775C22.8176 55.4124 25.1927 55.9584 27.2615 57.1462C29.3303 58.3339 30.9994 60.1098 32.0568 62.2482C33.1142 64.3867 33.5122 66.7912 33.2002 69.1563C32.8882 71.5214 31.8803 73.7404 30.3045 75.5314C28.7287 77.3225 26.6562 78.6047 24.3501 79.2153C22.0441 79.8258 19.6086 79.7372 17.3531 78.9605C15.0976 78.1839 13.1237 76.7544 11.6823 74.8535C10.2409 72.9527 9.39703 70.6662 9.2578 68.2847C9.07285 65.1212 10.1432 62.0124 12.2363 59.6332C14.3295 57.2541 17.2767 55.7967 20.4378 55.5775Z" fill="#F0651B"/>
</svg>
