<svg width="200" height="200" viewBox="0 0 200 200" fill="none" xmlns="http://www.w3.org/2000/svg">
<path d="M34.9532 74.0573V121.897C34.9474 123.051 34.4945 124.156 33.6931 124.973C32.8914 125.789 31.8057 126.251 30.6712 126.258H12.3076C11.1689 126.258 10.0765 125.799 9.26928 124.982C8.46203 124.164 8.0057 123.055 8 121.897V95.9036C8.0057 94.7449 8.46203 93.6356 9.26928 92.8183C10.0765 92.001 11.1689 91.5422 12.3076 91.5422H26.747" stroke="#29E3C1" stroke-width="15.6024" stroke-linecap="round" stroke-linejoin="round"/>
<path d="M192 126.258H178.422" stroke="#29E3C1" stroke-width="15.6024" stroke-linecap="round" stroke-linejoin="round"/>
<path d="M191.663 91.9016H164.731" stroke="#29E3C1" stroke-width="15.6024" stroke-linecap="round" stroke-linejoin="round"/>
<path d="M178.489 74.061V126.257" stroke="#29E3C1" stroke-width="15.6024" stroke-linecap="round" stroke-linejoin="round"/>
<path d="M88.447 74.8417H72.1469C69.2111 74.8417 66.8311 77.2634 66.8311 80.2507V120.594C66.8311 123.582 69.2111 126.004 72.1469 126.004H88.447C91.3828 126.004 93.7629 123.582 93.7629 120.594V80.2507C93.7629 77.2634 91.3828 74.8417 88.447 74.8417Z" stroke="#29E3C1" stroke-width="15.6024" stroke-linecap="round" stroke-linejoin="round"/>
<path d="M146.754 126.258H121.898" stroke="#29E3C1" stroke-width="15.6024" stroke-linecap="round" stroke-linejoin="round"/>
<path d="M135.363 74.061V126.257" stroke="#29E3C1" stroke-width="15.6024" stroke-linecap="round" stroke-linejoin="round"/>
<path d="M134.798 74H121.13" stroke="#29E3C1" stroke-width="15.6024" stroke-linecap="round" stroke-linejoin="round"/>
</svg>
