<svg width="200" height="200" viewBox="0 0 200 200" fill="none" xmlns="http://www.w3.org/2000/svg">
<path d="M102.624 26.5908C115.361 26.5908 128.098 26.5257 140.83 26.5908C165.22 26.7425 187.6 42.3089 196.115 65.0298C199.784 74.8401 200.581 84.9918 199.535 95.4146C198.001 110.721 193.432 124.927 184.776 137.659C171.421 157.312 152.597 168.233 129.285 171.87C121.383 173.1 113.453 172.954 105.513 172.954C102.218 172.954 100.456 171.447 100.261 168.721C100.05 165.799 101.887 163.556 105.139 163.36C108.738 163.138 112.364 163.322 115.979 163.225C137.925 162.629 156.928 155.068 171.979 138.835C182.527 127.453 187.871 113.588 189.681 98.3089C190.938 87.7073 190.803 77.1707 186.613 67.1273C180.185 51.7615 168.667 42.3414 152.808 37.9729C146.651 36.2764 140.342 35.9566 134.028 35.9187C110.456 35.7778 86.8734 35.8645 63.307 35.8591C62.3151 35.8591 61.3124 35.897 60.326 35.8103C59.1947 35.7056 58.1386 35.1983 57.3497 34.3806C56.5609 33.563 56.0919 32.4893 56.0279 31.355C56.0112 30.2601 56.3833 29.1948 57.0779 28.3483C57.7726 27.5018 58.7448 26.929 59.8219 26.7317C60.8991 26.5826 61.9874 26.53 63.0739 26.5745C76.2591 26.5745 89.4479 26.5745 102.64 26.5745L102.624 26.5908Z" fill="#29F1FB"/>
<path d="M78.4825 139.328H36.2061C35.3024 139.368 34.3971 139.348 33.496 139.268C31.0516 138.938 29.5123 137.534 29.2738 135.062C29.0353 132.591 30.1952 130.9 32.5258 130.032C34.0055 129.49 35.5557 129.604 37.0841 129.604C64.8944 129.604 92.7101 129.648 120.52 129.555C130.277 129.523 138.699 125.908 145.393 118.753C151.133 112.618 154.141 105.203 155.035 96.8563C155.74 90.3089 154.808 84.2872 150.743 78.943C146.222 72.9809 140.114 69.9891 132.77 69.9566C106.493 69.8427 80.1952 69.9132 53.9405 69.8753C51.1491 69.8753 48.3524 69.6476 45.5719 69.3874C43.1708 69.1652 41.8429 67.7181 41.6803 65.3007C41.5015 62.6666 42.851 60.7696 45.2413 60.3089C46.0417 60.1951 46.8511 60.157 47.6586 60.195C75.8429 60.195 104.027 60.195 132.211 60.195C146.417 60.2221 158.699 68.8129 163.176 82.2438C166.352 91.7777 165.22 101.387 161.659 110.629C154.819 128.368 138.716 139.279 119.659 139.328C105.935 139.366 92.206 139.328 78.4825 139.328Z" fill="#29F1FB"/>
<path d="M15.4367 69.4091C12.1847 69.4091 8.93265 69.4525 5.68062 69.4091C2.97059 69.3603 0.889291 67.5772 0.580348 65.149C0.271405 62.7208 1.79444 60.6341 4.72669 60.0379C6.3281 59.7781 7.95056 59.671 9.57222 59.7181C13.995 59.6801 18.4232 59.6693 22.8459 59.7181C24.1965 59.7161 25.5427 59.8725 26.8568 60.1842C29.247 60.7912 30.5532 62.8292 30.2714 65.3061C29.9896 67.7831 28.4936 69.2736 25.9896 69.3549C22.4719 69.4742 18.9435 69.3874 15.4259 69.3874L15.4367 69.4091Z" fill="#29F1FB"/>
<path d="M74.7587 172.932C71.691 172.932 68.6232 172.986 65.5446 172.932C62.6287 172.867 60.6666 171.214 60.3685 168.775C60.2554 167.492 60.654 166.217 61.4774 165.227C62.3009 164.237 63.4823 163.613 64.7642 163.49C71.3264 162.975 77.9187 162.966 84.4823 163.463C85.1016 163.49 85.7089 163.642 86.2671 163.912C86.8253 164.181 87.3227 164.562 87.7286 165.03C88.1346 165.498 88.4406 166.045 88.628 166.636C88.8154 167.226 88.8802 167.849 88.8184 168.466C88.6178 171.176 86.71 172.835 83.6964 172.954H74.7587V172.932Z" fill="#29F1FB"/>
</svg>
