<svg width="200" height="200" viewBox="0 0 200 200" fill="none" xmlns="http://www.w3.org/2000/svg">
<path fill-rule="evenodd" clip-rule="evenodd" d="M56.956 24.8153L14 49.6212V99.9485V150.276L42.7914 166.903C58.6266 176.048 71.7157 183.53 71.8781 183.53C72.0414 183.53 72.2647 160.952 72.3756 133.357L72.5764 83.1855L102.646 65.8195C119.184 56.2685 134.155 47.6827 135.915 46.7408L139.114 45.0288L148.248 50.3327C153.273 53.2498 157.175 55.8451 156.921 56.0998C156.666 56.3536 141.802 65.0205 123.889 75.3597L91.3208 94.1572L91.1302 144.506L90.9397 194.855L95.6281 197.427L100.316 200L105.386 197.165L110.456 194.33L110.473 150.074L110.49 105.819L148.548 83.8774L186.605 61.9355V55.803V49.6712L162.784 35.8706L138.963 22.07L136.62 23.4454C135.331 24.2014 117.055 34.7311 96.0069 46.8455C74.9585 58.9591 56.4226 69.7184 54.8152 70.754L51.8942 72.6378L51.6912 110.849L51.4889 149.061L42.3197 143.841L33.1506 138.621L33.1521 99.961L33.1545 61.3006L75.5153 36.8781C98.8131 23.4454 118.349 12.1573 118.927 11.7926C119.668 11.3263 117.087 9.47376 110.244 5.56008C104.889 2.49692 100.374 -0.00545819 100.21 8.9413e-06C100.046 0.00469505 80.5818 11.1717 56.956 24.8153ZM159.931 99.1362C145.261 107.598 132.345 115.119 131.228 115.85C129.205 117.176 129.2 117.204 129.2 128.096C129.2 134.099 129.464 139.011 129.786 139.01C130.108 139.009 138.583 134.264 148.618 128.467C158.654 122.668 167.001 117.924 167.167 117.924C167.334 117.924 167.464 122.582 167.457 128.273L167.444 138.621L148.332 149.556L129.221 160.49L129.211 171.703C129.202 181.478 129.354 182.857 130.402 182.454C131.064 182.201 143.628 175.078 158.324 166.626C173.019 158.174 185.486 150.859 186.028 150.371C186.797 149.677 186.968 142.282 186.809 116.617L186.605 83.7517L159.931 99.1362Z" fill="#0169EA"/>
</svg>
