<svg width="200" height="200" viewBox="0 0 200 200" fill="none" xmlns="http://www.w3.org/2000/svg">
<path d="M49.9633 104.934C49.9633 104.934 0 61.7283 0 18.538C0 18.538 7.34135 11.1173 36.6617 9.3183L36.3314 18.538C36.3164 61.7283 49.9633 104.934 49.9633 104.934ZM99.9115 18.538C99.9115 18.538 92.5551 11.1023 63.2499 9.3183L63.5798 18.538C63.5798 61.7435 49.9331 104.949 49.9331 104.949C49.9331 104.949 99.9115 61.7283 99.9115 18.538ZM81.8806 159.937L73.7136 164.255C89.9276 188.721 100.032 191.344 100.032 191.344C137.504 169.742 149.995 104.934 149.995 104.934C149.995 104.934 119.353 138.334 81.8806 159.937ZM50.0834 104.934C50.0834 104.934 49.8432 105.833 49.8432 107.767C49.8432 112.354 51.2093 122.804 60.4271 141.243L68.249 136.341C105.721 114.738 150.01 104.934 150.01 104.934C150.01 104.934 122.251 95.3391 92.645 95.3391C77.8425 95.3391 62.574 97.7377 50.0834 104.934ZM181.552 50.1249L189.374 55.027C198.592 36.5877 199.958 26.1387 199.958 21.5513C199.958 19.6174 199.718 18.718 199.718 18.718C187.227 11.522 171.958 9.12341 157.156 9.12341C127.55 9.12341 99.7914 18.718 99.7914 18.718C99.7914 18.718 144.08 28.5223 181.552 50.1249ZM149.754 105.129C150.67 104.889 160.639 101.336 176.072 78.0392L167.905 73.7214C130.448 52.1188 99.7914 18.718 99.7914 18.718C99.7914 18.718 112.282 83.5257 149.754 105.129Z" fill="#641BF2"/>
</svg>
