<svg width="200" height="200" viewBox="0 0 200 200" fill="none" xmlns="http://www.w3.org/2000/svg">
<path fill-rule="evenodd" clip-rule="evenodd" d="M101.78 0.509467C99.1183 0.928137 94.1558 2.03369 90.7509 2.96752C87.3461 3.90135 81.59 6.05685 77.9601 7.75687C74.3295 9.45772 69.2606 12.1905 66.6967 13.83C64.132 15.4696 62.0336 17.3519 62.0336 18.0118C62.0336 18.6717 64.8863 21.3686 68.3738 24.0041C71.8613 26.6404 76.5489 30.06 78.7913 31.6047C81.0337 33.1494 88.0283 36.9885 94.335 40.1367L105.801 45.8608L105.567 49.5405C105.439 51.5643 105.257 58.3718 105.164 64.6682C105.034 73.4766 105.354 77.687 106.554 82.931C107.678 87.8463 108.589 90.0468 109.821 90.8277C110.76 91.4238 114.473 92.5719 118.073 93.3798C122.449 94.3619 128.005 94.85 134.843 94.855C140.468 94.859 146.503 94.4314 148.254 93.9048C150.377 93.2661 151.933 93.2113 152.924 93.7412C153.74 94.1779 156.574 99.0588 159.219 104.587C161.866 110.117 165.989 117.563 168.383 121.136C170.776 124.709 174.549 129.932 176.766 132.743C178.983 135.554 181.291 137.854 181.895 137.854C182.499 137.854 184.322 135.665 185.947 132.992C187.573 130.318 190.334 125.074 192.083 121.339C193.834 117.605 196.025 111.806 196.954 108.455C197.882 105.103 199.04 98.3842 199.526 93.5237C200.156 87.2167 200.158 82.6219 199.531 77.4687C199.049 73.4987 197.894 67.8908 196.965 65.0059C196.036 62.1218 193.831 56.8181 192.065 53.2202C190.299 49.6222 186.486 43.5294 183.592 39.6813C180.697 35.8323 174.838 29.347 170.571 25.2699C166.304 21.1919 159.699 15.786 155.895 13.2552C152.091 10.7252 146.563 7.56062 143.61 6.22202C140.657 4.88342 135.544 3.02067 132.247 2.08193C128.17 0.920778 123.114 0.274783 116.436 0.0613593C111.037 -0.110361 104.442 0.0907971 101.78 0.509467ZM52.2165 32.218C48.8419 34.3833 43.7608 38.4801 40.9244 41.3216C38.0881 44.1624 34.3331 48.5985 32.58 51.1792C30.8268 53.7599 28.2964 58.0341 26.9572 60.6786C25.618 63.3222 23.7585 67.4313 22.8259 69.8092C21.8924 72.1871 21.1324 74.7629 21.1365 75.5332C21.1406 76.3403 23.1351 78.2079 25.8405 79.9382C28.4232 81.5908 32.9301 83.7733 35.8548 84.7881C40.0614 86.2477 43.0523 86.6451 50.1713 86.6893C57.4376 86.735 60.3459 86.3761 65.2773 84.829C68.6356 83.7757 73.4214 81.8721 75.9124 80.5997C78.4027 79.3282 83.5665 76.1432 87.387 73.5216C91.2074 70.9008 94.7522 67.8368 95.2643 66.7125C95.7765 65.5881 96.4227 61.493 96.7001 57.613L97.2057 50.5569L92.9131 48.7293C90.553 47.7243 85.2918 44.9523 81.2227 42.5694C77.1535 40.1866 70.801 35.9967 67.1057 33.2581C63.4112 30.5204 59.9303 28.2799 59.3699 28.2799C58.8103 28.2799 55.5911 30.0519 52.2165 32.218ZM91.0757 81.0012C88.376 82.9359 82.8343 86.1978 78.7602 88.2503C74.6861 90.3019 69.7678 92.3372 67.8306 92.7722C65.8925 93.2081 63.2738 94.554 62.0099 95.7643C60.7459 96.9745 58.6107 100.04 57.2658 102.577C55.92 105.114 54.0531 109.765 53.1172 112.913C52.1805 116.062 51.0606 121.849 50.627 125.776C50.1942 129.702 50.0592 136.021 50.3267 139.818C50.5951 143.615 51.1162 147.21 51.486 147.807C51.9989 148.638 55.286 148.892 65.481 148.889C75.7055 148.886 80.0413 148.547 84.122 147.431C87.0466 146.63 91.7384 144.905 94.5477 143.595C97.3578 142.286 100.95 140.228 102.531 139.023C104.694 137.374 105.735 135.692 106.733 132.232C107.463 129.702 109.533 124.692 111.334 121.097C113.135 117.502 116.406 111.899 118.603 108.646C122.467 102.92 122.537 102.716 120.744 102.308C119.724 102.076 117.05 101.504 114.8 101.036C112.551 100.568 108.957 99.6149 106.816 98.9174C104.675 98.2199 102.529 96.9148 102.049 96.0177C101.569 95.1207 100.681 92.6676 100.077 90.566C99.4726 88.4653 98.5547 84.6302 98.0368 82.0446C97.519 79.459 96.8457 77.3747 96.5397 77.4131C96.2346 77.4523 93.7754 79.0665 91.0757 81.0012ZM16.5037 97.2132C10.9881 102.98 8.39317 106.489 5.76956 111.728C3.86587 115.528 1.73965 120.924 1.04428 123.719C0.348086 126.514 -0.110861 131.099 0.0233051 133.91L0.267913 139.02L5.17644 140.578C8.21319 141.542 13.5684 142.294 19.2206 142.549C26.9834 142.899 29.1963 142.701 33.9462 141.233C37.0205 140.283 40.0172 139.191 40.6054 138.807C41.3196 138.34 41.7916 135.461 42.0281 130.122C42.2219 125.729 43.1194 119.03 44.0209 115.234C44.9233 111.437 46.9521 105.539 48.5294 102.126C50.1075 98.7129 51.3984 95.8403 51.3984 95.7438C51.3984 95.6465 48.7585 95.3219 45.5319 95.0226C42.3054 94.7225 36.3947 93.3822 32.3959 92.0428C28.3979 90.7042 24.8228 89.6085 24.4514 89.6085C24.0808 89.6085 20.5041 93.0306 16.5037 97.2132ZM138.525 103.492C135.825 103.795 132.991 104.323 132.227 104.665C131.463 105.008 128.172 109.374 124.913 114.37C121.654 119.365 118.15 125.496 117.124 127.995C116.099 130.494 114.646 135.267 113.895 138.602C112.899 143.029 112.659 146.67 113.004 152.094C113.27 156.285 114.219 161.679 115.18 164.468C116.117 167.188 118.072 171.204 119.523 173.395C120.975 175.585 122.732 177.726 123.427 178.152C124.319 178.7 126.608 178.165 131.199 176.337C134.778 174.912 140.194 172.275 143.234 170.479C146.274 168.682 150.977 165.369 153.686 163.116C156.394 160.863 160.604 156.603 163.042 153.649C165.48 150.695 168.469 146.378 169.686 144.056L171.897 139.834L166.566 132.627C163.634 128.663 159.496 122.499 157.371 118.928C155.246 115.358 152.561 110.244 151.404 107.564C149.371 102.854 149.204 102.696 146.367 102.816C144.754 102.885 141.225 103.189 138.525 103.492ZM37.9 148.751C34.7013 150.031 31.2808 150.468 22.2107 150.752L10.6118 151.116L8.9601 155.319C8.05202 157.632 6.92388 160.995 6.45266 162.794C5.98226 164.593 5.37606 168.825 5.10609 172.198C4.83612 175.571 5.01692 181.439 5.50695 185.238C5.99699 189.036 6.76026 192.506 7.20285 192.949C7.64625 193.392 13.2142 193.92 19.5764 194.123C27.1969 194.366 32.7141 194.141 35.7435 193.463C38.2738 192.897 42.1851 191.627 44.4365 190.641L48.5294 188.848L48.6488 178.683C48.7405 170.848 49.161 167.3 50.4814 163.203C51.4246 160.279 52.2002 157.659 52.2059 157.379C52.2116 157.099 50.7914 156.642 49.0505 156.364C47.3088 156.085 45.4509 155.336 44.92 154.697C44.3899 154.058 43.7403 152.206 43.4769 150.581C43.2126 148.957 42.7709 147.512 42.4935 147.371C42.217 147.23 40.1497 147.852 37.9 148.751ZM97.8945 150.954C95.3461 152.269 90.5603 154.12 87.2593 155.067C83.5215 156.138 77.7114 156.956 71.8506 157.236C66.6762 157.483 61.9837 158.05 61.4225 158.498C60.8613 158.944 59.6251 161.75 58.6753 164.732C57.4024 168.726 56.9426 172.306 56.9295 178.331C56.9181 183.511 57.4261 188.448 58.3154 191.804C59.0885 194.717 60.0694 197.752 60.4964 198.55C61.0756 199.631 62.2782 200 65.2233 200C67.3953 200 71.0882 199.637 73.4279 199.194C75.7685 198.75 79.8785 197.5 82.5619 196.417C85.246 195.333 89.541 193.213 92.1065 191.704C94.6729 190.196 99.8554 185.912 103.624 182.185C108.5 177.364 110.342 175.006 110.009 174.008C109.752 173.237 108.574 169.864 107.391 166.511C106.209 163.159 105.038 157.731 104.789 154.45C104.519 150.872 103.976 148.5 103.434 148.523C102.936 148.545 100.444 149.639 97.8945 150.954Z" fill="#1EB382"/>
</svg>
