<svg width="201" height="201" viewBox="0 0 201 201" fill="none" xmlns="http://www.w3.org/2000/svg">
<g clip-path="url(#clip0)">
<path fill-rule="evenodd" clip-rule="evenodd" d="M28.5829 22.942C12.7505 30.4054 18.7459 54.0502 36.2058 53.0059C50.3542 52.1598 56.2309 35.0575 45.7112 25.3442C41.561 21.5123 33.8962 20.4374 28.5829 22.942Z" fill="#001C66"/>
<path d="M0.805299 67.1187C0.637719 67.2858 0.500732 87.3621 0.500732 87.3621H26.0715V178.458L48.4405 139.302V66.8141C35.4245 66.8141 0.972422 66.9511 0.805299 67.1187Z" fill="#001C66"/>
<path d="M48.4405 178.458H26.0715L48.4405 139.302L89.5953 66.8141H100.527H111.46L111.468 103.23L111.476 139.645L152.128 66.8141H174.93V158.138H152.194C152.25 137.89 152.298 109.815 152.128 109.988L111.476 178.458H89.5953L89.5419 109.068L48.4405 178.458Z" fill="#0054E8"/>
<path d="M152.128 178.458L200.501 178.686V158.138H174.93H152.194C152.162 169.539 152.128 178.458 152.128 178.458Z" fill="#1FBAFF"/>
</g>
<defs>
<clipPath id="clip0">
<rect width="200" height="200" fill="white" transform="translate(0.500732 0.128906)"/>
</clipPath>
</defs>
</svg>
