<svg width="200" height="200" viewBox="0 0 200 200" fill="none" xmlns="http://www.w3.org/2000/svg">
<g clip-path="url(#clip0)">
<path d="M55.644 68.3109L60.0791 178.755L139.856 76.943C140.456 76.1771 141.201 75.5378 142.049 75.0621C142.897 74.5865 143.832 74.2841 144.798 74.1724C145.764 74.0607 146.742 74.142 147.677 74.4115C148.611 74.681 149.483 75.1333 150.241 75.7423L200 115.68L183.774 44.7076L55.644 68.3109Z" fill="#4279F4"/>
<path d="M62.8374 199.016H133.604L90.1509 164.152L62.8374 199.016Z" fill="#0028AA"/>
<path d="M146.812 91.8601L99.2158 152.588L149.927 193.272L198.031 132.955L146.812 91.8601V91.8601Z" fill="#014BD1"/>
<path d="M42.2954 57.6559L42.3062 57.6451L84.1582 5.15979L16.6694 37.6656L0 110.693L42.2954 57.6559Z" fill="#BEDCFF"/>
<path d="M0.930176 133.106L45.7568 189.313L41.484 82.2435L0.930176 133.106V133.106Z" fill="#6CA1FF"/>
<path d="M170.75 32.1596L106.215 1.08167L66.0503 51.4468L170.75 32.1596V32.1596Z" fill="#A1C3FF"/>
</g>
<defs>
<clipPath id="clip0">
<rect width="200" height="200" fill="white"/>
</clipPath>
</defs>
</svg>
