<svg width="200" height="200" viewBox="0 0 200 200" fill="none" xmlns="http://www.w3.org/2000/svg">
<path d="M157.926 18.113C117.197 -10.349 61.744 -4.75231 27.5411 31.2706C-6.66317 67.2936 -9.31456 122.893 21.3053 162L51.8773 139.589C36.7017 120.788 33.6204 94.98 43.9422 73.1421C54.264 51.3042 76.1745 37.2778 100.353 37.0298L99.6296 60.886L157.926 18.113Z" fill="#43C9ED"/>
<path d="M180.532 40.3785C179.519 38.9809 178.457 37.6072 177.372 36.2814L147.934 57.9694C164.552 76.336 168.864 102.719 158.955 125.41C149.046 148.1 126.752 162.894 101.967 163.228L102.691 139.396L43.7432 182.772C84.1415 209.939 138.245 204.182 172.005 169.124C205.765 134.066 209.412 79.8489 180.653 40.5951L180.532 40.3785Z" fill="#0194E2"/>
</svg>
