<svg width="201" height="200" viewBox="0 0 201 200" fill="none" xmlns="http://www.w3.org/2000/svg">
<g clip-path="url(#clip0)">
<path fill-rule="evenodd" clip-rule="evenodd" d="M190.177 149.833C193.957 140.929 195.959 130.244 197.738 120.004C198.182 117.11 198.849 114.216 199.294 111.545C200.184 106.87 200.628 103.754 200.406 100.414C200.184 97.0757 197.293 93.2912 193.29 93.2912C188.175 93.0687 185.507 95.5174 184.395 100.637L182.616 109.764C181.282 116.887 179.948 123.788 178.613 130.911C178.613 131.134 178.613 131.579 178.391 132.024C177.501 137.144 176.834 140.038 175.5 141.596C175.278 141.819 173.499 143.822 170.83 143.377C169.496 143.154 167.717 142.264 166.383 139.148C166.16 136.921 165.493 132.915 165.048 130.689C163.936 125.124 162.825 119.336 161.713 113.771C159.267 101.528 156.82 89.062 153.93 76.5961C151.706 67.0241 148.593 57.007 144.812 47.2124C141.477 38.5309 136.806 34.9692 129.69 34.9692C121.018 34.9692 116.793 40.5343 113.235 47.2124C108.343 56.7843 105.674 67.6919 103.228 79.9349C101.004 90.1749 99.0028 100.86 97.0015 110.877C95.8897 116.219 95.0002 121.339 93.888 126.682C93.888 127.127 91.4422 137.812 91.2195 138.702C90.1077 141.596 88.3287 143.154 86.3274 143.154C83.214 143.154 81.6577 139.37 81.435 138.257C81.435 138.035 80.5455 135.141 80.3232 134.696C79.8787 133.36 79.4337 132.024 79.2114 130.689C78.0997 124.901 76.9875 119.113 75.6534 113.326C73.2072 101.082 70.7609 88.3941 67.8702 76.1508C65.6466 66.3563 62.5331 56.7843 58.7529 46.9898C55.6394 39.1987 49.8578 36.3049 44.7431 36.0823C44.7431 36.0823 33.1796 35.637 27.8426 47.2124C23.3951 56.3391 20.0595 66.8015 17.1686 80.1579C15.3896 88.3941 14.2777 94.4045 13.8329 100.192C13.6106 103.754 15.8343 107.315 18.9476 108.428C21.3937 109.319 23.8398 109.096 25.8412 107.983C27.6202 106.87 28.9545 104.867 29.6216 102.418C30.9559 96.1853 32.0678 89.7295 33.1796 83.7195C33.8468 80.6029 37.1824 64.1303 37.8495 62.1268C38.5166 60.1234 39.8509 55.4488 43.1865 55.4488C43.1865 55.4488 43.1865 55.4488 43.4089 55.4488C46.5221 55.6713 47.8565 59.6782 48.746 63.4625C49.1906 65.2433 50.0801 69.6954 50.7473 73.7022C51.1919 75.7057 51.6368 77.7091 51.8591 79.0445C53.1936 85.2774 54.3053 91.5103 55.6394 97.5207C56.3066 101.082 57.1961 104.422 57.8634 107.983C60.3096 119.113 62.7554 130.689 65.6466 141.819C67.4256 148.274 70.5387 154.062 72.7626 157.623C75.4311 162.076 79.8787 164.524 84.5484 164.747C92.3317 164.97 99.225 159.404 102.783 150.278C107.676 137.812 110.344 124.233 113.013 110.877C113.013 110.877 119.461 77.7091 120.795 71.6988C121.018 70.1406 123.019 62.1268 123.464 60.7912C125.243 55.4488 127.689 55.0036 128.801 55.0036H129.024C132.359 55.0036 134.583 59.9008 137.474 74.5926L137.696 75.483C139.253 82.3837 140.587 89.507 141.921 96.4078C144.367 108.428 146.814 120.672 149.482 132.692C151.706 143.154 154.596 150.278 158.822 156.288C164.604 164.524 172.609 166.083 181.059 160.963C184.84 158.737 188.175 154.507 190.177 149.833Z" fill="#151928"/>
<path fill-rule="evenodd" clip-rule="evenodd" d="M10.4979 143.599C4.93848 143.821 0.490967 148.273 0.490967 153.839C0.490967 156.509 1.60285 158.958 3.60423 160.961C5.60559 162.965 8.05174 164.078 10.7203 164.078C13.1664 164.078 15.8349 162.742 17.6139 160.739C19.3929 158.736 20.5048 156.287 20.5048 153.839C20.5048 148.273 15.8349 143.599 10.4979 143.599Z" fill="#151928"/>
</g>
<defs>
<clipPath id="clip0">
<rect width="200" height="200" fill="white" transform="translate(0.490967)"/>
</clipPath>
</defs>
</svg>
