<svg width="64" height="64" viewBox="0 0 64 64" fill="none" xmlns="http://www.w3.org/2000/svg">
<path d="M64 32C64 49.6731 49.6731 64 32 64C14.3269 64 0 49.6731 0 32C0 14.3269 14.3269 0 32 0C49.6731 0 64 14.3269 64 32Z" fill="#5B69C2"/>
<path fill-rule="evenodd" clip-rule="evenodd" d="M38.8703 17.8751C39.7292 17.8751 40.4415 18.0991 41.0377 18.5692C41.606 19.0173 42.0718 19.6976 42.4433 20.6573C43.2565 22.7789 43.9119 24.9102 44.3951 26.9891C44.9897 29.5585 45.5085 32.1638 46.0119 34.6922C46.268 35.9785 46.5262 37.2644 46.7896 38.5492C46.8805 38.999 47.0553 39.809 47.2016 40.2175C47.4116 40.673 47.6737 40.8459 47.8723 40.8808C48.1868 40.9358 48.4259 40.7222 48.5038 40.6467C49.0117 40.0875 48.9316 39.2385 49.068 38.546C49.3526 37.0589 49.6323 35.5621 49.9073 34.0698L50.2682 32.1252C50.3926 31.4612 50.6416 30.9953 51.0055 30.6906C51.3731 30.3827 51.8678 30.2283 52.5251 30.2452C53.0101 30.2544 53.4469 30.4777 53.7768 30.8135C54.1319 31.175 54.3567 31.6636 54.3902 32.1203C54.4447 32.8864 54.3496 33.5591 54.1321 34.6113C53.974 35.3883 53.8249 36.2037 53.6694 37.0183C53.2812 39.0446 52.8548 41.0984 52.1265 42.8408C51.6625 43.9518 50.9027 44.8844 50.0516 45.4138C49.0434 46.0406 48.073 46.2428 47.1862 46.0614C46.2999 45.88 45.4839 45.3124 44.796 44.3393C43.8792 43.0387 43.2399 41.448 42.7473 39.173C42.2617 36.953 41.7975 34.694 41.3392 32.4636C41.2686 32.1201 41.1982 31.7772 41.1277 31.4347C40.8102 29.8785 40.4669 28.3261 40.1682 26.7663C39.8637 25.238 39.6055 24.2142 39.3303 23.5745C39.2175 23.3123 39.1074 23.1222 38.9831 23.0009C38.8023 22.8247 38.521 22.8645 38.3508 23.0389C38.2205 23.1725 38.1062 23.3893 38.0174 23.7194C37.9091 24.0129 37.513 25.6931 37.4432 26.0268C37.1571 27.4197 36.8855 28.8155 36.6093 30.2103C36.1941 32.3066 35.7877 34.3672 35.7877 34.3672C35.2178 37.2036 34.6278 40.1304 33.5809 42.8044C33.1703 43.8537 32.5693 44.6899 31.8519 45.2584C31.1148 45.8426 30.2543 46.148 29.339 46.1196C28.1912 46.0974 27.1555 45.4926 26.5057 44.4495C26.0069 43.6486 25.3333 42.3976 24.9569 40.9763C24.3295 38.6076 23.8018 36.1486 23.2885 33.7558C23.13 33.0025 22.9688 32.2638 22.8077 31.5254C22.5225 30.2248 22.2517 28.9243 21.9759 27.5895C21.9188 27.3091 21.8331 26.8954 21.7475 26.4582C21.5982 25.717 21.47 24.9676 21.2855 24.2341C21.1879 23.8522 21.0889 23.4426 20.8551 23.1177C20.6475 22.8291 20.3549 22.8279 20.1316 23.1022C19.8963 23.3913 19.7747 23.8134 19.7001 24.0551C19.5349 24.4895 18.8231 27.9335 18.7014 28.5972C18.4586 29.9142 18.2064 31.2787 17.9209 32.6048C17.7833 33.2457 17.4377 33.7532 16.958 34.0498C16.4329 34.3727 15.7921 34.4333 15.1489 34.2018C14.729 34.0535 14.3665 33.7458 14.1208 33.3572C13.8763 32.9706 13.7493 32.5068 13.7868 32.0548C13.8876 30.817 14.1031 29.4831 14.4921 27.7325C15.1211 24.8783 15.862 22.6243 16.8176 20.6383C17.2206 19.7592 17.7894 19.1817 18.3681 18.8008C19.4516 18.0874 20.5749 18.0685 20.7369 18.0693C21.424 18.0958 22.147 18.3033 22.7839 18.7894C23.3046 19.1868 23.7705 19.7718 24.0974 20.6073C24.9063 22.6726 25.5619 24.7764 26.0453 26.8561C26.6648 29.5246 27.1927 32.2124 27.7306 34.8982C27.9702 36.0943 28.2098 37.2905 28.4541 38.4868C28.602 39.1822 28.7755 40.19 29.285 40.6968C29.7399 41.1492 30.134 40.5697 30.2988 40.1717C30.6069 39.4326 30.6968 38.5109 30.856 37.7266C31.5283 34.3955 32.1311 31.0507 32.851 27.7291C33.4183 25.1108 33.9753 22.7775 35.0331 20.693C35.4637 19.8437 35.9655 19.0884 36.6519 18.5764C37.2347 18.1418 37.9493 17.8751 38.8703 17.8751Z" fill="white"/>
<path fill-rule="evenodd" clip-rule="evenodd" d="M13.3731 40.375C14.2436 40.375 15.0202 40.727 15.586 41.2911C16.1596 41.863 16.516 42.6532 16.5298 43.5136C16.5439 44.3114 16.2151 45.1086 15.6497 45.7159C15.0753 46.3419 14.2882 46.7298 13.468 46.748C12.583 46.7815 11.7941 46.3884 11.207 45.7877C10.6189 45.1852 10.2803 44.3759 10.2803 43.5594C10.2837 42.6916 10.6296 41.8971 11.1902 41.3187C11.7477 40.7436 12.5168 40.3821 13.3731 40.375Z" fill="white"/>
</svg>
