<svg width="200" height="200" viewBox="0 0 200 200" fill="none" xmlns="http://www.w3.org/2000/svg">
<path d="M20.434 90.7212C20.434 90.7212 38.5168 64.0413 74.6222 61.2811V51.6017C34.6309 54.8134 0 88.6842 0 88.6842C0 88.6842 19.6144 145.386 74.6222 150.578V140.289C34.2549 135.211 20.434 90.7212 20.434 90.7212ZM74.6222 119.828V129.25C44.1135 123.811 35.645 92.0968 35.645 92.0968C35.645 92.0968 50.2935 75.8694 74.6222 73.2378V83.5769C74.6038 83.5769 74.5909 83.5713 74.5756 83.5713C61.8066 82.0389 51.8315 93.9675 51.8315 93.9675C51.8315 93.9675 57.4225 114.049 74.6222 119.828ZM74.6222 33.7487V51.6017C75.7962 51.5117 76.9702 51.4354 78.1506 51.3952C123.616 49.8628 153.24 88.6842 153.24 88.6842C153.24 88.6842 119.216 130.057 83.7689 130.057C80.5202 130.057 77.4788 129.755 74.6222 129.249V140.289C77.065 140.599 79.5977 140.782 82.2406 140.782C115.227 140.782 139.081 123.935 162.18 103.997C166.01 107.064 181.688 114.526 184.911 117.792C162.949 136.18 111.764 151.002 82.746 151.002C79.9489 151.002 77.2627 150.832 74.6222 150.578V166.091H200V33.7487H74.6222ZM74.6222 73.2378V61.2819C75.7842 61.2008 76.9549 61.1381 78.1506 61.1003C110.845 60.0734 132.295 89.196 132.295 89.196C132.295 89.196 109.127 121.372 84.2864 121.372C80.7115 121.372 77.5061 120.798 74.6214 119.828V83.5769C87.3495 85.1149 89.9112 90.7372 97.5633 103.493L114.582 89.143C114.582 89.143 102.159 72.8497 81.2161 72.8497C78.9397 72.8489 76.7613 73.0088 74.6222 73.2378Z" fill="#77B900"/>
</svg>
