<svg width="200" height="200" viewBox="0 0 200 200" fill="none" xmlns="http://www.w3.org/2000/svg">
<path fill-rule="evenodd" clip-rule="evenodd" d="M122.339 173.671L116.93 179.691V198.966L122.339 193.005V173.671Z" fill="#D06868"/>
<path d="M122.341 173.729L102.107 173.751L94.8965 179.712L116.932 179.691L122.341 173.729Z" fill="url(#paint0_linear)"/>
<path d="M122.341 173.729L102.107 173.751L94.8965 179.712L116.932 179.691L122.341 173.729Z" fill="url(#paint1_radial)"/>
<path fill-rule="evenodd" clip-rule="evenodd" d="M116.932 179.632L94.8965 179.651V198.985L116.932 198.966V179.632Z" fill="#A5597E"/>
<path fill-rule="evenodd" clip-rule="evenodd" d="M124.324 102.619C124.324 101.584 123.508 97.2384 127.809 97.1232C131.245 97.0338 138.413 98.2426 144.56 96.6693C151.098 94.9972 157.805 88.7674 158.611 89.4894C159.418 90.2137 151.561 99.7971 141.613 102.476C135.793 104.042 128.004 103.409 124.324 102.619C122.889 102.314 125.043 103.551 119.846 102.631Z" fill="#C1BBA7"/>
<path fill-rule="evenodd" clip-rule="evenodd" d="M72.4031 193.263C72.4031 193.263 76.408 193.858 79.4134 193.856C81.4965 193.856 83.5519 193.379 85.422 192.461C86.2215 192.062 86.6213 189.282 84.6177 187.892C83.3054 186.98 84.2508 178.384 82.2049 175.176C79.7991 171.401 83.9992 160.073 83.9992 160.073L70.1831 168.027C70.1831 168.027 73.198 183.722 73.3978 185.115C73.6001 186.504 71.6012 192.666 72.4031 193.261" fill="#4B2357"/>
<path fill-rule="evenodd" clip-rule="evenodd" d="M106.653 141.085C106.653 141.085 105.411 146.828 107.901 153.208C110.394 159.591 116.052 161.641 116.208 164.645C116.278 165.98 115.566 167.422 115.135 169.663C114.599 172.462 116.478 175.19 115.281 177.492C114.232 179.505 100.473 178.903 102.147 175.651C103.819 172.398 104.287 167.866 104.353 167.076C104.416 166.284 95.9009 157.422 96.5547 151.893C97.2108 146.364 93.521 144.854 93.521 144.854L106.653 141.085V141.085Z" fill="#4B2A5C"/>
<mask id="mask0" mask-type="alpha" maskUnits="userSpaceOnUse" x="41" y="36" width="105" height="164">
<path d="M126.201 55.3276C118.763 51.2356 120.957 40.2293 120.957 40.2293C120.957 40.2293 121.357 37.4472 119.353 37.0497C117.349 36.6546 116.747 36.0573 116.95 39.6367C117.154 43.2113 114.979 53.1476 120.995 58.3097C125.385 62.0819 131.612 61.2847 136.022 67.244C140.412 73.1752 134.338 81.5169 133.002 82.1472C128.797 84.1368 128.997 84.9317 125.594 85.3315C122.189 85.7313 113.196 84.7435 108.192 86.5356C103.183 88.3276 104.563 90.1149 99.759 93.097C94.9521 96.0837 86.9423 100.061 83.5394 103.838C82.2845 105.243 81.3469 106.903 80.7903 108.703C77.5638 109.668 70.3912 110.627 64.7401 113.785C61.429 115.636 52.709 121.589 48.7252 127.308C45.1225 132.477 43.3234 138.639 42.324 144.006C41.7078 147.326 41.3292 153.742 41.3316 157.716C41.3339 161.63 41.903 164.748 42.5991 168.591C42.9072 170.303 43.1941 173.276 43.1941 175.19C43.1941 177.104 42.5991 177.57 42.5991 178.901C42.5991 180.232 43.0154 180.646 43.3375 180.971C43.6574 181.295 43.3375 179.966 43.3375 179.614C43.3375 179.261 43.8126 178.325 43.9584 178.628C44.1018 178.932 43.9349 178.652 43.8079 180.173C43.6785 181.695 44.9461 184.569 44.9461 183.266C44.9461 181.963 44.9461 180.173 45.2494 179.395C45.5505 178.614 45.5669 179.212 45.5669 179.395C45.5669 179.578 45.4893 180.011 45.6845 179.922C45.8797 179.832 46.2254 179.477 45.8797 177.706C45.534 175.936 45.3271 175.936 45.2048 175.19C44.7885 172.641 44.7932 171.357 44.5463 169.635C44.1418 166.853 43.9349 158.112 44.1348 155.13C44.4405 150.569 45.6163 150.04 46.1337 149.168C46.9568 147.776 47.7728 157.58 51.3544 166.253C54.3881 173.603 58.5693 173.6 60.1732 175.19C61.777 176.777 58.7763 183.734 59.9803 188.701C61.0621 193.162 59.5853 196.055 59.9874 197.247C60.3872 198.437 65.1964 199.825 68.8015 199.825C72.4066 199.822 76.8136 198.825 76.8136 197.236C76.8089 193.063 75.2075 193.858 74.8053 191.276C74.4055 188.692 78.5515 184.908 79.0054 181.735C79.805 176.171 79.0031 174.978 77.7966 170.806C77.7214 170.541 77.1923 165.64 77.1923 165.64C77.1923 165.64 83.8052 166.63 88.2099 163.648C95.4954 158.711 98.2163 150.525 98.2163 150.525C98.2163 150.525 101.21 153.822 103.028 155.292C105.638 157.401 106.83 157.606 108.237 158.069C110.04 158.664 114.824 159.857 114.824 159.857C114.824 159.857 112.449 162.639 111.045 163.631C110.055 164.337 107.216 166.616 107.818 167.808C108.42 169 110.391 172.229 112.427 173.567C116.061 175.95 119.066 176.742 120.068 176.542C121.068 176.342 122.243 169.786 123.643 168.593C125.044 167.399 127.671 163.422 127.469 161.437C127.271 159.49 126.862 151.898 121.853 149.121C119.132 147.611 115.746 146.755 114.436 141.572C113.232 136.805 105.617 133.63 105.617 133.63C108.03 130.205 112.075 125.751 113.152 124.582C114.321 125.159 115.405 125.533 116.604 125.476C118.786 125.377 118.118 122.993 116.865 119.717L117.227 120.309C117.227 120.309 121.11 117.965 122.431 115.34C123.833 112.555 127.433 106.196 130.437 105.199C133.905 104.052 140.05 100.823 139.448 99.6302C138.604 97.9581 133.237 97.8452 133.237 97.8452C133.237 97.8452 140.095 95.2888 140.448 94.6609C143.239 89.6775 147.173 80.3739 144.838 69.8216C142.026 57.1056 129.806 57.3102 126.199 55.3276H126.201Z" fill="white"/>
</mask>
<g mask="url(#mask0)">
<path d="M126.201 55.3276C118.763 51.2356 120.957 40.2293 120.957 40.2293C120.957 40.2293 121.357 37.4472 119.353 37.0497C117.349 36.6546 116.747 36.0573 116.95 39.6367C117.154 43.2113 114.979 53.1476 120.995 58.3097C125.385 62.0819 131.612 61.2847 136.022 67.244C140.412 73.1752 134.338 81.5169 133.002 82.1472C128.797 84.1368 128.997 84.9317 125.594 85.3315C122.189 85.7313 113.196 84.7435 108.192 86.5356C103.183 88.3276 104.563 90.1149 99.759 93.097C94.9521 96.0837 86.9423 100.061 83.5394 103.838C82.2845 105.243 81.3469 106.903 80.7903 108.703C77.5638 109.668 70.3912 110.627 64.7401 113.785C61.429 115.636 52.709 121.589 48.7252 127.308C45.1225 132.477 43.3234 138.639 42.324 144.006C41.7078 147.326 41.3292 153.742 41.3316 157.716C41.3339 161.63 41.903 164.748 42.5991 168.591C42.9072 170.303 43.1941 173.276 43.1941 175.19C43.1941 177.104 42.5991 177.57 42.5991 178.901C42.5991 180.232 43.0154 180.646 43.3375 180.971C43.6574 181.295 43.3375 179.966 43.3375 179.614C43.3375 179.261 43.8126 178.325 43.9584 178.628C44.1018 178.932 43.9349 178.652 43.8079 180.173C43.6785 181.695 44.9461 184.569 44.9461 183.266C44.9461 181.963 44.9461 180.173 45.2494 179.395C45.5505 178.614 45.5669 179.212 45.5669 179.395C45.5669 179.578 45.4893 180.011 45.6845 179.922C45.8797 179.832 46.2254 179.477 45.8797 177.706C45.534 175.936 45.3271 175.936 45.2048 175.19C44.7885 172.641 44.7932 171.357 44.5463 169.635C44.1418 166.853 43.9349 158.112 44.1348 155.13C44.4405 150.569 45.6163 150.04 46.1337 149.168C46.9568 147.776 47.7728 157.58 51.3544 166.253C54.3881 173.603 58.5693 173.6 60.1732 175.19C61.777 176.777 58.7763 183.734 59.9803 188.701C61.0621 193.162 59.5853 196.055 59.9874 197.247C60.3872 198.437 65.1964 199.825 68.8015 199.825C72.4066 199.822 76.8136 198.825 76.8136 197.236C76.8089 193.063 75.2075 193.858 74.8053 191.276C74.4055 188.692 78.5515 184.908 79.0054 181.735C79.805 176.171 79.0031 174.978 77.7966 170.806C77.7214 170.541 77.1923 165.64 77.1923 165.64C77.1923 165.64 83.8052 166.63 88.2099 163.648C95.4954 158.711 98.2163 150.525 98.2163 150.525C98.2163 150.525 101.21 153.822 103.028 155.292C105.638 157.401 106.83 157.606 108.237 158.069C110.04 158.664 114.824 159.857 114.824 159.857C114.824 159.857 112.449 162.639 111.045 163.631C110.055 164.337 107.216 166.616 107.818 167.808C108.42 169 110.391 172.229 112.427 173.567C116.061 175.95 119.066 176.742 120.068 176.542C121.068 176.342 122.243 169.786 123.643 168.593C125.044 167.399 127.671 163.422 127.469 161.437C127.271 159.49 126.862 151.898 121.853 149.121C119.132 147.611 115.746 146.755 114.436 141.572C113.232 136.805 105.617 133.63 105.617 133.63C108.03 130.205 112.075 125.751 113.152 124.582C114.321 125.159 115.405 125.533 116.604 125.476C118.786 125.377 118.118 122.993 116.865 119.717L117.227 120.309C117.227 120.309 121.11 117.965 122.431 115.34C123.833 112.555 127.433 106.196 130.437 105.199C133.905 104.052 140.05 100.823 139.448 99.6302C138.604 97.9581 133.237 97.8452 133.237 97.8452C133.237 97.8452 140.095 95.2888 140.448 94.6609C143.239 89.6775 147.173 80.3739 144.838 69.8216C142.026 57.1056 129.806 57.3102 126.199 55.3276H126.201Z" fill="url(#paint2_linear)"/>
<mask id="mask1" mask-type="alpha" maskUnits="userSpaceOnUse" x="41" y="108" width="87" height="92">
<path d="M48.7252 127.308C45.1225 132.475 43.3234 138.637 42.324 144.003C41.7078 147.326 41.3292 153.74 41.3316 157.714C41.3339 161.63 41.8489 165.992 42.5427 169.835C43.5468 175.399 44.7532 181.759 45.5528 181.556C45.9432 181.462 45.3929 175.503 44.5439 169.635C44.1442 166.853 43.9372 158.112 44.1348 155.129C44.4405 150.569 45.6163 150.04 46.1337 149.168C46.9568 147.776 47.7728 157.58 51.3544 166.253C54.3881 173.603 58.5693 173.6 60.1732 175.19C61.777 176.777 58.7763 183.734 59.9804 188.701C61.0621 193.162 59.5853 196.055 59.9874 197.245C60.3872 198.437 65.1964 199.825 68.8015 199.822C72.4066 199.822 76.8137 198.825 76.8137 197.235C76.809 193.063 75.2075 193.858 74.8053 191.276C74.4055 188.692 78.5515 184.908 79.0054 181.735C79.805 176.171 79.0031 174.978 77.7967 170.806C77.7214 170.541 77.1923 165.64 77.1923 165.64C77.1923 165.64 83.8052 166.63 88.2099 163.645C95.4954 158.711 98.2163 150.525 98.2163 150.525C98.2163 150.525 101.21 153.822 103.028 155.292C105.638 157.401 106.83 157.606 108.237 158.069C110.04 158.664 114.824 159.854 114.824 159.854C114.824 159.854 112.449 162.639 111.045 163.631C110.055 164.337 107.216 166.616 107.818 167.808C108.42 168.998 110.391 172.229 112.427 173.567C116.061 175.95 119.066 176.742 120.068 176.542C121.068 176.342 122.243 169.786 123.643 168.593C125.044 167.399 127.671 163.422 127.469 161.437C127.271 159.49 126.862 151.898 121.853 149.118C119.132 147.611 115.746 146.755 114.436 141.574C113.232 136.805 105.617 133.63 105.617 133.63C108.418 129.655 113.425 124.286 113.425 124.286L81.8627 108.311C79.511 109.449 71.1461 110.204 64.7378 113.785C61.4266 115.636 52.7066 121.589 48.7229 127.308H48.7252Z" fill="white"/>
</mask>
<g mask="url(#mask1)">
<path fill-rule="evenodd" clip-rule="evenodd" d="M42.5991 152.811C42.5991 152.811 44.4005 133.933 53.4168 132.741C62.4214 131.551 63.8583 131.612 67.7738 135.008C72.5806 139.18 70.7534 141.083 71.814 141.083C72.8722 141.083 78.2811 137.63 77.2628 131.271C76.2775 125.121 82.9845 118.666 97.245 119.246C111.506 119.825 80.8585 115.056 80.8585 115.056L51.4132 126.582C51.4132 126.582 43.1988 137.313 42.9989 145.459L42.5991 152.811Z" fill="#4F6486"/>
<path fill-rule="evenodd" clip-rule="evenodd" d="M91.9042 167.121C91.9042 167.121 77.3967 167.032 77.4932 165.16C77.5896 163.288 78.2692 160.628 77.6836 158.067C77.5661 157.554 84.2754 159.071 88.1956 155.894C95.982 149.584 88.7741 143.876 88.7741 143.876C88.7741 143.876 97.687 148.625 98.3219 150.962C99.4555 155.16 91.9042 167.121 91.9042 167.121" fill="#4C3D6A"/>
<path fill-rule="evenodd" clip-rule="evenodd" d="M42.4423 169.736C42.4423 169.736 42.7269 158.899 42.8327 153.641C43.0255 143.905 44.5259 137.477 48.0275 132.376C51.0283 128.002 62.6808 131.793 67.0526 126.003C76.0595 114.077 90.0826 118.44 90.0826 118.44L115.728 123.985C115.728 123.985 109.524 135.184 106.297 133.733C104.094 132.741 99.0872 130.156 99.0872 130.156C99.0872 130.156 100.359 132.734 103.113 133.928C109.526 136.706 111.732 139.088 113.136 143.063C113.724 144.723 116.047 147.783 117.682 148.472C119.147 149.08 120.511 149.909 121.727 150.929C121.955 151.122 121.118 152.115 121.325 152.315C121.51 152.491 123.117 151.586 123.284 151.767C123.469 151.964 122.256 153.436 122.42 153.639C122.585 153.836 124.156 152.914 124.302 153.114C124.506 153.396 122.743 154.412 122.91 154.69C123.027 154.892 124.68 154.495 124.782 154.69C125.203 155.513 125.459 156.289 125.565 156.964C125.964 159.546 127.371 161.334 123.568 168.69C120.784 174.075 135.381 160.734 135.381 160.734L99.8867 94.5881L36.0034 126.224L40.8408 169.936L42.4423 169.736V169.736Z" fill="#4F728F"/>
<path fill-rule="evenodd" clip-rule="evenodd" d="M120.144 137.696C120.144 137.696 113.22 119.319 113.319 117.431C113.418 115.542 94.4917 119.43 94.4917 119.43L106.513 123.397C113.726 125.777 103.513 132.341 103.513 132.341L116.739 138.291L120.144 137.696V137.696Z" fill="#4C416D"/>
<path fill-rule="evenodd" clip-rule="evenodd" d="M56.4817 196.751C56.4817 196.751 45.1372 156.519 45.2336 154.631C45.3324 152.745 44.6363 139.41 46.8304 144.3C47.6323 146.087 51.8536 168.339 60.6676 169.327C65.8413 169.908 62.5537 183.214 63.2827 186.018C65.0911 192.969 60.8887 199.928 60.8887 199.928L56.4793 196.753L56.4817 196.751Z" fill="#4C3D6A"/>
<path fill-rule="evenodd" clip-rule="evenodd" d="M42.598 141.082C43.8209 133.933 52.4257 123.068 60.9223 118.287C69.4189 113.503 73.1275 111.387 83.5548 111.387C93.9869 111.387 75.6132 105.072 75.6132 105.072L43.8209 118.287C43.8209 118.287 38.0475 119.456 37.8477 127.605L42.598 141.082Z" fill="#5191A6"/>
</g>
<g filter="url(#filter0_d)">
<mask id="mask2" mask-type="alpha" maskUnits="userSpaceOnUse" x="80" y="36" width="66" height="90">
<path d="M120.993 58.312C125.385 62.0819 131.613 61.2846 136.022 67.244C140.415 73.1751 134.338 81.5192 133.005 82.1495C128.798 84.1391 129 84.934 125.595 85.3338C124.461 85.4655 122.707 85.4443 120.689 85.4255C116.644 85.3831 111.532 85.3408 108.192 86.5355C103.183 88.3276 104.564 90.1149 99.7592 93.0969C94.9524 96.0837 86.9426 100.063 83.5397 103.84C80.1368 107.617 79.5419 112.983 80.9435 115.168C82.3474 117.353 86.5546 119.733 97.9743 119.926C109.392 120.116 112.2 125.678 116.607 125.476C118.787 125.377 118.121 122.993 116.865 119.719L117.227 120.312C117.227 120.312 121.112 117.964 122.432 115.34C123.833 112.558 127.434 106.196 130.439 105.201C133.906 104.051 140.05 100.822 139.448 99.6301C138.604 97.9604 133.24 97.8475 133.24 97.8475C133.24 97.8475 140.098 95.2888 140.448 94.6632C143.239 89.6775 147.174 80.3762 144.839 69.8215C142.026 57.1055 129.807 57.3125 126.199 55.3276C118.763 51.2355 120.957 40.2293 120.957 40.2293C120.957 40.2293 121.357 37.4471 119.353 37.0497C118.653 36.9109 118.123 36.7487 117.74 36.7487C117.028 36.7487 116.821 37.3131 116.952 39.6366C117.155 43.2113 114.982 53.1499 120.995 58.3096L120.993 58.312Z" fill="white"/>
</mask>
<g mask="url(#mask2)">
<path fill-rule="evenodd" clip-rule="evenodd" d="M120.993 58.312C125.385 62.0819 131.613 61.2846 136.022 67.244C140.415 73.1751 134.338 81.5192 133.005 82.1495C128.798 84.1391 129 84.934 125.595 85.3338C124.461 85.4655 122.707 85.4443 120.689 85.4255C116.644 85.3831 111.532 85.3408 108.192 86.5355C103.183 88.3276 104.564 90.1149 99.7592 93.0969C94.9524 96.0837 86.9426 100.063 83.5397 103.84C80.1368 107.617 79.5419 112.983 80.9435 115.168C82.3474 117.353 86.5546 119.733 97.9743 119.926C109.392 120.116 112.2 125.678 116.607 125.476C118.787 125.377 118.121 122.993 116.865 119.719L117.227 120.312C117.227 120.312 121.112 117.964 122.432 115.34C123.833 112.558 127.434 106.196 130.439 105.201C133.906 104.051 140.05 100.822 139.448 99.6301C138.604 97.9604 133.24 97.8475 133.24 97.8475C133.24 97.8475 140.098 95.2888 140.448 94.6632C143.239 89.6775 147.174 80.3762 144.839 69.8215C142.026 57.1055 129.807 57.3125 126.199 55.3276C118.763 51.2355 120.957 40.2293 120.957 40.2293C120.957 40.2293 121.357 37.4471 119.353 37.0497C118.653 36.9109 118.123 36.7487 117.74 36.7487C117.028 36.7487 116.821 37.3131 116.952 39.6366C117.155 43.2113 114.982 53.1499 120.995 58.3096L120.993 58.312Z" fill="url(#paint3_linear)"/>
<path fill-rule="evenodd" clip-rule="evenodd" d="M117.23 120.312C117.23 120.312 121.11 117.965 122.432 115.34C123.833 112.558 127.434 106.196 130.439 105.202C133.905 104.052 140.05 100.823 139.448 99.6302C138.604 97.9604 133.24 97.8476 133.24 97.8476C133.24 97.8476 140.097 95.2888 140.448 94.6633C143.239 89.6775 147.068 85.2397 143.34 75.0872C140.932 68.5328 127.906 60.1958 124.299 58.2109C116.863 54.1188 118.478 42.5152 118.478 42.5152C118.478 42.5152 118.478 39.1381 116.475 38.7406C114.471 38.3455 115.271 38.3455 115.475 41.9226C115.677 45.4973 114.981 53.1499 120.995 58.312C125.385 62.0819 131.913 64.1679 136.325 70.1249C140.716 76.0585 147.15 82.4388 141.146 89.1978C138.065 92.6666 126.928 98.9435 123.325 100.338C120.129 101.573 114.511 102.33 113.309 102.132C108.058 101.267 104.491 96.1755 101.69 97.9651C96.9229 101.011 107.903 105.314 104.5 109.091C101.097 112.868 88.2946 112.283 88.0782 114.867C87.8807 117.252 88.6826 118.642 100.1 118.835C111.517 119.025 112.199 125.681 116.606 125.481C121.013 125.279 113.796 115.744 113.589 108.393C113.385 101.041 104.77 99.856 104.77 99.856" fill="#4E567C"/>
<path fill-rule="evenodd" clip-rule="evenodd" d="M103.289 92.9959C106.49 88.8215 107.691 88.4241 110.897 87.8267C113.06 87.4222 119.245 87.6809 124.386 87.1988C124.711 87.1682 125.091 88.3653 125.529 88.3653C125.966 88.3653 125.47 86.0723 125.952 85.9829C126.439 85.8936 127.429 88.4993 127.881 88.3653C128.33 88.2289 127.281 85.8677 127.881 85.6936C128.48 85.5196 129.684 87.8808 130.03 87.6997C130.376 87.5186 129.35 85.6936 129.689 85.2351C130.028 84.7788 130.319 85.9241 130.376 85.8936C135.93 82.9068 138.136 78.4008 138.331 75.0919C138.529 71.7124 134.522 66.9477 134.522 66.9477L104.662 51.2685C104.662 51.2685 105.349 39.6437 117.272 37.9458C121.479 37.3484 116.832 44.4931 121.689 53.0441C124.2 57.4654 130.308 56.6588 136.158 60.4921C136.563 60.7579 137.2 60.043 137.464 60.2405C137.722 60.438 136.81 61.1154 137.833 61.9361C138.856 62.7592 139.296 61.3858 139.679 61.7574C140.06 62.129 138.639 62.8463 139.679 63.7282C140.716 64.6077 141.255 63.4295 141.605 63.8693C141.958 64.3091 140.885 64.8382 141.346 65.3509C142.793 66.9736 142.842 67.5427 143.533 70.3202C145.704 79.0335 144.822 77.1638 147.748 80.6491C153.286 87.2458 121.917 96.7611 121.917 96.7611L158.972 90.9757L156.712 83.0667L105.622 -11.7235L77.2607 116.859C77.2607 116.859 82.6625 105.528 89.6705 100.954C98.1366 95.4276 100.084 97.1726 103.287 92.9982L103.289 92.9959Z" fill="#5DA7B5"/>
<path fill-rule="evenodd" clip-rule="evenodd" d="M119.533 121.403L116.645 119.451C116.645 119.451 114.728 112.024 113.717 109.682C112.513 106.902 112.424 105.519 108.906 104.719C98.4877 102.339 104.696 99.355 104.696 99.355C104.696 99.355 111.507 101.14 113.113 105.907C113.788 107.911 114.319 113.259 117.322 113.256C120.328 113.256 121.327 108.684 123.93 107.095C126.534 105.5 128.335 103.513 130.739 103.113C133.142 102.713 139.553 102.713 139.553 102.713L119.533 121.403V121.403Z" fill="#4C416D"/>
<path fill-rule="evenodd" clip-rule="evenodd" d="M116.11 94.7786C119.113 93.1864 119.715 94.1789 121.516 92.9865C123.318 91.7918 114.903 89.8116 112.1 91.4014C110.496 92.3116 109.814 98.0405 111.505 98.953C115.912 101.335 113.629 96.0909 116.11 94.7786V94.7786Z" fill="#4E567C"/>
</g>
</g>
</g>
<path fill-rule="evenodd" clip-rule="evenodd" d="M77.8089 164.624C79.14 158.878 79.6103 158.079 75.9887 153.848C73.5736 151.026 72.2355 148.925 71.9697 147.547C71.8662 149.436 73.0303 151.743 75.4667 154.462C79.1165 158.544 75.7089 165.672 77.308 170.39C78.3757 173.537 79.0365 175.846 79.2928 177.321C79.0314 174.9 78.6436 172.495 78.1311 170.115C77.9077 169.12 77.2704 166.935 77.8089 164.621V164.624Z" fill="#4F6486"/>
<path fill-rule="evenodd" clip-rule="evenodd" d="M125.528 101.526C125.528 101.526 130.897 101.371 132.536 100.926C134.74 100.329 137.945 100.126 137.945 98.7366L134.488 97.7277L129.039 99.6161L128.844 100.143L125.528 101.526V101.526Z" fill="#4B2A5C"/>
<path fill-rule="evenodd" clip-rule="evenodd" d="M144.824 86.3145C139.927 90.242 133.046 92.4832 130.006 94.073C126.201 96.0626 128.606 99.0423 129.009 99.8348C132.607 98.8142 139.822 95.8556 144.426 92.0764C152.297 85.6184 155.632 74.7815 154.632 74.5839C154.619 74.5811 154.606 74.5795 154.592 74.5792C153.539 74.5792 149.962 82.1895 144.824 86.3145" fill="url(#paint4_linear)"/>
<path fill-rule="evenodd" clip-rule="evenodd" d="M129.008 99.8348C127.527 97.5512 127.927 96.5564 127.927 96.5564C127.927 96.5564 129.53 97.9463 132.334 96.9515C135.572 95.8038 139.854 94.1153 144.75 90.1878C149.955 86.0111 153.555 79.0546 153.555 79.0546C153.555 79.0546 152.297 85.616 144.426 92.0763C139.821 95.8532 132.604 98.8117 129.008 99.8371" fill="#D3CBAF"/>
<path fill-rule="evenodd" clip-rule="evenodd" d="M114.1 93.0287C114.1 92.295 114.702 91.6976 115.441 91.6976C116.184 91.6976 116.786 92.2926 116.786 93.0287C116.784 93.3832 116.643 93.7227 116.391 93.9727C116.14 94.2227 115.8 94.3628 115.445 94.3622C115.269 94.3631 115.095 94.3293 114.932 94.2628C114.769 94.1963 114.621 94.0983 114.496 93.9744C114.371 93.8506 114.272 93.7033 114.204 93.541C114.136 93.3787 114.101 93.2047 114.1 93.0287" fill="#020408"/>
<path fill-rule="evenodd" clip-rule="evenodd" d="M116.108 92.3913C116.108 92.4974 116.066 92.5991 115.991 92.6741C115.916 92.749 115.814 92.7912 115.708 92.7912C115.656 92.7915 115.603 92.7813 115.555 92.7614C115.506 92.7414 115.461 92.712 115.424 92.6749C115.387 92.6377 115.357 92.5936 115.337 92.5449C115.317 92.4962 115.306 92.444 115.306 92.3913C115.307 92.2857 115.349 92.1846 115.424 92.1102C115.499 92.0357 115.6 91.9939 115.706 91.9939C115.812 91.9939 115.914 92.036 115.989 92.111C116.064 92.186 116.106 92.2877 116.106 92.3937" fill="#D5B8D8"/>
<path fill-rule="evenodd" clip-rule="evenodd" d="M119.335 0.039917L133.402 13.0381L132.662 20.4979L117.752 6.72598L119.335 0.039917Z" fill="#FE9B7C"/>
<path fill-rule="evenodd" clip-rule="evenodd" d="M119.37 0L117.754 6.72605L104.512 20.8319L106.09 14.1435L119.37 0Z" fill="#D06868"/>
<path fill-rule="evenodd" clip-rule="evenodd" d="M117.79 6.68604L132.699 20.458L119.419 34.6038L104.51 20.8319L117.79 6.68604Z" fill="#A5597E"/>
<defs>
<filter id="filter0_d" x="77.2373" y="33.7487" width="71.3117" height="94.7328" filterUnits="userSpaceOnUse" color-interpolation-filters="sRGB">
<feFlood flood-opacity="0" result="BackgroundImageFix"/>
<feColorMatrix in="SourceAlpha" type="matrix" values="0 0 0 0 0 0 0 0 0 0 0 0 0 0 0 0 0 0 127 0"/>
<feOffset/>
<feGaussianBlur stdDeviation="1.5"/>
<feColorMatrix type="matrix" values="0 0 0 0 0 0 0 0 0 0 0 0 0 0 0 0 0 0 0.5 0"/>
<feBlend mode="normal" in2="BackgroundImageFix" result="effect1_dropShadow"/>
<feBlend mode="normal" in="SourceGraphic" in2="effect1_dropShadow" result="shape"/>
</filter>
<linearGradient id="paint0_linear" x1="119.736" y1="176.579" x2="98.6344" y2="185.719" gradientUnits="userSpaceOnUse">
<stop stop-color="#FE9B7C"/>
<stop offset="1" stop-color="#D06868"/>
</linearGradient>
<radialGradient id="paint1_radial" cx="0" cy="0" r="1" gradientUnits="userSpaceOnUse" gradientTransform="translate(95.1484 184.626) rotate(90) scale(16.4871 2.40487)">
<stop stop-opacity="0.5"/>
<stop offset="1" stop-opacity="0"/>
</radialGradient>
<linearGradient id="paint2_linear" x1="78.9248" y1="201.925" x2="144.886" y2="77.3483" gradientUnits="userSpaceOnUse">
<stop stop-color="#4C416C"/>
<stop offset="1" stop-color="#4F7995"/>
</linearGradient>
<linearGradient id="paint3_linear" x1="119.528" y1="34.5738" x2="88.7489" y2="119.262" gradientUnits="userSpaceOnUse">
<stop stop-color="#5190A5"/>
<stop offset="1" stop-color="#4E6586"/>
</linearGradient>
<linearGradient id="paint4_linear" x1="149.049" y1="84.191" x2="129.759" y2="99.5023" gradientUnits="userSpaceOnUse">
<stop stop-color="#EFE8CD"/>
<stop offset="1" stop-color="#D3CAAF"/>
</linearGradient>
</defs>
</svg>
