<svg height='100px' width='100px' fill="#333333"
    xmlns="http://www.w3.org/2000/svg" viewBox="0 0 64 64" x="0px" y="0px">
    <g>
        <path d="M48,62V55H40V53h8V48h2V62ZM41.339,24.941l-.678-1.882a15,15,0,0,1-5.021.816H34v2h1.64A17.03,17.03,0,0,0,41.339,24.941ZM14,16v4h6a1,1,0,0,1,1,1V38.364c.184-.052.364-.112.552-.152l6.256-1.334L31,34.5V31.3a8.969,8.969,0,0,1-3.479-5.121A16.774,16.774,0,0,1,27.031,23H27a3.989,3.989,0,0,1-1.083-7.832A3.977,3.977,0,0,1,26,12.847V9a7,7,0,0,1,7-7h8a7,7,0,0,1,7,7v3.847a3.977,3.977,0,0,1,.083,2.321A3.991,3.991,0,0,1,47,23h-.031a16.863,16.863,0,0,1-.49,3.188,9.013,9.013,0,0,1-3.2,4.9c-.091.071-.187.135-.281.2v3.173l3.153,2.115,4.835.688A7.049,7.049,0,0,1,57,44.2V62H55V44.2a5.037,5.037,0,0,0-4.3-4.95l-1.846-.263v0L46.7,38.68l-.7,8.4a1,1,0,0,1-1.492.785L40.08,45.341,38,51.172V62H36V51.172l-2.08-5.831L29.5,47.868A1,1,0,0,1,28,47.083l-.671-8.059-2.124.454h0l-3.241.691a6.886,6.886,0,0,0-.968.291V49.17a4,4,0,0,1-2,3.459v2.465l5.172-7.654A1,1,0,0,1,26,48v5h8v2H26v7H24V51.266L18.348,59.63a4.93,4.93,0,0,1-2.5,2.025l-.009,0c-.163.06-.3.109-.44.146a3.878,3.878,0,0,1-.423.1l-.007,0h-.006A5.016,5.016,0,0,1,14,62a3.492,3.492,0,0,1-.432-.022,3.2,3.2,0,0,1-.414-.057,3.065,3.065,0,0,1-.573-.133,4.943,4.943,0,0,1-3.533-4.144A3.671,3.671,0,0,1,9,57V43a.979.979,0,0,1,.073-.359A2.949,2.949,0,0,1,9,42V36a2.991,2.991,0,0,1,1.55-2.61l-1.208-.606A4.184,4.184,0,0,1,7,29V15a6.006,6.006,0,0,1,6-6h2a6.006,6.006,0,0,1,6,6,1,1,0,0,1-1,1ZM37,48.024,38.436,44H35.564Zm7.743-9.98L42.594,36.6l-1.881,6.8,3.421,1.955Zm-.89-21.916A2.034,2.034,0,0,0,46.216,14H27.784a2.034,2.034,0,0,0,2.363,2.128l2.744-.457a24.909,24.909,0,0,1,8.218,0ZM47,17v4a2,2,0,0,0,0-4ZM28,12H46V9a5,5,0,0,0-5-5H33a5,5,0,0,0-5,5Zm-1,9V17.008l0,0a2,2,0,0,0,0,4Zm9.25,10h1.5a7.019,7.019,0,0,0,6.79-5.3A14.886,14.886,0,0,0,45,22V18.07a4.021,4.021,0,0,1-.793.088,4.169,4.169,0,0,1-.683-.057l-.617-.1a1.471,1.471,0,0,1,.093.5,1.5,1.5,0,1,1-2.682-.914,22.985,22.985,0,0,0-6.636,0A1.5,1.5,0,1,1,31,18.5a1.471,1.471,0,0,1,.093-.5l-.617.1A4.015,4.015,0,0,1,29,18.073V22a14.89,14.89,0,0,0,.459,3.692A6.99,6.99,0,0,0,36.25,31ZM33,32.388v2.476L34.975,42h4.05L41,34.864V32.382A8.988,8.988,0,0,1,37.75,33h-1.5A9,9,0,0,1,33,32.388Zm-3.723,5.889.589,7.076L33.287,43.4l-1.861-6.724ZM9,28h4V26H9Zm10,8a1,1,0,0,0-1-1H12a1,1,0,0,0-1,1v6a1,1,0,0,0,1,1h6a1,1,0,0,0,1-1ZM14.609,59.938c.021,0,.03-.008.049-.011a2.951,2.951,0,0,0,.434-.125l.034-.011A2.992,2.992,0,0,0,17,57V53.173h0c-.068,0-.136,0-.2-.005A4.1,4.1,0,0,1,13,49V45H12a2.966,2.966,0,0,1-1-.184V56.94a2.369,2.369,0,0,0,.024.405,2.989,2.989,0,0,0,2.15,2.533,1.672,1.672,0,0,0,.308.071c.1.018.145.029.187.031s.133.009.171.016A1.062,1.062,0,0,0,14,60,3.139,3.139,0,0,0,14.609,59.938ZM19,49.17V44.816A2.966,2.966,0,0,1,18,45H15v4a2.128,2.128,0,0,0,1.9,2.171,2.007,2.007,0,0,0,2.1-2ZM19,22H9v2h5a1,1,0,0,1,1,1v4a1,1,0,0,1-1,1H9.232a2.191,2.191,0,0,0,1,.993L14.237,33H18a2.966,2.966,0,0,1,1,.184Zm-7-2V15a1,1,0,0,1,1-1h5.873A4.006,4.006,0,0,0,15,11H13a4,4,0,0,0-4,4v5ZM34,10h6V8H34Z"></path>
    </g>
</svg>