<svg width="200" height="200" viewBox="0 0 200 200" fill="none" xmlns="http://www.w3.org/2000/svg">
<path d="M158.084 58.2393L143.185 73.1378C167.564 97.517 167.564 136.795 143.185 160.722C118.806 185.102 79.5282 185.102 55.6005 160.722C31.2212 136.343 31.2212 97.0655 55.6005 73.1378L99.6185 29.1197V0L41.3792 58.2393C8.87359 90.7449 8.87359 143.115 41.3792 175.621C73.8849 208.126 126.255 208.126 158.084 175.621C190.589 142.889 190.589 90.7449 158.084 58.2393Z" fill="#EE4C2C"/>
<path d="M128.964 54.6276C134.948 54.6276 139.799 49.7765 139.799 43.7924C139.799 37.8083 134.948 32.9571 128.964 32.9571C122.98 32.9571 118.129 37.8083 118.129 43.7924C118.129 49.7765 122.98 54.6276 128.964 54.6276Z" fill="#EE4C2C"/>
</svg>
