<svg width="200" height="200" viewBox="0 0 200 200" fill="none" xmlns="http://www.w3.org/2000/svg">
<path fill-rule="evenodd" clip-rule="evenodd" d="M26.6588 59.9538V95.7157L29.4511 98.5021L37.8111 90.1542V66.841L26.6588 59.9426V59.9538ZM81.0832 49.7297H33.5524C30.5748 50.4881 28.496 52.1677 27.333 54.7631L37.8111 60.9425H76.9706L81.0832 49.7241V49.7297ZM68.6106 138.488H37.8055L28.9511 147.151C30.1084 148.375 31.631 149.229 33.5131 149.712H74.6727L74.4873 149.19L68.5994 138.488H68.6106ZM73.285 109.76V137.135L79.7067 148.819C82.1338 147.611 83.707 145.561 84.4373 142.662V103.704L81.8866 101.159L73.2906 109.754L73.285 109.76ZM33.9008 101.361L37.8111 105.333H71.0489L77.7347 98.6369L73.285 94.1091H41.1596L33.912 101.356L33.9008 101.361ZM144.873 130.59L169.538 139.118C170.717 139.421 171.375 138.724 170.982 137.562L145.581 61.9818C145.188 60.8189 144.553 60.8189 144.165 61.9818L118.771 137.562C118.377 138.724 119.018 139.415 120.209 139.118L144.873 130.59ZM11.1017 33.0678C4.97219 33.0621 0 38.0338 0 44.157V155.274C0 161.397 4.97219 166.374 11.113 166.374H188.876C195.022 166.374 200 161.403 200 155.268V44.157C200 38.0225 195.022 33.0509 188.876 33.0509H11.113L11.1017 33.0678ZM11.1017 37.5057H188.876C192.561 37.5057 195.545 40.483 195.545 44.1682V155.274C195.545 158.948 192.567 161.931 188.876 161.931H11.113C7.42177 161.931 4.43845 158.954 4.43845 155.268V44.157C4.43845 40.4774 7.41615 37.4945 11.1074 37.4945L11.1017 37.5057Z" fill="#5063F0"/>
</svg>
