<svg width="200" height="200" viewBox="0 0 200 200" fill="none" xmlns="http://www.w3.org/2000/svg">
<path d="M180.339 68.0169V45.6441L157.288 38.8644V21.2373L131.525 7L100.339 19.2034L70.5085 7L42.7119 21.2373V38.8644L19.661 45.6441V68.0169L0 100.559L19.661 132.424V154.797L42.7119 161.576V179.203L68.4746 193.441L99.661 181.237L129.492 193.441L157.288 179.203V161.576L180.339 154.797V132.424L200 100.559L180.339 68.0169ZM94.9153 171.746L69.1525 181.915L52.8814 172.424V153.441L29.8305 146.661V133.102H46.7797L62.3729 145.983L69.1525 137.847L56.9492 127.678L69.1525 117.508L62.3729 109.373L46.7797 122.254H25.7627L12.2034 99.2034L25.0847 77.5085H46.7797L62.3729 90.3898L69.1525 82.2542L56.2712 73.4407L68.4746 63.2712L61.6949 55.8136L46.7797 68.0169H29.8305V53.7797L52.8814 47V28.0169L70.5085 18.5254L94.9153 28.0169V171.746ZM174.915 122.254H153.22L137.627 109.373L130.847 117.508L143.051 127.678L130.847 137.847L137.627 145.983L153.22 133.102H170.169V147.339L147.119 154.119V173.102L129.492 182.593L105.085 172.424V28.6949L130.847 18.5254L147.119 27.339V46.322L170.169 53.1017V66.661H153.22L137.627 54.4576L130.847 62.5932L143.051 72.7627L130.847 82.9322L137.627 91.0678L153.22 78.1864H174.237L187.797 101.237L174.915 122.254Z" fill="#DC382D"/>
</svg>
