<svg width="200" height="200" viewBox="0 0 200 200" fill="none" xmlns="http://www.w3.org/2000/svg">
<path fill-rule="evenodd" clip-rule="evenodd" d="M90.4175 9.12405C88.1262 9.724 84.5236 11.1241 82.4118 12.2342C80.2994 13.3443 77.2447 15.3483 75.6235 16.6872C74.0018 18.0261 71.6064 20.4087 70.2997 21.9815C68.9931 23.5543 66.927 26.9 65.7084 29.4165C64.4904 31.933 63.09 35.9759 62.5977 38.4003C62.1053 40.8247 61.7067 44.4278 61.7119 46.4072C61.7176 48.3867 62.103 51.8073 62.5685 54.0093C63.0345 56.2112 64.4024 60.0717 65.6089 62.5881C66.8155 65.1046 69.1286 68.7563 70.7492 70.7037C72.3692 72.6506 75.3067 75.3809 77.2767 76.7713C79.2467 78.1616 93.4322 86.5603 108.8 95.436C124.167 104.311 137.111 111.715 137.563 111.888C138.272 112.161 138.358 107.286 138.191 75.9574C138.018 43.4321 137.895 39.3588 136.994 36.2796C136.441 34.3922 135.043 30.9178 133.886 28.5586C132.302 25.3295 130.576 23.059 126.906 19.3741C123.448 15.9014 120.834 13.8602 117.914 12.352C115.65 11.1818 111.813 9.71771 109.388 9.09717C106.507 8.36053 103.177 7.9802 99.7808 8.00079C96.5996 8.02024 92.9662 8.45604 90.4175 9.12405ZM107.573 28.4254C109.057 29.0831 111.533 30.8017 113.075 32.2447C114.81 33.8684 116.506 36.2264 117.525 38.4335L119.172 41.9988L119.553 79.5388L117.933 78.6947C117.042 78.2308 110.265 74.3503 102.874 70.0712C95.4834 65.792 88.3663 61.3997 87.058 60.3101C85.6896 59.1703 83.946 56.8603 82.9522 54.8706C82.0018 52.9678 81.0525 50.0401 80.8433 48.3644C80.5842 46.2917 80.7609 44.1458 81.3956 41.6563C81.9086 39.6425 83.1821 36.7057 84.2251 35.1295C85.2681 33.5532 87.2015 31.5143 88.5219 30.5992C89.8422 29.6842 92.2611 28.4574 93.8966 27.8729C96.0404 27.1071 97.9875 26.8692 100.873 27.0201C103.281 27.146 105.95 27.7059 107.573 28.4254ZM56.61 98.354C46.4187 104.284 33.0377 112.04 26.8744 115.589C17.2013 121.161 15.0374 122.674 11.0489 126.652C7.53149 130.159 5.86917 132.376 4.08732 135.936C2.80012 138.509 1.30877 142.583 0.772957 144.99C0.0644512 148.177 -0.125399 150.941 0.0753154 155.163C0.277746 159.412 0.766095 162.178 1.90519 165.529C2.75952 168.042 4.39554 171.641 5.54036 173.525C6.6846 175.41 9.19783 178.529 11.1249 180.456C13.0514 182.383 16.2526 184.912 18.2386 186.076C20.2246 187.24 23.8043 188.879 26.1934 189.719C30.0544 191.075 31.3634 191.243 37.9709 191.232C44.5259 191.221 45.9601 191.034 50.1025 189.654C52.8204 188.748 56.6157 186.874 59.11 185.205C61.4814 183.619 64.6323 180.947 66.1127 179.268C67.5927 177.589 69.7879 174.588 70.9899 172.599C72.1919 170.61 73.7187 167.307 74.3821 165.257C75.329 162.331 75.6836 159.261 76.033 150.95C76.2771 145.131 76.4984 128.467 76.5236 113.918C76.5602 93.0877 76.4178 87.4783 75.8551 87.5194C75.4623 87.5486 66.8018 92.4243 56.61 98.354ZM156.19 115.548C154.22 115.845 150.988 116.676 149.008 117.395C147.028 118.114 132.299 126.257 116.278 135.491C100.257 144.725 86.8104 152.586 86.3964 152.96C85.7988 153.5 91.56 157.052 114.416 170.236C130.241 179.364 144.303 187.396 145.665 188.086C147.028 188.776 150.092 189.838 152.476 190.449C155.13 191.127 158.734 191.557 161.774 191.557C164.842 191.557 168.421 191.126 171.147 190.429C173.571 189.809 177.408 188.342 179.672 187.169C182.542 185.682 185.281 183.555 188.715 180.147C192.737 176.154 194.068 174.366 195.971 170.396C197.322 167.579 198.71 163.498 199.271 160.693C199.968 157.211 200.142 154.479 199.892 150.97C199.7 148.285 199.122 144.674 198.607 142.945C198.092 141.215 196.815 138.127 195.77 136.082C194.724 134.036 192.727 130.929 191.332 129.177C189.937 127.425 187.154 124.75 185.149 123.232C183.143 121.714 179.958 119.748 178.071 118.862C176.184 117.976 173.207 116.881 171.456 116.43C169.706 115.978 166.361 115.473 164.023 115.308C161.685 115.142 158.16 115.25 156.19 115.548ZM56.2731 159.317C55.7939 160.965 54.5593 163.424 53.5295 164.782C52.4996 166.14 50.4107 168.089 48.8879 169.114C47.3645 170.139 44.6894 171.393 42.9436 171.901C40.8621 172.506 38.6337 172.721 36.4733 172.525C34.6606 172.36 31.7997 171.595 30.1156 170.824C28.4316 170.053 26.1059 168.59 24.9474 167.572C23.7888 166.555 21.999 164.013 20.9708 161.923C19.3016 158.532 19.1003 157.599 19.1003 153.25C19.1003 149.112 19.3336 147.902 20.6449 145.231C21.4946 143.501 23.2135 141.086 24.4653 139.864C25.7165 138.641 33.5135 133.72 41.7908 128.925L56.8415 120.208L56.9925 138.265C57.1166 153.075 56.9874 156.859 56.2731 159.317ZM169.823 135.946C171.261 136.652 173.503 138.14 174.802 139.253C176.196 140.446 177.863 142.731 178.868 144.826C179.805 146.779 180.737 149.704 180.94 151.327C181.186 153.29 180.999 155.492 180.382 157.904C179.873 159.899 178.789 162.541 177.974 163.776C177.159 165.011 175.69 166.777 174.709 167.7C173.727 168.625 171.558 170.021 169.889 170.803C168.219 171.586 165.354 172.362 163.523 172.528C161.692 172.694 158.899 172.519 157.317 172.14C155.523 171.71 148.667 168.112 139.093 162.577C130.653 157.697 123.67 153.63 123.577 153.54C123.483 153.449 130.313 149.376 138.756 144.488C147.198 139.601 154.994 135.335 156.081 135.007C157.167 134.681 160.115 134.469 162.631 134.538C166.027 134.63 167.88 134.993 169.823 135.946Z" fill="#5158FF"/>
</svg>
