<svg width="201" height="200" viewBox="0 0 201 200" fill="none" xmlns="http://www.w3.org/2000/svg">
<path d="M178.91 44.1725C178.91 37.8 173.744 32.634 167.372 32.634C160.999 32.634 155.833 37.8 155.833 44.1725V67.7156C155.833 74.0881 160.999 79.254 167.372 79.254C173.744 79.254 178.91 74.0881 178.91 67.7156V44.1725Z" fill="#F22859"/>
<path d="M155.833 99.5338C155.833 93.1613 160.999 87.9954 167.372 87.9954C173.745 87.9954 178.91 93.1613 178.91 99.5338V155.128C178.91 161.501 173.745 166.667 167.372 166.667C160.999 166.667 155.833 161.501 155.833 155.128V99.5338Z" fill="#7362AD"/>
<path d="M78.9102 125.757C78.9102 119.385 73.7442 114.219 67.3717 114.219C60.9992 114.219 55.8333 119.385 55.8333 125.757V175.524C55.8333 181.897 60.9992 187.063 67.3717 187.063C73.7442 187.063 78.9102 181.897 78.9102 175.524V125.757Z" fill="#4278CD"/>
<path d="M145.577 76.2238C145.577 69.8512 140.411 64.6853 134.038 64.6853C127.666 64.6853 122.5 69.8512 122.5 76.2238V166.783C122.5 173.156 127.666 178.322 134.038 178.322C140.411 178.322 145.577 173.156 145.577 166.783V76.2238Z" fill="#6966B3"/>
<path d="M78.9102 17.9486C78.9102 11.5761 73.7442 6.41016 67.3717 6.41016C60.9992 6.41016 55.8333 11.5761 55.8333 17.9486V93.9394C55.8333 100.312 60.9992 105.478 67.3717 105.478C73.7442 105.478 78.9102 100.312 78.9102 93.9394V17.9486Z" fill="#B34582"/>
<path d="M145.577 20.8627C145.577 14.4902 140.411 9.32422 134.038 9.32422C127.666 9.32422 122.5 14.4902 122.5 20.8627V44.4058C122.5 50.7783 127.666 55.9442 134.038 55.9442C140.411 55.9442 145.577 50.7783 145.577 44.4058V20.8627Z" fill="#D5356C"/>
<path d="M112.244 105.361C112.244 98.9887 107.078 93.8228 100.705 93.8228C94.3327 93.8228 89.1667 98.9887 89.1667 105.361V187.179C89.1667 193.552 94.3327 198.718 100.705 198.718C107.078 198.718 112.244 193.552 112.244 187.179V105.361Z" fill="#5171C4"/>
<path d="M112.244 12.1212C112.244 5.74871 107.078 0.582764 100.705 0.582764C94.3327 0.582764 89.1667 5.74871 89.1667 12.1212V73.543C89.1667 79.9155 94.3327 85.0815 100.705 85.0815C107.078 85.0815 112.244 79.9155 112.244 73.543V12.1212Z" fill="#C73C76"/>
<path d="M22.5 155.128C22.5 161.501 27.6659 166.667 34.0384 166.667C40.411 166.667 45.5769 161.501 45.5769 155.128L45.5769 131.585C45.5769 125.213 40.411 120.047 34.0384 120.047C27.6659 120.047 22.5 125.213 22.5 131.585L22.5 155.128Z" fill="#2684DF"/>
<path d="M45.5769 99.7669C45.5769 106.139 40.411 111.305 34.0385 111.305C27.6659 111.305 22.5 106.139 22.5 99.7669V44.1725C22.5 37.7999 27.6659 32.634 34.0385 32.634C40.411 32.634 45.5769 37.7999 45.5769 44.1725V99.7669Z" fill="#9A5093"/>
</svg>
