<svg width="171" height="279" viewBox="0 0 171 279" fill="none" xmlns="http://www.w3.org/2000/svg">
<path fill-rule="evenodd" clip-rule="evenodd" d="M22.3001 23.5692C5.91049 39.8854 -1.87125 61.8154 0.385823 85.3284C2.44128 106.743 12.8268 128.187 28.8746 144.166L109.325 224.254C95.5689 233.875 77.5688 230.335 68.7348 225.334C55.3374 217.739 44.4602 206.607 40.4181 200.976C38.552 198.379 34.9205 197.771 32.3094 199.635C29.7032 201.486 29.0983 205.104 30.962 207.704C34.9549 213.264 46.7861 226.209 62.9864 235.384C69.3618 238.997 78.899 241.946 89.1689 241.946C99.8445 241.946 111.312 238.763 120.854 229.836C129.934 221.345 134.573 210.296 134.276 197.886C133.856 180.492 123.736 162.134 106.508 147.527C94.5387 137.377 62.743 110.432 54.1941 95.6229C50.2258 88.7436 45.1708 75.696 52.8074 62.1843L133.774 142.786C161.24 170.129 171.296 216.684 140.582 247.264C126.443 261.343 107.208 268.478 86.3881 267.311C66.5392 266.209 47.1279 257.59 33.138 243.654C31.5742 242.097 29.8532 240.466 27.9919 238.702C22.75 233.73 16.8172 228.097 10.2697 220.299C8.21181 217.851 4.55083 217.517 2.08477 219.566C-0.376369 221.614 -0.705833 225.261 1.34963 227.714C8.32246 236.022 14.7814 242.151 19.9742 247.076C21.7616 248.771 23.4163 250.34 24.9186 251.835C40.9074 267.75 63.0749 277.603 85.7415 278.861C87.4282 278.956 89.0976 279 90.7597 279C112.981 279 133.44 270.738 148.802 255.443C165.184 239.134 172.924 217.155 170.593 193.547C168.481 172.081 158.054 150.598 141.989 134.604L60.1466 53.1309C72.2089 42.5531 88.7091 43.4472 97.4203 47.1115C107.437 51.3353 112.413 56.2871 116.419 60.2642L116.421 60.2764C118.698 62.5336 122.371 62.5288 124.638 60.2642C126.907 58.0069 126.897 54.3401 124.628 52.0853C120.166 47.6417 114.046 41.5588 101.947 36.4653C88.6132 30.8393 61.5087 30.0991 45.5445 52.0194C34.9525 66.5938 34.4312 84.5834 44.1234 101.386C52.5444 115.972 76.5804 137.348 98.9741 156.329C113.684 168.808 122.317 184.059 122.659 198.167C122.821 204.88 121.083 210.86 117.515 216.046L37.0915 135.985C22.9197 121.872 13.7561 103.008 11.9539 84.2267C10.5967 70.0725 12.7112 49.4738 30.5195 31.7505C44.6495 17.6793 63.8986 10.5192 84.699 11.6771C104.516 12.752 123.844 21.2949 137.728 35.1144C143.356 40.7184 144.72 42.1695 148.136 46.2101C150.206 48.6506 153.869 48.9682 156.323 46.9112C158.777 44.8543 159.096 41.2046 157.029 38.7617C153.373 34.4328 151.816 32.7741 145.945 26.9355C130.069 11.125 107.97 1.35337 85.3334 0.127031C83.7205 0.0415295 82.115 0 80.5168 0C58.2018 0 37.6939 8.24482 22.3001 23.5692Z" fill="#3C15D1"/>
</svg>
