<svg width="256" height="256" viewBox="0 0 256 256" fill="none" xmlns="http://www.w3.org/2000/svg">
<circle cx="128" cy="128" r="128" fill="white"/>
<path d="M151.097 94.9385C149.895 92.6052 148.261 90.5109 146.278 88.7622C144.027 86.7907 141.432 85.2319 138.618 84.1602C135.352 82.9097 131.869 82.2927 128.363 82.3436C125.313 82.3308 122.277 82.7384 119.343 83.5547C116.679 84.2705 114.138 85.3726 111.806 86.8245C109.75 88.1169 107.985 89.8064 106.617 91.7898C105.323 93.6443 104.633 95.8403 104.64 98.0873C104.64 101.317 105.752 103.537 107.976 104.748C110.777 106.195 113.715 107.371 116.749 108.26L147.39 116.011C153.149 117.411 158.804 119.191 164.318 121.339C169.373 123.264 174.086 125.962 178.279 129.332C182.222 132.553 185.423 136.557 187.67 141.08C190.123 146.357 191.307 152.116 191.129 157.913C191.277 164.628 189.524 171.251 186.063 177.048C182.598 182.626 177.914 187.383 172.349 190.975C166.157 194.949 159.297 197.819 152.086 199.452C143.91 201.356 135.53 202.291 127.127 202.238C118.837 202.3 110.587 201.116 102.663 198.726C95.5389 196.615 88.8477 193.294 82.8944 188.916C77.4479 184.889 72.9407 179.77 69.6739 173.899C66.4457 168.022 64.788 161.439 64.8552 154.764H98.7095C98.7569 157.172 99.5785 159.503 101.057 161.425C102.757 163.733 104.846 165.74 107.235 167.359C113.091 171.299 120.025 173.409 127.127 173.415C133.944 173.608 140.714 172.24 146.896 169.418C152.333 166.754 155.051 162.919 155.051 157.913C155.15 156.508 154.844 155.104 154.166 153.861C153.489 152.619 152.468 151.589 151.221 150.889C147.678 149.083 143.893 147.778 139.977 147.014L109.582 139.505C104.116 138.1 98.7838 136.236 93.6437 133.934C88.815 131.798 84.3549 128.938 80.4233 125.457C76.665 122.107 73.6024 118.077 71.4037 113.589C69.1062 108.737 67.9654 103.436 68.0677 98.0873C67.918 91.4035 69.5809 84.8005 72.8864 78.9527C76.1039 73.4582 80.537 68.7406 85.8597 65.1467C91.6965 61.2589 98.1759 58.3908 105.011 56.6693C112.63 54.6948 120.482 53.7175 128.363 53.7628C136.188 53.6922 143.965 54.9627 151.344 57.5171C158.047 59.8134 164.28 63.2578 169.754 67.6899C174.83 71.8293 178.992 76.9389 181.986 82.7069C184.955 88.4474 186.48 94.8004 186.434 101.236H152.827C152.754 99.0341 152.162 96.8786 151.097 94.9385Z" fill="black"/>
</svg>
