<svg width="201" height="200" viewBox="0 0 201 200" fill="none" xmlns="http://www.w3.org/2000/svg">
<g clip-path="url(#clip0)">
<path fill-rule="evenodd" clip-rule="evenodd" d="M100.203 3.65231C99.5655 5.66128 97.2483 14.5294 95.0539 23.3596C91.9562 35.8264 91.3497 39.6962 92.3427 40.6734C93.2579 41.5739 94.126 41.618 95.3989 40.8279C96.3941 40.21 97.967 36.522 98.9729 32.4463C100.708 25.4211 100.813 25.2698 101.971 28.1246C102.632 29.7512 103.173 31.7013 103.173 32.4568C103.173 33.2133 104.126 37.5559 105.292 42.1076C106.457 46.6604 107.418 51.2121 107.428 52.2229C107.442 53.8452 106.261 54.0617 97.4138 54.0617C89.1361 54.0617 87.2674 54.3601 86.7174 55.7712C86.3501 56.7106 86.5979 58.129 87.2674 58.9234C88.1793 60.0046 91.7982 60.366 101.701 60.366C113.852 60.366 114.919 60.2095 114.919 58.4211C114.919 57.3515 114.498 55.1061 113.984 53.4302C113.47 51.7554 112.485 47.7836 111.796 44.6052C111.107 41.4268 110.086 36.8162 109.527 34.3607C108.969 31.9051 108.055 27.8851 107.496 25.4295C106.938 22.974 105.905 18.3634 105.201 15.185C104.498 12.0066 103.347 7.2899 102.642 4.70303L101.362 0L100.203 3.65231ZM31.3988 32.2592C32.5425 34.1379 37.2409 41.9385 41.84 49.5961C47.7344 59.413 50.7788 63.5182 52.1605 63.5182C53.238 63.5182 54.4211 62.7459 54.7884 61.8034C55.1568 60.8599 54.8205 59.0862 54.041 57.8632C53.2615 56.6391 51.2572 53.3598 49.586 50.5754C47.9149 47.792 47.1556 45.865 47.8978 46.2937C48.6399 46.7213 51.8904 48.785 55.1205 50.877C58.3507 52.9689 63.692 56.2577 66.9894 58.1847L72.9852 61.6889L65.5777 69.0649L58.1692 76.442L60.386 78.6233L62.6028 80.8036L72.2089 71.3954C77.4936 66.2196 81.8161 61.7151 81.8161 61.3842C81.8161 61.0532 77.3719 58.0113 71.9388 54.6249C66.5057 51.2373 58.6977 46.3252 54.5866 43.7068C50.4755 41.0895 43.3521 36.6744 38.7583 33.8963C34.1634 31.1171 30.1602 28.8444 29.8612 28.8444C29.5632 28.8444 30.2541 30.3805 31.3988 32.2592ZM154.976 39.2276C145.559 44.8027 137.752 50.1173 137.563 51.0829C137.361 52.1158 138.126 53.1139 139.428 53.5206C140.958 53.9976 143.501 53.0625 147.698 50.4798C151.031 48.4277 153.976 46.963 154.243 47.2257C154.509 47.4873 151.473 52.7966 147.497 59.0253C143.52 65.2529 140.076 70.558 139.843 70.8144C139.611 71.0708 136.37 68.3063 132.642 64.6708C128.144 60.2841 125.19 58.1879 123.862 58.439C122.761 58.6481 121.86 59.5822 121.86 60.5163C121.86 61.4493 124.083 64.5164 126.799 67.3312C129.516 70.1461 133.688 74.287 136.071 76.5335L140.403 80.6187L146.489 71.2799C149.837 66.1439 155.002 58.1595 157.968 53.5363C160.933 48.9132 165.465 41.9091 168.038 37.972C170.61 34.036 172.564 30.4341 172.38 29.9687C172.198 29.5032 164.365 33.6703 154.976 39.2276ZM92.8403 70.2838C90.3876 71.0392 86.7836 72.6311 84.8317 73.8226C82.8797 75.0131 79.7873 77.5558 77.9602 79.4723C76.1342 81.3888 73.8854 84.375 72.9639 86.1087C72.0413 87.8424 70.7738 90.8684 70.1448 92.8322C69.5169 94.7971 69.0022 98.6795 69.0022 101.462C69.0022 104.243 69.959 109.019 71.1294 112.074C72.2986 115.131 74.871 119.353 76.8443 121.459C78.8177 123.565 82.3052 126.428 84.5946 127.821C86.884 129.216 90.7346 130.92 93.1521 131.61C95.5697 132.3 99.5153 132.866 101.922 132.866C104.328 132.866 108.875 131.916 112.027 130.756C115.179 129.596 119.728 126.987 122.135 124.959C124.543 122.931 127.516 119.675 128.742 117.724C129.968 115.773 131.678 111.88 132.543 109.073C133.408 106.267 134.121 102.625 134.128 100.981C134.134 99.3362 133.396 95.4758 132.489 92.4035C131.581 89.3312 129.418 84.8856 127.68 82.5268C125.943 80.1669 122.559 76.8371 120.161 75.1276C117.763 73.4181 113.245 71.2893 110.123 70.3962C107.001 69.5031 102.837 68.8033 100.873 68.8422C98.9077 68.8811 95.2931 69.5294 92.8403 70.2838ZM142.371 87.2897C141.955 87.6995 141.614 93.8661 141.614 100.994C141.614 112.079 141.857 113.953 143.294 113.953C144.218 113.953 149.142 112.988 154.239 111.81C159.335 110.632 165.427 109.247 167.776 108.732C170.125 108.217 174.45 107.257 177.386 106.598C180.323 105.939 184.888 104.927 187.531 104.349C190.174 103.771 194.425 102.785 196.977 102.156C199.992 101.415 201.113 100.739 200.18 100.227C199.39 99.7943 190.414 97.4228 180.233 94.9578C165.069 91.2856 161.559 90.735 160.819 91.9129C160.323 92.703 160.331 94.112 160.837 95.044C161.385 96.0516 164.598 97.3199 168.771 98.1773C172.629 98.9695 175.785 99.9845 175.785 100.433C175.785 100.882 173.983 101.56 171.78 101.939C169.578 102.318 164.301 103.521 160.053 104.613C155.807 105.705 151.38 106.598 150.217 106.598C148.283 106.598 148.075 105.765 147.795 96.8786C147.514 88.0115 147.296 87.1321 145.308 86.8526C144.109 86.6834 142.788 86.881 142.371 87.2897ZM46.5779 89.8209C42.1732 90.8979 36.1667 92.2985 33.2302 92.9352C30.2936 93.5709 25.7287 94.5743 23.0858 95.1648C20.443 95.7543 16.3585 96.6443 14.0093 97.1412C11.6601 97.6382 7.38348 98.6322 4.50463 99.3499C0.210906 100.422 -0.333684 100.799 1.47307 101.457C2.68399 101.897 11.7071 104.215 21.5236 106.607C33.0294 109.412 39.7385 110.596 40.4059 109.939C40.974 109.38 41.2687 108.05 41.0594 106.984C40.8512 105.918 39.7247 104.883 38.5575 104.683C37.3893 104.484 33.8751 103.606 30.7485 102.735C27.6219 101.863 25.2556 100.961 25.4906 100.729C25.7255 100.497 28.284 99.8374 31.1757 99.2616C34.0673 98.6858 40.3814 97.3188 45.2058 96.224L53.978 94.2329L54.2823 104.355C54.5834 114.373 54.6144 114.478 57.2562 114.478H59.9257L60.2247 101.081L60.5237 87.6848L57.5552 87.7751C55.9225 87.8245 50.9827 88.7449 46.5779 89.8209ZM55.6545 130.425C52.1306 135.988 46.106 145.316 42.2671 151.15C38.4273 156.986 33.9616 164.006 32.3439 166.751C30.7261 169.497 29.685 171.742 30.0288 171.742C30.3737 171.742 38.3226 167.194 47.6928 161.636C60.1767 154.23 64.731 150.992 64.731 149.519C64.731 148.414 64.0785 147.264 63.2819 146.962C62.4843 146.662 58.9199 148.095 55.3597 150.148C51.8007 152.2 48.594 153.88 48.2341 153.88C47.8743 153.88 49.3554 151.161 51.5241 147.839C53.6939 144.516 57.127 139.026 59.1526 135.639L62.8366 129.48L69.9505 136.427C73.863 140.247 77.6367 143.373 78.335 143.373C79.0334 143.373 80.1354 142.399 80.7825 141.208C81.8268 139.288 80.9085 137.987 72.6179 129.651C67.4806 124.484 63.0032 120.269 62.669 120.283C62.3348 120.297 59.1783 124.861 55.6545 130.425ZM130.003 129.044C125.085 133.914 121.373 138.395 121.752 138.999C122.132 139.604 127.597 143.277 133.897 147.161C140.197 151.045 148.475 156.108 152.293 158.41C156.11 160.713 162.018 164.45 165.422 166.716C168.826 168.981 172.024 170.684 172.528 170.5C173.033 170.317 168.783 162.601 163.084 153.355C155.388 140.87 152.185 136.543 150.638 136.543C149.368 136.543 148.437 137.363 148.252 138.645C148.085 139.801 149.613 143.34 151.649 146.511C153.683 149.681 155.203 152.418 155.027 152.59C154.852 152.762 150.681 150.453 145.758 147.456C140.837 144.459 135.491 141.251 133.88 140.326C132.269 139.401 131.067 138.314 131.21 137.908C131.354 137.503 134.271 134.326 137.695 130.849C141.56 126.925 143.782 123.818 143.557 122.655C143.357 121.625 142.238 120.649 141.07 120.486C139.607 120.282 136.158 122.95 130.003 129.044ZM87.1553 141.246C87.1553 141.844 89.135 150.96 91.5536 161.504C93.9722 172.047 96.3268 182.328 96.7849 184.351C97.243 186.374 98.1506 190.593 98.8009 193.728C99.4523 196.862 100.209 199.649 100.486 199.92C100.761 200.191 101.202 199.754 101.467 198.949C101.731 198.144 103.905 189.74 106.297 180.274C108.69 170.807 110.647 162.179 110.647 161.099C110.647 159.72 109.875 159.134 108.061 159.134C106.064 159.134 105.241 159.912 104.452 162.549C103.889 164.426 102.805 168.091 102.044 170.692C101.103 173.902 100.533 174.745 100.268 173.318C100.053 172.163 98.9184 167.198 97.7449 162.286C96.5724 157.374 95.2013 151.834 94.6984 149.977L93.7854 146.599L104.085 146.299C114.278 146.003 114.385 145.972 114.385 143.373V140.746L100.77 140.452C91.9017 140.261 87.1553 140.537 87.1553 141.246Z" fill="#450671"/>
</g>
<defs>
<clipPath id="clip0">
<rect width="200" height="200" fill="white" transform="translate(0.5)"/>
</clipPath>
</defs>
</svg>
