<svg viewBox="0 0 850 850" xmlns="http://www.w3.org/2000/svg"><circle cx="425" cy="425" fill="#003b49" r="419.71" transform="matrix(.70710678 -.70710678 .70710678 .70710678 -176.04 425)"/><path d="m425 150.37c-72.48 0-266.35 304.48-266.35 481.92 0 9.61.37 19.12 1 28.52 65.15 73.19 159.95 119.32 265.35 119.32s200.2-46.13 265.3-119.32c.68-9.4 1.05-18.91 1.05-28.52 0-177.44-193.87-481.92-266.35-481.92z" fill="#2dccd3"/><path d="m425 150.37c-.33 0-.68.06-1 .07v629.68h1c105.4 0 200.2-46.17 265.3-119.32.68-9.4 1.05-18.91 1.05-28.52 0-177.43-193.87-481.91-266.35-481.91z" fill="#b1e4e3"/><path d="m425 311c-133.73 0-242.14 148.34-242.14 331.32q0 22.49 2.15 44.2a354.47 354.47 0 0 0 480 0q2.12-21.69 2.15-44.2c-.02-182.97-108.43-331.32-242.16-331.32z" fill="#fff"/><path d="m425 491.73c88.15 0 162.54 76.31 186 180.72a320.83 320.83 0 0 0 7.71-70.28c0-138.62-86.73-251-193.71-251s-193.71 112.38-193.71 251a320.83 320.83 0 0 0 7.71 70.28c23.46-104.45 97.85-180.72 186-180.72" fill="#003b49"/></svg>