<svg width="100" height="100" viewBox="0 0 100 100" fill="none" xmlns="http://www.w3.org/2000/svg">
<path d="M85.3746 85.3746C104.875 65.8741 104.875 34.1943 85.3746 14.6254C65.8741 -4.87513 34.1943 -4.87513 14.6254 14.6254C-4.87513 34.1259 -4.87513 65.8057 14.6254 85.3746C34.1259 104.875 65.8057 104.875 85.3746 85.3746Z" fill="#3C3C3C"/>
<path d="M50 17.2938C41.3788 17.2938 18.2518 53.5579 18.2518 74.7005C18.2518 75.8637 18.3203 76.9585 18.3887 78.1217C26.1205 86.8114 37.4102 92.3536 50 92.3536C62.5898 92.3536 73.8796 86.8798 81.6114 78.1217C81.6798 77.0269 81.7482 75.8637 81.7482 74.7005C81.7482 53.5579 58.6213 17.2938 50 17.2938Z" fill="#FFB083"/>
<path d="M50 17.2938C49.9316 17.2938 49.9316 17.2938 49.8632 17.2938V92.2852C49.9316 92.2852 49.9316 92.2852 50 92.2852C62.5898 92.2852 73.8796 86.8114 81.6114 78.0533C81.6798 76.9585 81.7482 75.7953 81.7482 74.6321C81.7482 53.5579 58.6213 17.2938 50 17.2938Z" fill="#FFD3AC"/>
<path d="M50 36.4524C34.0575 36.4524 21.1255 54.1055 21.1255 75.9324C21.1255 77.7114 21.194 79.4904 21.3992 81.201C28.9258 88.1117 38.9839 92.3539 50 92.3539C61.0161 92.3539 71.0742 88.1117 78.6007 81.201C78.7376 79.4904 78.8744 77.7114 78.8744 75.9324C78.806 54.1055 65.9425 36.4524 50 36.4524Z" fill="#F8F8F8"/>
<path d="M50 57.9369C60.4687 57.9369 69.3637 67.0372 72.169 79.4901C72.7848 76.8217 73.0585 74.0163 73.0585 71.1426C73.0585 54.6526 62.7267 41.2418 50 41.2418C37.2734 41.2418 26.9415 54.5842 26.9415 71.1426C26.9415 74.0163 27.2836 76.8901 27.831 79.4901C30.6364 67.0372 39.4629 57.9369 50 57.9369Z" fill="#3C3C3C"/>
</svg>
