<?xml version="1.0" standalone="no"?>
<!DOCTYPE svg PUBLIC "-//W3C//DTD SVG 20010904//EN"
 "http://www.w3.org/TR/2001/REC-SVG-20010904/DTD/svg10.dtd">
<svg version="1.0" xmlns="http://www.w3.org/2000/svg"
 width="700.000000pt" height="700.000000pt" viewBox="0 0 700.000000 700.000000"
 preserveAspectRatio="xMidYMid meet">
<metadata>
Created by potrace 1.11, written by Peter Selinger 2001-2013
</metadata>
<g transform="translate(0.000000,700.000000) scale(0.100000,-0.100000)"
fill="#000000" stroke="none">
<path d="M2226 6989 c-121 -28 -252 -132 -306 -243 -30 -60 -36 -80 -47 -141
-3 -16 -5 -581 -5 -1255 l-1 -1225 22 -65 c13 -36 36 -86 53 -113 63 -98 190
-184 303 -204 28 -5 601 -9 1280 -8 l1230 1 58 22 c154 56 266 177 308 332 9
34 12 341 12 1265 0 671 -3 1236 -6 1257 -23 136 -114 262 -240 332 -104 57
-64 56 -1397 55 -701 -1 -1242 -5 -1264 -10z m1442 -703 c203 -47 345 -120
480 -250 240 -230 329 -541 257 -899 -20 -102 -97 -251 -185 -361 -111 -137
-269 -243 -445 -299 -471 -148 -975 101 -1151 570 -13 34 -26 75 -29 90 -21
101 -26 149 -26 233 -1 350 199 672 518 834 70 35 188 73 254 81 30 4 56 9 58
11 6 6 239 -3 269 -10z"/>
<path d="M3378 5816 c-21 -8 -38 -12 -38 -10 0 2 -24 -8 -52 -23 -68 -35 -168
-134 -201 -198 -93 -185 -59 -404 85 -547 246 -242 656 -147 769 180 23 65 30
175 16 242 -33 160 -162 303 -318 351 -72 22 -205 25 -261 5z"/>
<path d="M367 3253 c-174 -39 -307 -168 -352 -338 -22 -86 -21 -2481 1 -2564
43 -159 173 -291 335 -339 13 -3 582 -8 1264 -9 1050 -2 1248 -1 1294 11 176
48 305 179 347 353 4 15 8 579 9 1253 1 987 -1 1236 -12 1283 -27 121 -106
230 -211 293 -119 72 -22 67 -1387 69 -981 1 -1242 -1 -1288 -12z m1371 -712
c42 -22 97 -78 115 -120 7 -14 33 -61 59 -103 27 -43 48 -79 48 -82 0 -2 30
-55 66 -117 37 -63 77 -132 89 -154 13 -22 71 -123 130 -225 360 -623 415
-721 423 -756 25 -112 -39 -226 -149 -268 -40 -15 -120 -16 -904 -14 -815 3
-862 4 -894 21 -83 46 -139 151 -127 237 7 50 17 69 211 405 89 154 173 300
187 325 14 25 62 107 107 184 44 76 81 140 81 141 0 2 27 49 60 105 33 56 60
104 60 106 0 2 12 23 27 47 15 23 32 51 39 62 84 153 104 177 173 209 63 29
139 28 199 -3z"/>
<path d="M1574 1764 c-31 -55 -80 -137 -107 -184 -27 -47 -60 -103 -72 -125
-12 -22 -54 -95 -93 -162 -38 -68 -67 -124 -64 -126 14 -6 782 0 788 6 4 3 -7
28 -23 54 -16 26 -33 55 -37 63 -4 8 -12 24 -19 35 -7 11 -77 133 -156 270
-79 138 -147 254 -152 259 -4 4 -33 -36 -65 -90z"/>
<path d="M4110 3258 c-120 -21 -265 -128 -321 -239 -58 -115 -56 -68 -54
-1404 2 -1352 -2 -1266 62 -1381 23 -41 83 -107 136 -151 30 -24 99 -54 159
-68 93 -22 2475 -21 2557 1 162 43 292 174 336 337 11 43 14 258 14 1268 1
782 -2 1235 -9 1270 -32 171 -185 329 -355 365 -50 10 -2464 13 -2525 2z
m1825 -702 c17 -4 37 -10 45 -13 8 -4 17 -7 20 -8 3 -1 27 -12 55 -25 104 -51
206 -187 235 -313 7 -31 10 -234 10 -572 -1 -444 -3 -532 -16 -577 -50 -169
-173 -289 -341 -333 -86 -23 -1053 -22 -1153 1 -165 37 -312 186 -346 349 -4
22 -9 276 -9 565 -2 575 -1 583 58 693 41 79 111 146 196 191 39 20 71 35 71
33 0 -2 21 1 46 8 53 13 1078 14 1129 1z"/>
<path d="M4902 1633 l3 -467 462 0 c454 -1 462 -1 465 19 2 11 3 220 3 465
l-1 445 -467 3 -467 2 2 -467z"/>
</g>
</svg>
