<svg width="14" height="14" viewBox="0 0 14 14" fill="none" xmlns="http://www.w3.org/2000/svg">
<path d="M4.99954 13.9982C4.76641 13.9987 4.54047 13.9175 4.36096 13.7687C4.25992 13.6849 4.17641 13.5821 4.11519 13.466C4.05398 13.3499 4.01626 13.2229 4.00421 13.0922C3.99216 12.9615 4.00602 12.8297 4.04497 12.7044C4.08393 12.5791 4.14723 12.4626 4.23125 12.3618L8.70133 7.01368L4.39089 1.65557C4.30801 1.5535 4.24612 1.43607 4.20877 1.31001C4.17142 1.18395 4.15935 1.05175 4.17326 0.921013C4.18717 0.790274 4.22678 0.663573 4.28981 0.548193C4.35285 0.432812 4.43806 0.331026 4.54056 0.248686C4.6438 0.157851 4.7647 0.0893352 4.89567 0.0474391C5.02664 0.00554297 5.16486 -0.00882886 5.30165 0.00522486C5.43844 0.0192786 5.57085 0.0614548 5.69056 0.129107C5.81028 0.196758 5.91472 0.288425 5.99733 0.398354L10.8166 6.38508C10.9634 6.56362 11.0436 6.78756 11.0436 7.01867C11.0436 7.24979 10.9634 7.47373 10.8166 7.65227L5.82771 13.639C5.72761 13.7597 5.60046 13.8552 5.45657 13.9176C5.31268 13.98 5.1561 14.0076 4.99954 13.9982Z" fill="black"/>
</svg>
