<svg width="15" height="14" viewBox="0 0 15 14" fill="none" xmlns="http://www.w3.org/2000/svg">
<path d="M8.64464 6.99901L13.6572 1.99813C13.8767 1.77862 14 1.48091 14 1.17048C14 0.860046 13.8767 0.562331 13.6572 0.342824C13.4377 0.123318 13.14 0 12.8295 0C12.5191 0 12.2214 0.123318 12.0019 0.342824L7.001 5.35536L2.00012 0.342824C1.78061 0.123318 1.48289 -2.31288e-09 1.17247 0C0.862036 2.31288e-09 0.564321 0.123318 0.344814 0.342824C0.125307 0.562331 0.0019894 0.860046 0.00198939 1.17048C0.00198939 1.48091 0.125307 1.77862 0.344814 1.99813L5.35735 6.99901L0.344814 11.9999C0.235554 12.1083 0.148832 12.2372 0.0896511 12.3792C0.0304698 12.5213 0 12.6736 0 12.8275C0 12.9814 0.0304698 13.1338 0.0896511 13.2758C0.148832 13.4179 0.235554 13.5468 0.344814 13.6552C0.453181 13.7644 0.58211 13.8512 0.724162 13.9103C0.866214 13.9695 1.01858 14 1.17247 14C1.32635 14 1.47872 13.9695 1.62077 13.9103C1.76282 13.8512 1.89175 13.7644 2.00012 13.6552L7.001 8.64265L12.0019 13.6552C12.1102 13.7644 12.2392 13.8512 12.3812 13.9103C12.5233 13.9695 12.6756 14 12.8295 14C12.9834 14 13.1358 13.9695 13.2778 13.9103C13.4199 13.8512 13.5488 13.7644 13.6572 13.6552C13.7664 13.5468 13.8532 13.4179 13.9123 13.2758C13.9715 13.1338 14.002 12.9814 14.002 12.8275C14.002 12.6736 13.9715 12.5213 13.9123 12.3792C13.8532 12.2372 13.7664 12.1083 13.6572 11.9999L8.64464 6.99901Z" fill="black"/>
</svg>
